solid CATIA STL
  facet normal  0.000000e+000  0.000000e+000 -1.000000e+000
    outer loop
      vertex -9.200000e+001 -4.150000e+001  2.000000e+000
      vertex -9.075000e+001 -4.183494e+001  2.000000e+000
      vertex -9.325000e+001 -4.183494e+001  2.000000e+000
    endloop
  endfacet
  facet normal  0.000000e+000  0.000000e+000 -1.000000e+000
    outer loop
      vertex -9.200000e+001 -4.650000e+001  2.000000e+000
      vertex -9.325000e+001 -4.616506e+001  2.000000e+000
      vertex -9.075000e+001 -4.616506e+001  2.000000e+000
    endloop
  endfacet
  facet normal  0.000000e+000  0.000000e+000 -1.000000e+000
    outer loop
      vertex -9.075000e+001 -4.616506e+001  2.000000e+000
      vertex -9.325000e+001 -4.616506e+001  2.000000e+000
      vertex -9.416506e+001 -4.525000e+001  2.000000e+000
    endloop
  endfacet
  facet normal  0.000000e+000  0.000000e+000 -9.999999e-001
    outer loop
      vertex -9.075000e+001 -4.616506e+001  2.000000e+000
      vertex -9.416506e+001 -4.525000e+001  2.000000e+000
      vertex -8.983494e+001 -4.525000e+001  2.000000e+000
    endloop
  endfacet
  facet normal  0.000000e+000  0.000000e+000 -1.000000e+000
    outer loop
      vertex -8.983494e+001 -4.525000e+001  2.000000e+000
      vertex -9.416506e+001 -4.525000e+001  2.000000e+000
      vertex -9.450000e+001 -4.400000e+001  2.000000e+000
    endloop
  endfacet
  facet normal  0.000000e+000  0.000000e+000 -1.000000e+000
    outer loop
      vertex -8.983494e+001 -4.525000e+001  2.000000e+000
      vertex -9.450000e+001 -4.400000e+001  2.000000e+000
      vertex -8.950000e+001 -4.400000e+001  2.000000e+000
    endloop
  endfacet
  facet normal  0.000000e+000  0.000000e+000 -1.000000e+000
    outer loop
      vertex -8.950000e+001 -4.400000e+001  2.000000e+000
      vertex -9.450000e+001 -4.400000e+001  2.000000e+000
      vertex -9.416506e+001 -4.275000e+001  2.000000e+000
    endloop
  endfacet
  facet normal  0.000000e+000  0.000000e+000 -1.000000e+000
    outer loop
      vertex -8.950000e+001 -4.400000e+001  2.000000e+000
      vertex -9.416506e+001 -4.275000e+001  2.000000e+000
      vertex -8.983494e+001 -4.275000e+001  2.000000e+000
    endloop
  endfacet
  facet normal  0.000000e+000  0.000000e+000 -9.999999e-001
    outer loop
      vertex -8.983494e+001 -4.275000e+001  2.000000e+000
      vertex -9.416506e+001 -4.275000e+001  2.000000e+000
      vertex -9.325000e+001 -4.183494e+001  2.000000e+000
    endloop
  endfacet
  facet normal  0.000000e+000  0.000000e+000 -1.000000e+000
    outer loop
      vertex -8.983494e+001 -4.275000e+001  2.000000e+000
      vertex -9.325000e+001 -4.183494e+001  2.000000e+000
      vertex -9.075000e+001 -4.183494e+001  2.000000e+000
    endloop
  endfacet
  facet normal -2.588202e-001  9.659255e-001  0.000000e+000
    outer loop
      vertex -9.200000e+001 -4.650000e+001  0.000000e+000
      vertex -9.075000e+001 -4.616506e+001  2.000000e+000
      vertex -9.075000e+001 -4.616506e+001  0.000000e+000
    endloop
  endfacet
  facet normal -7.071068e-001  7.071068e-001  0.000000e+000
    outer loop
      vertex -9.075000e+001 -4.616506e+001  0.000000e+000
      vertex -9.075000e+001 -4.616506e+001  2.000000e+000
      vertex -8.983494e+001 -4.525000e+001  2.000000e+000
    endloop
  endfacet
  facet normal -7.071068e-001  7.071068e-001  0.000000e+000
    outer loop
      vertex -9.075000e+001 -4.616506e+001  0.000000e+000
      vertex -8.983494e+001 -4.525000e+001  2.000000e+000
      vertex -8.983494e+001 -4.525000e+001  0.000000e+000
    endloop
  endfacet
  facet normal -9.659255e-001  2.588202e-001  0.000000e+000
    outer loop
      vertex -8.983494e+001 -4.525000e+001  0.000000e+000
      vertex -8.983494e+001 -4.525000e+001  2.000000e+000
      vertex -8.950000e+001 -4.400000e+001  2.000000e+000
    endloop
  endfacet
  facet normal -9.659255e-001  2.588202e-001  0.000000e+000
    outer loop
      vertex -8.983494e+001 -4.525000e+001  0.000000e+000
      vertex -8.950000e+001 -4.400000e+001  2.000000e+000
      vertex -8.950000e+001 -4.400000e+001  0.000000e+000
    endloop
  endfacet
  facet normal -2.588202e-001  9.659255e-001  0.000000e+000
    outer loop
      vertex -9.075000e+001 -4.616506e+001  2.000000e+000
      vertex -9.200000e+001 -4.650000e+001  0.000000e+000
      vertex -9.200000e+001 -4.650000e+001  2.000000e+000
    endloop
  endfacet
  facet normal  2.588202e-001  9.659255e-001  0.000000e+000
    outer loop
      vertex -9.200000e+001 -4.650000e+001  2.000000e+000
      vertex -9.200000e+001 -4.650000e+001  0.000000e+000
      vertex -9.325000e+001 -4.616506e+001  0.000000e+000
    endloop
  endfacet
  facet normal  2.588202e-001  9.659255e-001  -0.000000e+000
    outer loop
      vertex -9.200000e+001 -4.650000e+001  2.000000e+000
      vertex -9.325000e+001 -4.616506e+001  0.000000e+000
      vertex -9.325000e+001 -4.616506e+001  2.000000e+000
    endloop
  endfacet
  facet normal  7.071068e-001  7.071068e-001  0.000000e+000
    outer loop
      vertex -9.325000e+001 -4.616506e+001  2.000000e+000
      vertex -9.325000e+001 -4.616506e+001  0.000000e+000
      vertex -9.416506e+001 -4.525000e+001  0.000000e+000
    endloop
  endfacet
  facet normal  7.071068e-001  7.071068e-001  -0.000000e+000
    outer loop
      vertex -9.325000e+001 -4.616506e+001  2.000000e+000
      vertex -9.416506e+001 -4.525000e+001  0.000000e+000
      vertex -9.416506e+001 -4.525000e+001  2.000000e+000
    endloop
  endfacet
  facet normal  9.659255e-001  2.588202e-001  0.000000e+000
    outer loop
      vertex -9.416506e+001 -4.525000e+001  2.000000e+000
      vertex -9.416506e+001 -4.525000e+001  0.000000e+000
      vertex -9.450000e+001 -4.400000e+001  0.000000e+000
    endloop
  endfacet
  facet normal  9.659255e-001  2.588202e-001  -0.000000e+000
    outer loop
      vertex -9.416506e+001 -4.525000e+001  2.000000e+000
      vertex -9.450000e+001 -4.400000e+001  0.000000e+000
      vertex -9.450000e+001 -4.400000e+001  2.000000e+000
    endloop
  endfacet
  facet normal  2.588202e-001 -9.659255e-001  0.000000e+000
    outer loop
      vertex -9.200000e+001 -4.150000e+001  0.000000e+000
      vertex -9.325000e+001 -4.183494e+001  2.000000e+000
      vertex -9.325000e+001 -4.183494e+001  0.000000e+000
    endloop
  endfacet
  facet normal  7.071068e-001 -7.071068e-001  0.000000e+000
    outer loop
      vertex -9.325000e+001 -4.183494e+001  0.000000e+000
      vertex -9.325000e+001 -4.183494e+001  2.000000e+000
      vertex -9.416506e+001 -4.275000e+001  2.000000e+000
    endloop
  endfacet
  facet normal  7.071068e-001 -7.071068e-001  0.000000e+000
    outer loop
      vertex -9.325000e+001 -4.183494e+001  0.000000e+000
      vertex -9.416506e+001 -4.275000e+001  2.000000e+000
      vertex -9.416506e+001 -4.275000e+001  0.000000e+000
    endloop
  endfacet
  facet normal  9.659255e-001 -2.588202e-001  0.000000e+000
    outer loop
      vertex -9.416506e+001 -4.275000e+001  0.000000e+000
      vertex -9.416506e+001 -4.275000e+001  2.000000e+000
      vertex -9.450000e+001 -4.400000e+001  2.000000e+000
    endloop
  endfacet
  facet normal  9.659255e-001 -2.588202e-001  0.000000e+000
    outer loop
      vertex -9.416506e+001 -4.275000e+001  0.000000e+000
      vertex -9.450000e+001 -4.400000e+001  2.000000e+000
      vertex -9.450000e+001 -4.400000e+001  0.000000e+000
    endloop
  endfacet
  facet normal  2.588202e-001 -9.659255e-001  0.000000e+000
    outer loop
      vertex -9.325000e+001 -4.183494e+001  2.000000e+000
      vertex -9.200000e+001 -4.150000e+001  0.000000e+000
      vertex -9.200000e+001 -4.150000e+001  2.000000e+000
    endloop
  endfacet
  facet normal -2.588202e-001 -9.659255e-001  -0.000000e+000
    outer loop
      vertex -9.200000e+001 -4.150000e+001  2.000000e+000
      vertex -9.200000e+001 -4.150000e+001  0.000000e+000
      vertex -9.075000e+001 -4.183494e+001  0.000000e+000
    endloop
  endfacet
  facet normal -2.588202e-001 -9.659255e-001  0.000000e+000
    outer loop
      vertex -9.200000e+001 -4.150000e+001  2.000000e+000
      vertex -9.075000e+001 -4.183494e+001  0.000000e+000
      vertex -9.075000e+001 -4.183494e+001  2.000000e+000
    endloop
  endfacet
  facet normal -7.071068e-001 -7.071068e-001  -0.000000e+000
    outer loop
      vertex -9.075000e+001 -4.183494e+001  2.000000e+000
      vertex -9.075000e+001 -4.183494e+001  0.000000e+000
      vertex -8.983494e+001 -4.275000e+001  0.000000e+000
    endloop
  endfacet
  facet normal -7.071068e-001 -7.071068e-001  0.000000e+000
    outer loop
      vertex -9.075000e+001 -4.183494e+001  2.000000e+000
      vertex -8.983494e+001 -4.275000e+001  0.000000e+000
      vertex -8.983494e+001 -4.275000e+001  2.000000e+000
    endloop
  endfacet
  facet normal -9.659255e-001 -2.588202e-001  -0.000000e+000
    outer loop
      vertex -8.983494e+001 -4.275000e+001  2.000000e+000
      vertex -8.983494e+001 -4.275000e+001  0.000000e+000
      vertex -8.950000e+001 -4.400000e+001  0.000000e+000
    endloop
  endfacet
  facet normal -9.659255e-001 -2.588202e-001  0.000000e+000
    outer loop
      vertex -8.983494e+001 -4.275000e+001  2.000000e+000
      vertex -8.950000e+001 -4.400000e+001  0.000000e+000
      vertex -8.950000e+001 -4.400000e+001  2.000000e+000
    endloop
  endfacet
  facet normal  0.000000e+000  0.000000e+000 -9.999999e-001
    outer loop
      vertex -8.165475e+001 -3.296326e+001  0.000000e+000
      vertex -8.165475e+001 -3.513407e+001  0.000000e+000
      vertex -8.246816e+001 -3.402428e+001  0.000000e+000
    endloop
  endfacet
  facet normal  0.000000e+000  0.000000e+000 -1.000000e+000
    outer loop
      vertex -8.165475e+001 -3.296326e+001  0.000000e+000
      vertex -8.246816e+001 -3.402428e+001  0.000000e+000
      vertex -8.374559e+001 -3.351298e+001  0.000000e+000
    endloop
  endfacet
  facet normal  -0.000000e+000  0.000000e+000 -1.000000e+000
    outer loop
      vertex -8.165475e+001 -3.296326e+001  0.000000e+000
      vertex -8.374559e+001 -3.351298e+001  0.000000e+000
      vertex -8.510009e+001 -3.375505e+001  0.000000e+000
    endloop
  endfacet
  facet normal  7.899294e-020 -3.437256e-019 -1.000000e+000
    outer loop
      vertex -8.165475e+001 -3.296326e+001  0.000000e+000
      vertex -8.510009e+001 -3.375505e+001  0.000000e+000
      vertex -9.512984e+001 -3.296326e+001 -1.064436e-018
    endloop
  endfacet
  facet normal  1.690019e-018  0.000000e+000 -1.000000e+000
    outer loop
      vertex -9.512984e+001 -4.712590e+001 -1.064436e-018
      vertex -9.512984e+001 -3.296326e+001 -1.064436e-018
      vertex -9.450000e+001 -3.600000e+001  0.000000e+000
    endloop
  endfacet
  facet normal  1.690019e-018  0.000000e+000 -1.000000e+000
    outer loop
      vertex -9.512984e+001 -4.712590e+001 -1.064436e-018
      vertex -9.450000e+001 -3.600000e+001  0.000000e+000
      vertex -9.450000e+001 -4.400000e+001  0.000000e+000
    endloop
  endfacet
  facet normal  7.253774e-019  1.943652e-019 -9.999999e-001
    outer loop
      vertex -9.512984e+001 -4.712590e+001 -1.064436e-018
      vertex -9.450000e+001 -4.400000e+001  0.000000e+000
      vertex -9.416506e+001 -4.525000e+001  0.000000e+000
    endloop
  endfacet
  facet normal  3.747120e-019  3.747120e-019 -9.999999e-001
    outer loop
      vertex -9.512984e+001 -4.712590e+001 -1.064436e-018
      vertex -9.416506e+001 -4.525000e+001  0.000000e+000
      vertex -9.325000e+001 -4.616506e+001  0.000000e+000
    endloop
  endfacet
  facet normal  1.947473e-019  7.268034e-019 -9.999999e-001
    outer loop
      vertex -9.512984e+001 -4.712590e+001 -1.064436e-018
      vertex -9.325000e+001 -4.616506e+001  0.000000e+000
      vertex -9.200000e+001 -4.650000e+001  0.000000e+000
    endloop
  endfacet
  facet normal -8.609051e-016  1.534215e-014 -1.000000e+000
    outer loop
      vertex -8.165475e+001 -4.712590e+001 -1.160183e-014
      vertex -9.512984e+001 -4.712590e+001 -1.064436e-018
      vertex -8.374559e+001 -4.648702e+001  0.000000e+000
    endloop
  endfacet
  facet normal -3.146683e-015  7.861602e-015 -1.000000e+000
    outer loop
      vertex -8.165475e+001 -4.712590e+001 -1.160183e-014
      vertex -8.374559e+001 -4.648702e+001  0.000000e+000
      vertex -8.246816e+001 -4.597572e+001  0.000000e+000
    endloop
  endfacet
  facet normal -1.426324e-014  0.000000e+000 -1.000000e+000
    outer loop
      vertex -8.165475e+001 -4.712590e+001 -1.160183e-014
      vertex -8.246816e+001 -4.597572e+001  0.000000e+000
      vertex -8.165475e+001 -4.486593e+001 -1.160183e-014
    endloop
  endfacet
  facet normal -9.344932e-020 -2.528093e-018 -1.000000e+000
    outer loop
      vertex -9.512984e+001 -3.296326e+001 -1.064436e-018
      vertex -8.510009e+001 -3.375505e+001  0.000000e+000
      vertex -9.200000e+001 -3.350000e+001  0.000000e+000
    endloop
  endfacet
  facet normal  2.073732e-019 -7.739236e-019 -1.000000e+000
    outer loop
      vertex -9.512984e+001 -3.296326e+001 -1.064436e-018
      vertex -9.200000e+001 -3.350000e+001  0.000000e+000
      vertex -9.325000e+001 -3.383494e+001  0.000000e+000
    endloop
  endfacet
  facet normal  3.868553e-019 -3.868553e-019 -1.000000e+000
    outer loop
      vertex -9.512984e+001 -3.296326e+001 -1.064436e-018
      vertex -9.325000e+001 -3.383494e+001  0.000000e+000
      vertex -9.416506e+001 -3.475000e+001  0.000000e+000
    endloop
  endfacet
  facet normal  7.373835e-019 -1.975822e-019 -9.999999e-001
    outer loop
      vertex -9.512984e+001 -3.296326e+001 -1.064436e-018
      vertex -9.416506e+001 -3.475000e+001  0.000000e+000
      vertex -9.450000e+001 -3.600000e+001  0.000000e+000
    endloop
  endfacet
  facet normal  7.115667e-020  3.981513e-019 -1.000000e+000
    outer loop
      vertex -8.374559e+001 -4.648702e+001  0.000000e+000
      vertex -9.512984e+001 -4.712590e+001 -1.064436e-018
      vertex -8.510009e+001 -4.624495e+001  0.000000e+000
    endloop
  endfacet
  facet normal -7.711740e-020  2.086264e-018 -1.000000e+000
    outer loop
      vertex -8.510009e+001 -4.624495e+001  0.000000e+000
      vertex -9.512984e+001 -4.712590e+001 -1.064436e-018
      vertex -9.200000e+001 -4.650000e+001  0.000000e+000
    endloop
  endfacet
  facet normal  0.000000e+000  0.000000e+000 -1.000000e+000
    outer loop
      vertex -8.510009e+001 -4.624495e+001  0.000000e+000
      vertex -9.200000e+001 -4.650000e+001  0.000000e+000
      vertex -8.612135e+001 -4.532283e+001  0.000000e+000
    endloop
  endfacet
  facet normal  0.000000e+000  0.000000e+000 -1.000000e+000
    outer loop
      vertex -8.612135e+001 -4.532283e+001  0.000000e+000
      vertex -9.200000e+001 -4.650000e+001  0.000000e+000
      vertex -9.075000e+001 -4.616506e+001  0.000000e+000
    endloop
  endfacet
  facet normal  0.000000e+000  0.000000e+000 -1.000000e+000
    outer loop
      vertex -8.612135e+001 -4.532283e+001  0.000000e+000
      vertex -9.075000e+001 -4.616506e+001  0.000000e+000
      vertex -8.650000e+001 -4.400000e+001  0.000000e+000
    endloop
  endfacet
  facet normal  0.000000e+000  0.000000e+000 -9.999999e-001
    outer loop
      vertex -8.650000e+001 -4.400000e+001  0.000000e+000
      vertex -9.075000e+001 -4.616506e+001  0.000000e+000
      vertex -8.983494e+001 -4.525000e+001  0.000000e+000
    endloop
  endfacet
  facet normal  0.000000e+000  0.000000e+000 -1.000000e+000
    outer loop
      vertex -8.650000e+001 -4.400000e+001  0.000000e+000
      vertex -8.983494e+001 -4.525000e+001  0.000000e+000
      vertex -8.950000e+001 -4.400000e+001  0.000000e+000
    endloop
  endfacet
  facet normal  0.000000e+000  0.000000e+000 -1.000000e+000
    outer loop
      vertex -8.165475e+001 -3.686593e+001  0.000000e+000
      vertex -8.165475e+001 -4.313407e+001  0.000000e+000
      vertex -8.246816e+001 -3.797572e+001  0.000000e+000
    endloop
  endfacet
  facet normal  0.000000e+000  0.000000e+000 -1.000000e+000
    outer loop
      vertex -8.246816e+001 -3.797572e+001  0.000000e+000
      vertex -8.165475e+001 -4.313407e+001  0.000000e+000
      vertex -8.246816e+001 -4.202428e+001  0.000000e+000
    endloop
  endfacet
  facet normal  0.000000e+000  0.000000e+000 -1.000000e+000
    outer loop
      vertex -8.246816e+001 -3.797572e+001  0.000000e+000
      vertex -8.246816e+001 -4.202428e+001  0.000000e+000
      vertex -8.374559e+001 -3.848702e+001  0.000000e+000
    endloop
  endfacet
  facet normal  0.000000e+000  0.000000e+000 -1.000000e+000
    outer loop
      vertex -8.374559e+001 -3.848702e+001  0.000000e+000
      vertex -8.246816e+001 -4.202428e+001  0.000000e+000
      vertex -8.374559e+001 -4.151298e+001  0.000000e+000
    endloop
  endfacet
  facet normal  0.000000e+000  0.000000e+000 -1.000000e+000
    outer loop
      vertex -8.374559e+001 -3.848702e+001  0.000000e+000
      vertex -8.374559e+001 -4.151298e+001  0.000000e+000
      vertex -8.510009e+001 -3.824495e+001  0.000000e+000
    endloop
  endfacet
  facet normal  0.000000e+000  0.000000e+000 -1.000000e+000
    outer loop
      vertex -8.510009e+001 -3.824495e+001  0.000000e+000
      vertex -8.374559e+001 -4.151298e+001  0.000000e+000
      vertex -8.510009e+001 -4.175505e+001  0.000000e+000
    endloop
  endfacet
  facet normal  0.000000e+000  0.000000e+000 -9.999999e-001
    outer loop
      vertex -8.510009e+001 -3.824495e+001  0.000000e+000
      vertex -8.510009e+001 -4.175505e+001  0.000000e+000
      vertex -8.612135e+001 -3.732283e+001  0.000000e+000
    endloop
  endfacet
  facet normal  0.000000e+000  0.000000e+000 -1.000000e+000
    outer loop
      vertex -8.612135e+001 -3.732283e+001  0.000000e+000
      vertex -8.510009e+001 -4.175505e+001  0.000000e+000
      vertex -8.612135e+001 -4.267717e+001  0.000000e+000
    endloop
  endfacet
  facet normal  0.000000e+000  0.000000e+000 -1.000000e+000
    outer loop
      vertex -8.612135e+001 -3.732283e+001  0.000000e+000
      vertex -8.612135e+001 -4.267717e+001  0.000000e+000
      vertex -8.650000e+001 -3.600000e+001  0.000000e+000
    endloop
  endfacet
  facet normal  0.000000e+000  0.000000e+000 -1.000000e+000
    outer loop
      vertex -8.650000e+001 -3.600000e+001  0.000000e+000
      vertex -8.612135e+001 -4.267717e+001  0.000000e+000
      vertex -8.650000e+001 -4.400000e+001  0.000000e+000
    endloop
  endfacet
  facet normal  0.000000e+000  0.000000e+000 -1.000000e+000
    outer loop
      vertex -8.650000e+001 -3.600000e+001  0.000000e+000
      vertex -8.650000e+001 -4.400000e+001  0.000000e+000
      vertex -8.950000e+001 -3.600000e+001  0.000000e+000
    endloop
  endfacet
  facet normal  0.000000e+000  0.000000e+000 -1.000000e+000
    outer loop
      vertex -8.950000e+001 -3.600000e+001  0.000000e+000
      vertex -8.650000e+001 -4.400000e+001  0.000000e+000
      vertex -8.950000e+001 -4.400000e+001  0.000000e+000
    endloop
  endfacet
  facet normal  0.000000e+000  0.000000e+000 -1.000000e+000
    outer loop
      vertex -8.950000e+001 -3.600000e+001  0.000000e+000
      vertex -8.950000e+001 -4.400000e+001  0.000000e+000
      vertex -8.983494e+001 -3.725000e+001  0.000000e+000
    endloop
  endfacet
  facet normal  0.000000e+000  0.000000e+000 -1.000000e+000
    outer loop
      vertex -8.983494e+001 -3.725000e+001  0.000000e+000
      vertex -8.950000e+001 -4.400000e+001  0.000000e+000
      vertex -8.983494e+001 -4.275000e+001  0.000000e+000
    endloop
  endfacet
  facet normal  0.000000e+000  0.000000e+000 -1.000000e+000
    outer loop
      vertex -8.983494e+001 -3.725000e+001  0.000000e+000
      vertex -8.983494e+001 -4.275000e+001  0.000000e+000
      vertex -9.075000e+001 -3.816506e+001  0.000000e+000
    endloop
  endfacet
  facet normal  0.000000e+000  0.000000e+000 -1.000000e+000
    outer loop
      vertex -9.075000e+001 -3.816506e+001  0.000000e+000
      vertex -8.983494e+001 -4.275000e+001  0.000000e+000
      vertex -9.075000e+001 -4.183494e+001  0.000000e+000
    endloop
  endfacet
  facet normal  0.000000e+000  0.000000e+000 -1.000000e+000
    outer loop
      vertex -9.075000e+001 -3.816506e+001  0.000000e+000
      vertex -9.075000e+001 -4.183494e+001  0.000000e+000
      vertex -9.200000e+001 -3.850000e+001  0.000000e+000
    endloop
  endfacet
  facet normal  0.000000e+000  0.000000e+000 -1.000000e+000
    outer loop
      vertex -9.200000e+001 -3.850000e+001  0.000000e+000
      vertex -9.075000e+001 -4.183494e+001  0.000000e+000
      vertex -9.200000e+001 -4.150000e+001  0.000000e+000
    endloop
  endfacet
  facet normal  0.000000e+000  0.000000e+000 -1.000000e+000
    outer loop
      vertex -9.200000e+001 -3.850000e+001  0.000000e+000
      vertex -9.200000e+001 -4.150000e+001  0.000000e+000
      vertex -9.325000e+001 -3.816506e+001  0.000000e+000
    endloop
  endfacet
  facet normal  0.000000e+000  0.000000e+000 -1.000000e+000
    outer loop
      vertex -9.325000e+001 -3.816506e+001  0.000000e+000
      vertex -9.200000e+001 -4.150000e+001  0.000000e+000
      vertex -9.325000e+001 -4.183494e+001  0.000000e+000
    endloop
  endfacet
  facet normal  0.000000e+000  0.000000e+000 -1.000000e+000
    outer loop
      vertex -9.325000e+001 -3.816506e+001  0.000000e+000
      vertex -9.325000e+001 -4.183494e+001  0.000000e+000
      vertex -9.416506e+001 -3.725000e+001  0.000000e+000
    endloop
  endfacet
  facet normal  0.000000e+000  0.000000e+000 -1.000000e+000
    outer loop
      vertex -9.416506e+001 -3.725000e+001  0.000000e+000
      vertex -9.325000e+001 -4.183494e+001  0.000000e+000
      vertex -9.416506e+001 -4.275000e+001  0.000000e+000
    endloop
  endfacet
  facet normal  0.000000e+000  0.000000e+000 -1.000000e+000
    outer loop
      vertex -9.416506e+001 -3.725000e+001  0.000000e+000
      vertex -9.416506e+001 -4.275000e+001  0.000000e+000
      vertex -9.450000e+001 -3.600000e+001  0.000000e+000
    endloop
  endfacet
  facet normal  0.000000e+000  0.000000e+000 -1.000000e+000
    outer loop
      vertex -9.450000e+001 -3.600000e+001  0.000000e+000
      vertex -9.416506e+001 -4.275000e+001  0.000000e+000
      vertex -9.450000e+001 -4.400000e+001  0.000000e+000
    endloop
  endfacet
  facet normal  -0.000000e+000  0.000000e+000 -1.000000e+000
    outer loop
      vertex -9.200000e+001 -3.350000e+001  0.000000e+000
      vertex -8.510009e+001 -3.375505e+001  0.000000e+000
      vertex -9.075000e+001 -3.383494e+001  0.000000e+000
    endloop
  endfacet
  facet normal  0.000000e+000  0.000000e+000 -1.000000e+000
    outer loop
      vertex -9.075000e+001 -3.383494e+001  0.000000e+000
      vertex -8.510009e+001 -3.375505e+001  0.000000e+000
      vertex -8.612135e+001 -3.467717e+001  0.000000e+000
    endloop
  endfacet
  facet normal  -0.000000e+000  0.000000e+000 -1.000000e+000
    outer loop
      vertex -9.075000e+001 -3.383494e+001  0.000000e+000
      vertex -8.612135e+001 -3.467717e+001  0.000000e+000
      vertex -8.983494e+001 -3.475000e+001  0.000000e+000
    endloop
  endfacet
  facet normal  0.000000e+000  0.000000e+000 -1.000000e+000
    outer loop
      vertex -8.983494e+001 -3.475000e+001  0.000000e+000
      vertex -8.612135e+001 -3.467717e+001  0.000000e+000
      vertex -8.650000e+001 -3.600000e+001  0.000000e+000
    endloop
  endfacet
  facet normal  0.000000e+000  0.000000e+000 -1.000000e+000
    outer loop
      vertex -8.983494e+001 -3.475000e+001  0.000000e+000
      vertex -8.650000e+001 -3.600000e+001  0.000000e+000
      vertex -8.950000e+001 -3.600000e+001  0.000000e+000
    endloop
  endfacet
  facet normal -2.588202e-001  9.659255e-001  0.000000e+000
    outer loop
      vertex -9.200000e+001 -3.850000e+001  0.000000e+000
      vertex -9.075000e+001 -3.816506e+001  2.000000e+000
      vertex -9.075000e+001 -3.816506e+001  0.000000e+000
    endloop
  endfacet
  facet normal -7.071068e-001  7.071068e-001  0.000000e+000
    outer loop
      vertex -9.075000e+001 -3.816506e+001  0.000000e+000
      vertex -9.075000e+001 -3.816506e+001  2.000000e+000
      vertex -8.983494e+001 -3.725000e+001  2.000000e+000
    endloop
  endfacet
  facet normal -7.071068e-001  7.071068e-001  0.000000e+000
    outer loop
      vertex -9.075000e+001 -3.816506e+001  0.000000e+000
      vertex -8.983494e+001 -3.725000e+001  2.000000e+000
      vertex -8.983494e+001 -3.725000e+001  0.000000e+000
    endloop
  endfacet
  facet normal -9.659255e-001  2.588202e-001  0.000000e+000
    outer loop
      vertex -8.983494e+001 -3.725000e+001  0.000000e+000
      vertex -8.983494e+001 -3.725000e+001  2.000000e+000
      vertex -8.950000e+001 -3.600000e+001  2.000000e+000
    endloop
  endfacet
  facet normal -9.659255e-001  2.588202e-001  0.000000e+000
    outer loop
      vertex -8.983494e+001 -3.725000e+001  0.000000e+000
      vertex -8.950000e+001 -3.600000e+001  2.000000e+000
      vertex -8.950000e+001 -3.600000e+001  0.000000e+000
    endloop
  endfacet
  facet normal -2.588202e-001  9.659255e-001  0.000000e+000
    outer loop
      vertex -9.075000e+001 -3.816506e+001  2.000000e+000
      vertex -9.200000e+001 -3.850000e+001  0.000000e+000
      vertex -9.200000e+001 -3.850000e+001  2.000000e+000
    endloop
  endfacet
  facet normal  2.588202e-001  9.659255e-001  0.000000e+000
    outer loop
      vertex -9.200000e+001 -3.850000e+001  2.000000e+000
      vertex -9.200000e+001 -3.850000e+001  0.000000e+000
      vertex -9.325000e+001 -3.816506e+001  0.000000e+000
    endloop
  endfacet
  facet normal  2.588202e-001  9.659255e-001  -0.000000e+000
    outer loop
      vertex -9.200000e+001 -3.850000e+001  2.000000e+000
      vertex -9.325000e+001 -3.816506e+001  0.000000e+000
      vertex -9.325000e+001 -3.816506e+001  2.000000e+000
    endloop
  endfacet
  facet normal  7.071068e-001  7.071068e-001  0.000000e+000
    outer loop
      vertex -9.325000e+001 -3.816506e+001  2.000000e+000
      vertex -9.325000e+001 -3.816506e+001  0.000000e+000
      vertex -9.416506e+001 -3.725000e+001  0.000000e+000
    endloop
  endfacet
  facet normal  7.071068e-001  7.071068e-001  -0.000000e+000
    outer loop
      vertex -9.325000e+001 -3.816506e+001  2.000000e+000
      vertex -9.416506e+001 -3.725000e+001  0.000000e+000
      vertex -9.416506e+001 -3.725000e+001  2.000000e+000
    endloop
  endfacet
  facet normal  9.659255e-001  2.588202e-001  0.000000e+000
    outer loop
      vertex -9.416506e+001 -3.725000e+001  2.000000e+000
      vertex -9.416506e+001 -3.725000e+001  0.000000e+000
      vertex -9.450000e+001 -3.600000e+001  0.000000e+000
    endloop
  endfacet
  facet normal  9.659255e-001  2.588202e-001  -0.000000e+000
    outer loop
      vertex -9.416506e+001 -3.725000e+001  2.000000e+000
      vertex -9.450000e+001 -3.600000e+001  0.000000e+000
      vertex -9.450000e+001 -3.600000e+001  2.000000e+000
    endloop
  endfacet
  facet normal  2.588202e-001 -9.659255e-001  0.000000e+000
    outer loop
      vertex -9.200000e+001 -3.350000e+001  0.000000e+000
      vertex -9.325000e+001 -3.383494e+001  2.000000e+000
      vertex -9.325000e+001 -3.383494e+001  0.000000e+000
    endloop
  endfacet
  facet normal  7.071068e-001 -7.071068e-001  0.000000e+000
    outer loop
      vertex -9.325000e+001 -3.383494e+001  0.000000e+000
      vertex -9.325000e+001 -3.383494e+001  2.000000e+000
      vertex -9.416506e+001 -3.475000e+001  2.000000e+000
    endloop
  endfacet
  facet normal  7.071068e-001 -7.071068e-001  0.000000e+000
    outer loop
      vertex -9.325000e+001 -3.383494e+001  0.000000e+000
      vertex -9.416506e+001 -3.475000e+001  2.000000e+000
      vertex -9.416506e+001 -3.475000e+001  0.000000e+000
    endloop
  endfacet
  facet normal  9.659255e-001 -2.588202e-001  0.000000e+000
    outer loop
      vertex -9.416506e+001 -3.475000e+001  0.000000e+000
      vertex -9.416506e+001 -3.475000e+001  2.000000e+000
      vertex -9.450000e+001 -3.600000e+001  2.000000e+000
    endloop
  endfacet
  facet normal  9.659255e-001 -2.588202e-001  0.000000e+000
    outer loop
      vertex -9.416506e+001 -3.475000e+001  0.000000e+000
      vertex -9.450000e+001 -3.600000e+001  2.000000e+000
      vertex -9.450000e+001 -3.600000e+001  0.000000e+000
    endloop
  endfacet
  facet normal  2.588202e-001 -9.659255e-001  0.000000e+000
    outer loop
      vertex -9.325000e+001 -3.383494e+001  2.000000e+000
      vertex -9.200000e+001 -3.350000e+001  0.000000e+000
      vertex -9.200000e+001 -3.350000e+001  2.000000e+000
    endloop
  endfacet
  facet normal -2.588202e-001 -9.659255e-001  -0.000000e+000
    outer loop
      vertex -9.200000e+001 -3.350000e+001  2.000000e+000
      vertex -9.200000e+001 -3.350000e+001  0.000000e+000
      vertex -9.075000e+001 -3.383494e+001  0.000000e+000
    endloop
  endfacet
  facet normal -2.588202e-001 -9.659255e-001  0.000000e+000
    outer loop
      vertex -9.200000e+001 -3.350000e+001  2.000000e+000
      vertex -9.075000e+001 -3.383494e+001  0.000000e+000
      vertex -9.075000e+001 -3.383494e+001  2.000000e+000
    endloop
  endfacet
  facet normal -7.071068e-001 -7.071068e-001  -0.000000e+000
    outer loop
      vertex -9.075000e+001 -3.383494e+001  2.000000e+000
      vertex -9.075000e+001 -3.383494e+001  0.000000e+000
      vertex -8.983494e+001 -3.475000e+001  0.000000e+000
    endloop
  endfacet
  facet normal -7.071068e-001 -7.071068e-001  0.000000e+000
    outer loop
      vertex -9.075000e+001 -3.383494e+001  2.000000e+000
      vertex -8.983494e+001 -3.475000e+001  0.000000e+000
      vertex -8.983494e+001 -3.475000e+001  2.000000e+000
    endloop
  endfacet
  facet normal -9.659255e-001 -2.588202e-001  -0.000000e+000
    outer loop
      vertex -8.983494e+001 -3.475000e+001  2.000000e+000
      vertex -8.983494e+001 -3.475000e+001  0.000000e+000
      vertex -8.950000e+001 -3.600000e+001  0.000000e+000
    endloop
  endfacet
  facet normal -9.659255e-001 -2.588202e-001  0.000000e+000
    outer loop
      vertex -8.983494e+001 -3.475000e+001  2.000000e+000
      vertex -8.950000e+001 -3.600000e+001  0.000000e+000
      vertex -8.950000e+001 -3.600000e+001  2.000000e+000
    endloop
  endfacet
  facet normal  0.000000e+000  0.000000e+000 -1.000000e+000
    outer loop
      vertex -9.200000e+001 -3.350000e+001  2.000000e+000
      vertex -9.075000e+001 -3.383494e+001  2.000000e+000
      vertex -9.325000e+001 -3.383494e+001  2.000000e+000
    endloop
  endfacet
  facet normal  0.000000e+000  0.000000e+000 -1.000000e+000
    outer loop
      vertex -9.200000e+001 -3.850000e+001  2.000000e+000
      vertex -9.325000e+001 -3.816506e+001  2.000000e+000
      vertex -9.075000e+001 -3.816506e+001  2.000000e+000
    endloop
  endfacet
  facet normal  0.000000e+000  0.000000e+000 -1.000000e+000
    outer loop
      vertex -9.075000e+001 -3.816506e+001  2.000000e+000
      vertex -9.325000e+001 -3.816506e+001  2.000000e+000
      vertex -9.416506e+001 -3.725000e+001  2.000000e+000
    endloop
  endfacet
  facet normal  0.000000e+000  0.000000e+000 -9.999999e-001
    outer loop
      vertex -9.075000e+001 -3.816506e+001  2.000000e+000
      vertex -9.416506e+001 -3.725000e+001  2.000000e+000
      vertex -8.983494e+001 -3.725000e+001  2.000000e+000
    endloop
  endfacet
  facet normal  0.000000e+000  0.000000e+000 -1.000000e+000
    outer loop
      vertex -8.983494e+001 -3.725000e+001  2.000000e+000
      vertex -9.416506e+001 -3.725000e+001  2.000000e+000
      vertex -9.450000e+001 -3.600000e+001  2.000000e+000
    endloop
  endfacet
  facet normal  0.000000e+000  0.000000e+000 -1.000000e+000
    outer loop
      vertex -8.983494e+001 -3.725000e+001  2.000000e+000
      vertex -9.450000e+001 -3.600000e+001  2.000000e+000
      vertex -8.950000e+001 -3.600000e+001  2.000000e+000
    endloop
  endfacet
  facet normal  0.000000e+000  0.000000e+000 -1.000000e+000
    outer loop
      vertex -8.950000e+001 -3.600000e+001  2.000000e+000
      vertex -9.450000e+001 -3.600000e+001  2.000000e+000
      vertex -9.416506e+001 -3.475000e+001  2.000000e+000
    endloop
  endfacet
  facet normal  0.000000e+000  0.000000e+000 -1.000000e+000
    outer loop
      vertex -8.950000e+001 -3.600000e+001  2.000000e+000
      vertex -9.416506e+001 -3.475000e+001  2.000000e+000
      vertex -8.983494e+001 -3.475000e+001  2.000000e+000
    endloop
  endfacet
  facet normal  0.000000e+000  0.000000e+000 -9.999999e-001
    outer loop
      vertex -8.983494e+001 -3.475000e+001  2.000000e+000
      vertex -9.416506e+001 -3.475000e+001  2.000000e+000
      vertex -9.325000e+001 -3.383494e+001  2.000000e+000
    endloop
  endfacet
  facet normal  0.000000e+000  0.000000e+000 -1.000000e+000
    outer loop
      vertex -8.983494e+001 -3.475000e+001  2.000000e+000
      vertex -9.325000e+001 -3.383494e+001  2.000000e+000
      vertex -9.075000e+001 -3.383494e+001  2.000000e+000
    endloop
  endfacet
  facet normal  6.701626e-001 -7.422143e-001  0.000000e+000
    outer loop
      vertex -8.510009e+001 -4.175505e+001  0.000000e+000
      vertex -8.612135e+001 -4.267717e+001  2.000000e+000
      vertex -8.612135e+001 -4.267717e+001  0.000000e+000
    endloop
  endfacet
  facet normal  9.613891e-001 -2.751927e-001  0.000000e+000
    outer loop
      vertex -8.612135e+001 -4.267717e+001  0.000000e+000
      vertex -8.612135e+001 -4.267717e+001  2.000000e+000
      vertex -8.650000e+001 -4.400000e+001  2.000000e+000
    endloop
  endfacet
  facet normal  9.613891e-001 -2.751927e-001  0.000000e+000
    outer loop
      vertex -8.612135e+001 -4.267717e+001  0.000000e+000
      vertex -8.650000e+001 -4.400000e+001  2.000000e+000
      vertex -8.650000e+001 -4.400000e+001  0.000000e+000
    endloop
  endfacet
  facet normal  6.701626e-001 -7.422143e-001  0.000000e+000
    outer loop
      vertex -8.612135e+001 -4.267717e+001  2.000000e+000
      vertex -8.510009e+001 -4.175505e+001  0.000000e+000
      vertex -8.510009e+001 -4.175505e+001  2.000000e+000
    endloop
  endfacet
  facet normal  1.759301e-001 -9.844026e-001  0.000000e+000
    outer loop
      vertex -8.510009e+001 -4.175505e+001  2.000000e+000
      vertex -8.510009e+001 -4.175505e+001  0.000000e+000
      vertex -8.374559e+001 -4.151298e+001  0.000000e+000
    endloop
  endfacet
  facet normal  1.759301e-001 -9.844026e-001  0.000000e+000
    outer loop
      vertex -8.510009e+001 -4.175505e+001  2.000000e+000
      vertex -8.374559e+001 -4.151298e+001  0.000000e+000
      vertex -8.374559e+001 -4.151298e+001  2.000000e+000
    endloop
  endfacet
  facet normal -3.715986e-001 -9.283935e-001  -0.000000e+000
    outer loop
      vertex -8.374559e+001 -4.151298e+001  2.000000e+000
      vertex -8.374559e+001 -4.151298e+001  0.000000e+000
      vertex -8.246816e+001 -4.202428e+001  0.000000e+000
    endloop
  endfacet
  facet normal -3.715986e-001 -9.283935e-001  0.000000e+000
    outer loop
      vertex -8.374559e+001 -4.151298e+001  2.000000e+000
      vertex -8.246816e+001 -4.202428e+001  0.000000e+000
      vertex -8.246816e+001 -4.202428e+001  2.000000e+000
    endloop
  endfacet
  facet normal -8.065570e-001 -5.911563e-001  -0.000000e+000
    outer loop
      vertex -8.246816e+001 -4.202428e+001  2.000000e+000
      vertex -8.246816e+001 -4.202428e+001  0.000000e+000
      vertex -8.165475e+001 -4.313407e+001  0.000000e+000
    endloop
  endfacet
  facet normal -8.065570e-001 -5.911563e-001  0.000000e+000
    outer loop
      vertex -8.246816e+001 -4.202428e+001  2.000000e+000
      vertex -8.165475e+001 -4.313407e+001  0.000000e+000
      vertex -8.165475e+001 -4.313407e+001  2.000000e+000
    endloop
  endfacet
  facet normal -3.715986e-001  9.283935e-001  0.000000e+000
    outer loop
      vertex -8.374559e+001 -4.648702e+001  0.000000e+000
      vertex -8.246816e+001 -4.597572e+001  2.000000e+000
      vertex -8.246816e+001 -4.597572e+001  0.000000e+000
    endloop
  endfacet
  facet normal -8.065570e-001  5.911563e-001  0.000000e+000
    outer loop
      vertex -8.246816e+001 -4.597572e+001  0.000000e+000
      vertex -8.246816e+001 -4.597572e+001  2.000000e+000
      vertex -8.165475e+001 -4.486593e+001  2.000000e+000
    endloop
  endfacet
  facet normal -8.065570e-001  5.911563e-001  0.000000e+000
    outer loop
      vertex -8.246816e+001 -4.597572e+001  0.000000e+000
      vertex -8.165475e+001 -4.486593e+001  2.000000e+000
      vertex -8.165475e+001 -4.486593e+001 -1.160183e-014
    endloop
  endfacet
  facet normal -3.715986e-001  9.283935e-001  0.000000e+000
    outer loop
      vertex -8.246816e+001 -4.597572e+001  2.000000e+000
      vertex -8.374559e+001 -4.648702e+001  0.000000e+000
      vertex -8.374559e+001 -4.648702e+001  2.000000e+000
    endloop
  endfacet
  facet normal  1.759301e-001  9.844026e-001  0.000000e+000
    outer loop
      vertex -8.374559e+001 -4.648702e+001  2.000000e+000
      vertex -8.374559e+001 -4.648702e+001  0.000000e+000
      vertex -8.510009e+001 -4.624495e+001  0.000000e+000
    endloop
  endfacet
  facet normal  1.759301e-001  9.844026e-001  -0.000000e+000
    outer loop
      vertex -8.374559e+001 -4.648702e+001  2.000000e+000
      vertex -8.510009e+001 -4.624495e+001  0.000000e+000
      vertex -8.510009e+001 -4.624495e+001  2.000000e+000
    endloop
  endfacet
  facet normal  6.701626e-001  7.422143e-001  0.000000e+000
    outer loop
      vertex -8.510009e+001 -4.624495e+001  2.000000e+000
      vertex -8.510009e+001 -4.624495e+001  0.000000e+000
      vertex -8.612135e+001 -4.532283e+001  0.000000e+000
    endloop
  endfacet
  facet normal  6.701626e-001  7.422143e-001  -0.000000e+000
    outer loop
      vertex -8.510009e+001 -4.624495e+001  2.000000e+000
      vertex -8.612135e+001 -4.532283e+001  0.000000e+000
      vertex -8.612135e+001 -4.532283e+001  2.000000e+000
    endloop
  endfacet
  facet normal  9.613891e-001  2.751927e-001  0.000000e+000
    outer loop
      vertex -8.612135e+001 -4.532283e+001  2.000000e+000
      vertex -8.612135e+001 -4.532283e+001  0.000000e+000
      vertex -8.650000e+001 -4.400000e+001  0.000000e+000
    endloop
  endfacet
  facet normal  9.613891e-001  2.751927e-001  -0.000000e+000
    outer loop
      vertex -8.612135e+001 -4.532283e+001  2.000000e+000
      vertex -8.650000e+001 -4.400000e+001  0.000000e+000
      vertex -8.650000e+001 -4.400000e+001  2.000000e+000
    endloop
  endfacet
  facet normal  0.000000e+000  0.000000e+000 -1.000000e+000
    outer loop
      vertex -8.165475e+001 -4.313407e+001  2.000000e+000
      vertex -8.612135e+001 -4.267717e+001  2.000000e+000
      vertex -8.246816e+001 -4.202428e+001  2.000000e+000
    endloop
  endfacet
  facet normal  -0.000000e+000  0.000000e+000 -1.000000e+000
    outer loop
      vertex -8.246816e+001 -4.202428e+001  2.000000e+000
      vertex -8.612135e+001 -4.267717e+001  2.000000e+000
      vertex -8.510009e+001 -4.175505e+001  2.000000e+000
    endloop
  endfacet
  facet normal  0.000000e+000  0.000000e+000 -1.000000e+000
    outer loop
      vertex -8.246816e+001 -4.202428e+001  2.000000e+000
      vertex -8.510009e+001 -4.175505e+001  2.000000e+000
      vertex -8.374559e+001 -4.151298e+001  2.000000e+000
    endloop
  endfacet
  facet normal  0.000000e+000  0.000000e+000 -1.000000e+000
    outer loop
      vertex -8.612135e+001 -4.532283e+001  2.000000e+000
      vertex -8.650000e+001 -4.400000e+001  2.000000e+000
      vertex -8.165475e+001 -4.486593e+001  2.000000e+000
    endloop
  endfacet
  facet normal  0.000000e+000  0.000000e+000 -1.000000e+000
    outer loop
      vertex -8.165475e+001 -4.486593e+001  2.000000e+000
      vertex -8.650000e+001 -4.400000e+001  2.000000e+000
      vertex -8.612135e+001 -4.267717e+001  2.000000e+000
    endloop
  endfacet
  facet normal  0.000000e+000  0.000000e+000 -1.000000e+000
    outer loop
      vertex -8.165475e+001 -4.486593e+001  2.000000e+000
      vertex -8.612135e+001 -4.267717e+001  2.000000e+000
      vertex -8.165475e+001 -4.313407e+001  2.000000e+000
    endloop
  endfacet
  facet normal  0.000000e+000  0.000000e+000 -1.000000e+000
    outer loop
      vertex -8.374559e+001 -4.648702e+001  2.000000e+000
      vertex -8.510009e+001 -4.624495e+001  2.000000e+000
      vertex -8.246816e+001 -4.597572e+001  2.000000e+000
    endloop
  endfacet
  facet normal  -0.000000e+000  0.000000e+000 -1.000000e+000
    outer loop
      vertex -8.246816e+001 -4.597572e+001  2.000000e+000
      vertex -8.510009e+001 -4.624495e+001  2.000000e+000
      vertex -8.612135e+001 -4.532283e+001  2.000000e+000
    endloop
  endfacet
  facet normal  0.000000e+000  0.000000e+000 -1.000000e+000
    outer loop
      vertex -8.246816e+001 -4.597572e+001  2.000000e+000
      vertex -8.612135e+001 -4.532283e+001  2.000000e+000
      vertex -8.165475e+001 -4.486593e+001  2.000000e+000
    endloop
  endfacet
  facet normal  6.701626e-001 -7.422143e-001  0.000000e+000
    outer loop
      vertex -8.510009e+001 -3.375505e+001  0.000000e+000
      vertex -8.612135e+001 -3.467717e+001  2.000000e+000
      vertex -8.612135e+001 -3.467717e+001  0.000000e+000
    endloop
  endfacet
  facet normal  9.613891e-001 -2.751927e-001  0.000000e+000
    outer loop
      vertex -8.612135e+001 -3.467717e+001  0.000000e+000
      vertex -8.612135e+001 -3.467717e+001  2.000000e+000
      vertex -8.650000e+001 -3.600000e+001  2.000000e+000
    endloop
  endfacet
  facet normal  9.613891e-001 -2.751927e-001  0.000000e+000
    outer loop
      vertex -8.612135e+001 -3.467717e+001  0.000000e+000
      vertex -8.650000e+001 -3.600000e+001  2.000000e+000
      vertex -8.650000e+001 -3.600000e+001  0.000000e+000
    endloop
  endfacet
  facet normal  6.701626e-001 -7.422143e-001  0.000000e+000
    outer loop
      vertex -8.612135e+001 -3.467717e+001  2.000000e+000
      vertex -8.510009e+001 -3.375505e+001  0.000000e+000
      vertex -8.510009e+001 -3.375505e+001  2.000000e+000
    endloop
  endfacet
  facet normal  1.759301e-001 -9.844026e-001  0.000000e+000
    outer loop
      vertex -8.510009e+001 -3.375505e+001  2.000000e+000
      vertex -8.510009e+001 -3.375505e+001  0.000000e+000
      vertex -8.374559e+001 -3.351298e+001  0.000000e+000
    endloop
  endfacet
  facet normal  1.759301e-001 -9.844026e-001  0.000000e+000
    outer loop
      vertex -8.510009e+001 -3.375505e+001  2.000000e+000
      vertex -8.374559e+001 -3.351298e+001  0.000000e+000
      vertex -8.374559e+001 -3.351298e+001  2.000000e+000
    endloop
  endfacet
  facet normal -3.715986e-001 -9.283935e-001  -0.000000e+000
    outer loop
      vertex -8.374559e+001 -3.351298e+001  2.000000e+000
      vertex -8.374559e+001 -3.351298e+001  0.000000e+000
      vertex -8.246816e+001 -3.402428e+001  0.000000e+000
    endloop
  endfacet
  facet normal -3.715986e-001 -9.283935e-001  0.000000e+000
    outer loop
      vertex -8.374559e+001 -3.351298e+001  2.000000e+000
      vertex -8.246816e+001 -3.402428e+001  0.000000e+000
      vertex -8.246816e+001 -3.402428e+001  2.000000e+000
    endloop
  endfacet
  facet normal -8.065570e-001 -5.911563e-001  -0.000000e+000
    outer loop
      vertex -8.246816e+001 -3.402428e+001  2.000000e+000
      vertex -8.246816e+001 -3.402428e+001  0.000000e+000
      vertex -8.165475e+001 -3.513407e+001  0.000000e+000
    endloop
  endfacet
  facet normal -8.065570e-001 -5.911563e-001  0.000000e+000
    outer loop
      vertex -8.246816e+001 -3.402428e+001  2.000000e+000
      vertex -8.165475e+001 -3.513407e+001  0.000000e+000
      vertex -8.165475e+001 -3.513407e+001  2.000000e+000
    endloop
  endfacet
  facet normal -3.715986e-001  9.283935e-001  0.000000e+000
    outer loop
      vertex -8.374559e+001 -3.848702e+001  0.000000e+000
      vertex -8.246816e+001 -3.797572e+001  2.000000e+000
      vertex -8.246816e+001 -3.797572e+001  0.000000e+000
    endloop
  endfacet
  facet normal -8.065570e-001  5.911563e-001  0.000000e+000
    outer loop
      vertex -8.246816e+001 -3.797572e+001  0.000000e+000
      vertex -8.246816e+001 -3.797572e+001  2.000000e+000
      vertex -8.165475e+001 -3.686593e+001  2.000000e+000
    endloop
  endfacet
  facet normal -8.065570e-001  5.911563e-001  0.000000e+000
    outer loop
      vertex -8.246816e+001 -3.797572e+001  0.000000e+000
      vertex -8.165475e+001 -3.686593e+001  2.000000e+000
      vertex -8.165475e+001 -3.686593e+001  0.000000e+000
    endloop
  endfacet
  facet normal -3.715986e-001  9.283935e-001  0.000000e+000
    outer loop
      vertex -8.246816e+001 -3.797572e+001  2.000000e+000
      vertex -8.374559e+001 -3.848702e+001  0.000000e+000
      vertex -8.374559e+001 -3.848702e+001  2.000000e+000
    endloop
  endfacet
  facet normal  1.759301e-001  9.844026e-001  0.000000e+000
    outer loop
      vertex -8.374559e+001 -3.848702e+001  2.000000e+000
      vertex -8.374559e+001 -3.848702e+001  0.000000e+000
      vertex -8.510009e+001 -3.824495e+001  0.000000e+000
    endloop
  endfacet
  facet normal  1.759301e-001  9.844026e-001  -0.000000e+000
    outer loop
      vertex -8.374559e+001 -3.848702e+001  2.000000e+000
      vertex -8.510009e+001 -3.824495e+001  0.000000e+000
      vertex -8.510009e+001 -3.824495e+001  2.000000e+000
    endloop
  endfacet
  facet normal  6.701626e-001  7.422143e-001  0.000000e+000
    outer loop
      vertex -8.510009e+001 -3.824495e+001  2.000000e+000
      vertex -8.510009e+001 -3.824495e+001  0.000000e+000
      vertex -8.612135e+001 -3.732283e+001  0.000000e+000
    endloop
  endfacet
  facet normal  6.701626e-001  7.422143e-001  -0.000000e+000
    outer loop
      vertex -8.510009e+001 -3.824495e+001  2.000000e+000
      vertex -8.612135e+001 -3.732283e+001  0.000000e+000
      vertex -8.612135e+001 -3.732283e+001  2.000000e+000
    endloop
  endfacet
  facet normal  9.613891e-001  2.751927e-001  0.000000e+000
    outer loop
      vertex -8.612135e+001 -3.732283e+001  2.000000e+000
      vertex -8.612135e+001 -3.732283e+001  0.000000e+000
      vertex -8.650000e+001 -3.600000e+001  0.000000e+000
    endloop
  endfacet
  facet normal  9.613891e-001  2.751927e-001  -0.000000e+000
    outer loop
      vertex -8.612135e+001 -3.732283e+001  2.000000e+000
      vertex -8.650000e+001 -3.600000e+001  0.000000e+000
      vertex -8.650000e+001 -3.600000e+001  2.000000e+000
    endloop
  endfacet
  facet normal  0.000000e+000  0.000000e+000 -1.000000e+000
    outer loop
      vertex -8.165475e+001 -3.513407e+001  2.000000e+000
      vertex -8.612135e+001 -3.467717e+001  2.000000e+000
      vertex -8.246816e+001 -3.402428e+001  2.000000e+000
    endloop
  endfacet
  facet normal  -0.000000e+000  0.000000e+000 -1.000000e+000
    outer loop
      vertex -8.246816e+001 -3.402428e+001  2.000000e+000
      vertex -8.612135e+001 -3.467717e+001  2.000000e+000
      vertex -8.510009e+001 -3.375505e+001  2.000000e+000
    endloop
  endfacet
  facet normal  0.000000e+000  0.000000e+000 -1.000000e+000
    outer loop
      vertex -8.246816e+001 -3.402428e+001  2.000000e+000
      vertex -8.510009e+001 -3.375505e+001  2.000000e+000
      vertex -8.374559e+001 -3.351298e+001  2.000000e+000
    endloop
  endfacet
  facet normal  0.000000e+000  0.000000e+000 -1.000000e+000
    outer loop
      vertex -8.612135e+001 -3.732283e+001  2.000000e+000
      vertex -8.650000e+001 -3.600000e+001  2.000000e+000
      vertex -8.165475e+001 -3.686593e+001  2.000000e+000
    endloop
  endfacet
  facet normal  0.000000e+000  0.000000e+000 -1.000000e+000
    outer loop
      vertex -8.165475e+001 -3.686593e+001  2.000000e+000
      vertex -8.650000e+001 -3.600000e+001  2.000000e+000
      vertex -8.612135e+001 -3.467717e+001  2.000000e+000
    endloop
  endfacet
  facet normal  0.000000e+000  0.000000e+000 -1.000000e+000
    outer loop
      vertex -8.165475e+001 -3.686593e+001  2.000000e+000
      vertex -8.612135e+001 -3.467717e+001  2.000000e+000
      vertex -8.165475e+001 -3.513407e+001  2.000000e+000
    endloop
  endfacet
  facet normal  0.000000e+000  0.000000e+000 -1.000000e+000
    outer loop
      vertex -8.374559e+001 -3.848702e+001  2.000000e+000
      vertex -8.510009e+001 -3.824495e+001  2.000000e+000
      vertex -8.246816e+001 -3.797572e+001  2.000000e+000
    endloop
  endfacet
  facet normal  -0.000000e+000  0.000000e+000 -1.000000e+000
    outer loop
      vertex -8.246816e+001 -3.797572e+001  2.000000e+000
      vertex -8.510009e+001 -3.824495e+001  2.000000e+000
      vertex -8.612135e+001 -3.732283e+001  2.000000e+000
    endloop
  endfacet
  facet normal  0.000000e+000  0.000000e+000 -1.000000e+000
    outer loop
      vertex -8.246816e+001 -3.797572e+001  2.000000e+000
      vertex -8.612135e+001 -3.732283e+001  2.000000e+000
      vertex -8.165475e+001 -3.686593e+001  2.000000e+000
    endloop
  endfacet
  facet normal  1.000000e+000  -0.000000e+000  0.000000e+000
    outer loop
      vertex -8.165475e+001 -3.299713e+001  3.000000e+000
      vertex -8.165475e+001 -4.712590e+001  3.000000e+000
      vertex -8.165475e+001 -4.486593e+001  2.000000e+000
    endloop
  endfacet
  facet normal  9.999999e-001  0.000000e+000  0.000000e+000
    outer loop
      vertex -8.165475e+001 -3.299713e+001  3.000000e+000
      vertex -8.165475e+001 -4.486593e+001  2.000000e+000
      vertex -8.165475e+001 -4.313407e+001  2.000000e+000
    endloop
  endfacet
  facet normal  1.000000e+000  0.000000e+000  0.000000e+000
    outer loop
      vertex -8.165475e+001 -3.299713e+001  3.000000e+000
      vertex -8.165475e+001 -4.313407e+001  2.000000e+000
      vertex -8.165475e+001 -3.686593e+001  2.000000e+000
    endloop
  endfacet
  facet normal  9.999999e-001  0.000000e+000  0.000000e+000
    outer loop
      vertex -8.165475e+001 -3.299713e+001  3.000000e+000
      vertex -8.165475e+001 -3.686593e+001  2.000000e+000
      vertex -8.165475e+001 -3.513407e+001  2.000000e+000
    endloop
  endfacet
  facet normal  1.000000e+000  -0.000000e+000  0.000000e+000
    outer loop
      vertex -8.165475e+001 -3.299713e+001  3.000000e+000
      vertex -8.165475e+001 -3.513407e+001  2.000000e+000
      vertex -8.165475e+001 -3.513407e+001  0.000000e+000
    endloop
  endfacet
  facet normal  1.000000e+000  0.000000e+000  0.000000e+000
    outer loop
      vertex -8.165475e+001 -3.299713e+001  3.000000e+000
      vertex -8.165475e+001 -3.513407e+001  0.000000e+000
      vertex -8.165475e+001 -3.296326e+001  0.000000e+000
    endloop
  endfacet
  facet normal  1.000000e+000  0.000000e+000  -0.000000e+000
    outer loop
      vertex -8.165475e+001 -3.299713e+001  3.000000e+000
      vertex -8.165475e+001 -3.296326e+001  0.000000e+000
      vertex -8.165475e+001 -3.296326e+001  3.000000e+000
    endloop
  endfacet
  facet normal  1.000000e+000  0.000000e+000  0.000000e+000
    outer loop
      vertex -8.165475e+001 -3.686593e+001  0.000000e+000
      vertex -8.165475e+001 -3.686593e+001  2.000000e+000
      vertex -8.165475e+001 -4.313407e+001  0.000000e+000
    endloop
  endfacet
  facet normal  1.000000e+000  0.000000e+000  0.000000e+000
    outer loop
      vertex -8.165475e+001 -4.313407e+001  0.000000e+000
      vertex -8.165475e+001 -3.686593e+001  2.000000e+000
      vertex -8.165475e+001 -4.313407e+001  2.000000e+000
    endloop
  endfacet
  facet normal  1.000000e+000  0.000000e+000  0.000000e+000
    outer loop
      vertex -8.165475e+001 -4.712590e+001 -1.160183e-014
      vertex -8.165475e+001 -4.486593e+001 -1.160183e-014
      vertex -8.165475e+001 -4.712590e+001  3.000000e+000
    endloop
  endfacet
  facet normal  1.000000e+000  0.000000e+000  0.000000e+000
    outer loop
      vertex -8.165475e+001 -4.712590e+001  3.000000e+000
      vertex -8.165475e+001 -4.486593e+001 -1.160183e-014
      vertex -8.165475e+001 -4.486593e+001  2.000000e+000
    endloop
  endfacet
  facet normal  0.000000e+000  1.000000e+000  0.000000e+000
    outer loop
      vertex -9.512984e+001 -3.296326e+001 -1.064436e-018
      vertex -9.512984e+001 -3.296326e+001  3.000000e+000
      vertex -8.165475e+001 -3.296326e+001  0.000000e+000
    endloop
  endfacet
  facet normal  0.000000e+000  1.000000e+000  -0.000000e+000
    outer loop
      vertex -8.165475e+001 -3.296326e+001  0.000000e+000
      vertex -9.512984e+001 -3.296326e+001  3.000000e+000
      vertex -8.165475e+001 -3.296326e+001  3.000000e+000
    endloop
  endfacet
  facet normal -1.000000e+000  0.000000e+000  0.000000e+000
    outer loop
      vertex -9.512984e+001 -4.712590e+001 -1.064436e-018
      vertex -9.512984e+001 -4.712590e+001  3.000000e+000
      vertex -9.512984e+001 -3.296326e+001 -1.064436e-018
    endloop
  endfacet
  facet normal -1.000000e+000  0.000000e+000  0.000000e+000
    outer loop
      vertex -9.512984e+001 -3.296326e+001 -1.064436e-018
      vertex -9.512984e+001 -4.712590e+001  3.000000e+000
      vertex -9.512984e+001 -3.299713e+001  3.000000e+000
    endloop
  endfacet
  facet normal -1.000000e+000  0.000000e+000  0.000000e+000
    outer loop
      vertex -9.512984e+001 -3.296326e+001 -1.064436e-018
      vertex -9.512984e+001 -3.299713e+001  3.000000e+000
      vertex -9.512984e+001 -3.296326e+001  3.000000e+000
    endloop
  endfacet
  facet normal  0.000000e+000 -1.000000e+000  0.000000e+000
    outer loop
      vertex -9.512984e+001 -4.712590e+001 -1.064436e-018
      vertex -8.165475e+001 -4.712590e+001 -1.160183e-014
      vertex -9.512984e+001 -4.712590e+001  3.000000e+000
    endloop
  endfacet
  facet normal  0.000000e+000 -1.000000e+000  0.000000e+000
    outer loop
      vertex -9.512984e+001 -4.712590e+001  3.000000e+000
      vertex -8.165475e+001 -4.712590e+001 -1.160183e-014
      vertex -8.165475e+001 -4.712590e+001  3.000000e+000
    endloop
  endfacet
  facet normal  -0.000000e+000  0.000000e+000 -1.000000e+000
    outer loop
      vertex -9.280457e+001 -4.387111e+001  3.197847e+001
      vertex -8.392818e+001 -4.387111e+001  3.197847e+001
      vertex -9.280457e+001 -4.800000e+001  3.197847e+001
    endloop
  endfacet
  facet normal  0.000000e+000  0.000000e+000 -1.000000e+000
    outer loop
      vertex -9.280457e+001 -4.800000e+001  3.197847e+001
      vertex -8.392818e+001 -4.387111e+001  3.197847e+001
      vertex -8.392818e+001 -4.800000e+001  3.197847e+001
    endloop
  endfacet
  facet normal  -0.000000e+000 -1.000000e+000  -0.000000e+000
    outer loop
      vertex -8.442336e+001 -4.387111e+001  6.856945e+000
      vertex -8.442336e+001 -4.387111e+001  1.673435e+001
      vertex -9.268694e+001 -4.387111e+001  3.173183e+001
    endloop
  endfacet
  facet normal  0.000000e+000 -1.000000e+000  0.000000e+000
    outer loop
      vertex -8.442336e+001 -4.387111e+001  6.856945e+000
      vertex -9.268694e+001 -4.387111e+001  3.173183e+001
      vertex -9.244882e+001 -4.387111e+001  3.059493e+001
    endloop
  endfacet
  facet normal  0.000000e+000 -9.999999e-001  0.000000e+000
    outer loop
      vertex -8.442336e+001 -4.387111e+001  6.856945e+000
      vertex -9.244882e+001 -4.387111e+001  3.059493e+001
      vertex -9.237874e+001 -4.387111e+001  2.857104e+001
    endloop
  endfacet
  facet normal  0.000000e+000 -1.000000e+000  0.000000e+000
    outer loop
      vertex -8.442336e+001 -4.387111e+001  6.856945e+000
      vertex -9.237874e+001 -4.387111e+001  2.857104e+001
      vertex -9.237874e+001 -4.387111e+001  6.856945e+000
    endloop
  endfacet
  facet normal  0.000000e+000 -1.000000e+000  0.000000e+000
    outer loop
      vertex -9.278178e+001 -4.387111e+001  3.193542e+001
      vertex -9.268694e+001 -4.387111e+001  3.173183e+001
      vertex -8.442336e+001 -4.387111e+001  1.673435e+001
    endloop
  endfacet
  facet normal  0.000000e+000 -9.999999e-001  0.000000e+000
    outer loop
      vertex -9.278178e+001 -4.387111e+001  3.193542e+001
      vertex -8.442336e+001 -4.387111e+001  1.673435e+001
      vertex -8.442336e+001 -4.387111e+001  1.996730e+001
    endloop
  endfacet
  facet normal  0.000000e+000 -1.000000e+000  0.000000e+000
    outer loop
      vertex -9.278178e+001 -4.387111e+001  3.193542e+001
      vertex -8.442336e+001 -4.387111e+001  1.996730e+001
      vertex -8.442336e+001 -4.387111e+001  2.854475e+001
    endloop
  endfacet
  facet normal  0.000000e+000 -1.000000e+000  0.000000e+000
    outer loop
      vertex -9.280457e+001 -4.387111e+001  3.197847e+001
      vertex -9.278178e+001 -4.387111e+001  3.193542e+001
      vertex -8.442336e+001 -4.387111e+001  2.854475e+001
    endloop
  endfacet
  facet normal  0.000000e+000 -1.000000e+000  0.000000e+000
    outer loop
      vertex -9.280457e+001 -4.387111e+001  3.197847e+001
      vertex -8.442336e+001 -4.387111e+001  2.854475e+001
      vertex -8.431781e+001 -4.387111e+001  3.075359e+001
    endloop
  endfacet
  facet normal  0.000000e+000 -1.000000e+000  0.000000e+000
    outer loop
      vertex -9.280457e+001 -4.387111e+001  3.197847e+001
      vertex -8.431781e+001 -4.387111e+001  3.075359e+001
      vertex -8.422185e+001 -4.387111e+001  3.127832e+001
    endloop
  endfacet
  facet normal  0.000000e+000 -1.000000e+000  0.000000e+000
    outer loop
      vertex -9.280457e+001 -4.387111e+001  3.197847e+001
      vertex -8.422185e+001 -4.387111e+001  3.127832e+001
      vertex -8.392818e+001 -4.387111e+001  3.197847e+001
    endloop
  endfacet
  facet normal  0.000000e+000 -9.999999e-001  0.000000e+000
    outer loop
      vertex -8.442336e+001 -4.387111e+001  1.673435e+001
      vertex -8.000000e+001 -4.387111e+001  1.673435e+001
      vertex -8.442336e+001 -4.387111e+001  1.996730e+001
    endloop
  endfacet
  facet normal  0.000000e+000 -9.999999e-001  0.000000e+000
    outer loop
      vertex -8.442336e+001 -4.387111e+001  1.996730e+001
      vertex -8.000000e+001 -4.387111e+001  1.673435e+001
      vertex -8.000000e+001 -4.387111e+001  1.996730e+001
    endloop
  endfacet
  facet normal  0.000000e+000  1.000000e+000  0.000000e+000
    outer loop
      vertex -9.237874e+001 -3.594216e+001  2.821182e+001
      vertex -8.442336e+001 -3.594216e+001  2.821182e+001
      vertex -9.237874e+001 -3.594216e+001  6.439662e+000
    endloop
  endfacet
  facet normal  -0.000000e+000  1.000000e+000  0.000000e+000
    outer loop
      vertex -9.241126e+001 -3.594216e+001  5.961912e+000
      vertex -9.237874e+001 -3.594216e+001  6.439662e+000
      vertex -8.442336e+001 -3.594216e+001  2.821182e+001
    endloop
  endfacet
  facet normal  0.000000e+000  1.000000e+000  0.000000e+000
    outer loop
      vertex -9.241126e+001 -3.594216e+001  5.961912e+000
      vertex -8.442336e+001 -3.594216e+001  2.821182e+001
      vertex -8.442336e+001 -3.594216e+001  1.996730e+001
    endloop
  endfacet
  facet normal  0.000000e+000  1.000000e+000  0.000000e+000
    outer loop
      vertex -9.241126e+001 -3.594216e+001  5.961912e+000
      vertex -8.442336e+001 -3.594216e+001  1.996730e+001
      vertex -8.442336e+001 -3.594216e+001  1.673435e+001
    endloop
  endfacet
  facet normal  0.000000e+000  1.000000e+000  0.000000e+000
    outer loop
      vertex -9.241126e+001 -3.594216e+001  5.961912e+000
      vertex -8.442336e+001 -3.594216e+001  1.673435e+001
      vertex -8.442336e+001 -3.594216e+001  6.439662e+000
    endloop
  endfacet
  facet normal  0.000000e+000  9.999999e-001  0.000000e+000
    outer loop
      vertex -9.241126e+001 -3.594216e+001  5.961912e+000
      vertex -8.442336e+001 -3.594216e+001  6.439662e+000
      vertex -8.439079e+001 -3.594216e+001  5.961912e+000
    endloop
  endfacet
  facet normal  0.000000e+000  9.999999e-001  0.000000e+000
    outer loop
      vertex -8.442336e+001 -3.594216e+001  1.996730e+001
      vertex -8.000000e+001 -3.594216e+001  1.996730e+001
      vertex -8.442336e+001 -3.594216e+001  1.673435e+001
    endloop
  endfacet
  facet normal  0.000000e+000  9.999999e-001  0.000000e+000
    outer loop
      vertex -8.442336e+001 -3.594216e+001  1.673435e+001
      vertex -8.000000e+001 -3.594216e+001  1.996730e+001
      vertex -8.000000e+001 -3.594216e+001  1.673435e+001
    endloop
  endfacet
  facet normal -8.548372e-001  -0.000000e+000 -5.188962e-001
    outer loop
      vertex -9.292005e+001 -3.536390e+001  3.216322e+001
      vertex -9.278178e+001 -3.550335e+001  3.193542e+001
      vertex -9.278178e+001 -4.387111e+001  3.193542e+001
    endloop
  endfacet
  facet normal -8.838083e-001 -1.837867e-003 -4.678455e-001
    outer loop
      vertex -9.292005e+001 -3.536390e+001  3.216322e+001
      vertex -9.278178e+001 -4.387111e+001  3.193542e+001
      vertex -9.280457e+001 -4.387111e+001  3.197847e+001
    endloop
  endfacet
  facet normal -8.479570e-001  -0.000000e+000 -5.300651e-001
    outer loop
      vertex -9.292005e+001 -3.536390e+001  3.216322e+001
      vertex -9.280457e+001 -4.387111e+001  3.197847e+001
      vertex -9.280457e+001 -4.800000e+001  3.197847e+001
    endloop
  endfacet
  facet normal -7.570387e-001  2.633640e-003 -6.533649e-001
    outer loop
      vertex -9.292005e+001 -3.536390e+001  3.216322e+001
      vertex -9.280457e+001 -4.800000e+001  3.197847e+001
      vertex -9.314925e+001 -3.509696e+001  3.242986e+001
    endloop
  endfacet
  facet normal -5.935242e-001  1.229674e-002 -8.047222e-001
    outer loop
      vertex -9.314925e+001 -3.509696e+001  3.242986e+001
      vertex -9.280457e+001 -4.800000e+001  3.197847e+001
      vertex -9.359659e+001 -3.457589e+001  3.276776e+001
    endloop
  endfacet
  facet normal -7.058827e-001  -0.000000e+000 -7.083288e-001
    outer loop
      vertex -9.359659e+001 -3.457589e+001  3.276776e+001
      vertex -9.280457e+001 -4.800000e+001  3.197847e+001
      vertex -9.359659e+001 -4.800000e+001  3.276776e+001
    endloop
  endfacet
  facet normal -3.114459e-001  -0.000000e+000 -9.502639e-001
    outer loop
      vertex -9.512984e+001 -4.800000e+001  3.334601e+001
      vertex -9.512984e+001 -3.296326e+001  3.334601e+001
      vertex -9.409102e+001 -4.800000e+001  3.300554e+001
    endloop
  endfacet
  facet normal -3.102466e-001  9.173699e-005 -9.506561e-001
    outer loop
      vertex -9.409102e+001 -4.800000e+001  3.300554e+001
      vertex -9.512984e+001 -3.296326e+001  3.334601e+001
      vertex -9.410796e+001 -3.403154e+001  3.301242e+001
    endloop
  endfacet
  facet normal -4.334048e-001 -8.201590e-005 -9.011993e-001
    outer loop
      vertex -9.409102e+001 -4.800000e+001  3.300554e+001
      vertex -9.410796e+001 -3.403154e+001  3.301242e+001
      vertex -9.359659e+001 -4.800000e+001  3.276776e+001
    endloop
  endfacet
  facet normal -4.315826e-001  0.000000e+000 -9.020734e-001
    outer loop
      vertex -9.359659e+001 -4.800000e+001  3.276776e+001
      vertex -9.410796e+001 -3.403154e+001  3.301242e+001
      vertex -9.359659e+001 -3.457589e+001  3.276776e+001
    endloop
  endfacet
  facet normal -1.000000e+000  0.000000e+000  0.000000e+000
    outer loop
      vertex -9.512984e+001 -4.800000e+001  3.334601e+001
      vertex -9.512984e+001 -4.800000e+001  3.503697e+001
      vertex -9.512984e+001 -3.296326e+001  3.334601e+001
    endloop
  endfacet
  facet normal -1.000000e+000  0.000000e+000  0.000000e+000
    outer loop
      vertex -9.512984e+001 -3.296326e+001  3.334601e+001
      vertex -9.512984e+001 -4.800000e+001  3.503697e+001
      vertex -9.512984e+001 -3.296326e+001  3.503697e+001
    endloop
  endfacet
  facet normal  0.000000e+000  0.000000e+000 -1.000000e+000
    outer loop
      vertex -8.000000e+001 -4.387111e+001  1.673435e+001
      vertex -8.442336e+001 -4.387111e+001  1.673435e+001
      vertex -8.000000e+001 -3.594216e+001  1.673435e+001
    endloop
  endfacet
  facet normal  -0.000000e+000  0.000000e+000 -1.000000e+000
    outer loop
      vertex -8.000000e+001 -3.594216e+001  1.673435e+001
      vertex -8.442336e+001 -4.387111e+001  1.673435e+001
      vertex -8.442336e+001 -3.594216e+001  1.673435e+001
    endloop
  endfacet
  facet normal  0.000000e+000  0.000000e+000  1.000000e+000
    outer loop
      vertex -8.000000e+001 -4.387111e+001  1.996730e+001
      vertex -8.000000e+001 -3.594216e+001  1.996730e+001
      vertex -8.442336e+001 -4.387111e+001  1.996730e+001
    endloop
  endfacet
  facet normal  0.000000e+000  0.000000e+000  1.000000e+000
    outer loop
      vertex -8.442336e+001 -4.387111e+001  1.996730e+001
      vertex -8.000000e+001 -3.594216e+001  1.996730e+001
      vertex -8.442336e+001 -3.594216e+001  1.996730e+001
    endloop
  endfacet
  facet normal  9.221660e-001  0.000000e+000 -3.867943e-001
    outer loop
      vertex -8.422185e+001 -4.387111e+001  3.127832e+001
      vertex -8.422185e+001 -3.571435e+001  3.127832e+001
      vertex -8.392818e+001 -4.387111e+001  3.197847e+001
    endloop
  endfacet
  facet normal  9.315470e-001  2.327518e-003 -3.636134e-001
    outer loop
      vertex -8.392818e+001 -4.387111e+001  3.197847e+001
      vertex -8.422185e+001 -3.571435e+001  3.127832e+001
      vertex -8.399979e+001 -3.554252e+001  3.184830e+001
    endloop
  endfacet
  facet normal  8.532406e-001 -8.136604e-004 -5.215168e-001
    outer loop
      vertex -8.392818e+001 -4.387111e+001  3.197847e+001
      vertex -8.399979e+001 -3.554252e+001  3.184830e+001
      vertex -8.380714e+001 -3.536390e+001  3.216322e+001
    endloop
  endfacet
  facet normal  7.795108e-001  0.000000e+000 -6.263888e-001
    outer loop
      vertex -8.392818e+001 -4.800000e+001  3.197847e+001
      vertex -8.392818e+001 -4.387111e+001  3.197847e+001
      vertex -8.351218e+001 -4.800000e+001  3.249616e+001
    endloop
  endfacet
  facet normal  7.878686e-001  2.164742e-003 -6.158396e-001
    outer loop
      vertex -8.351218e+001 -4.800000e+001  3.249616e+001
      vertex -8.392818e+001 -4.387111e+001  3.197847e+001
      vertex -8.380714e+001 -3.536390e+001  3.216322e+001
    endloop
  endfacet
  facet normal  7.485078e-001  0.000000e+000 -6.631258e-001
    outer loop
      vertex -8.351218e+001 -4.800000e+001  3.249616e+001
      vertex -8.380714e+001 -3.536390e+001  3.216322e+001
      vertex -8.351218e+001 -3.501240e+001  3.249616e+001
    endloop
  endfacet
  facet normal  3.278757e-001  0.000000e+000 -9.447208e-001
    outer loop
      vertex -8.165475e+001 -4.800000e+001  3.334601e+001
      vertex -8.266403e+001 -3.407412e+001  3.299573e+001
      vertex -8.165475e+001 -3.296326e+001  3.334601e+001
    endloop
  endfacet
  facet normal  3.358733e-001  6.504031e-004 -9.419070e-001
    outer loop
      vertex -8.165475e+001 -4.800000e+001  3.334601e+001
      vertex -8.278452e+001 -4.800000e+001  3.294315e+001
      vertex -8.266403e+001 -3.407412e+001  3.299573e+001
    endloop
  endfacet
  facet normal  5.234149e-001  0.000000e+000 -8.520780e-001
    outer loop
      vertex -8.351218e+001 -4.800000e+001  3.249616e+001
      vertex -8.351218e+001 -3.501240e+001  3.249616e+001
      vertex -8.278452e+001 -4.800000e+001  3.294315e+001
    endloop
  endfacet
  facet normal  5.864038e-001  4.977110e-003 -8.100035e-001
    outer loop
      vertex -8.278452e+001 -4.800000e+001  3.294315e+001
      vertex -8.351218e+001 -3.501240e+001  3.249616e+001
      vertex -8.318272e+001 -3.463333e+001  3.273700e+001
    endloop
  endfacet
  facet normal  4.467814e-001 -4.876692e-004 -8.946431e-001
    outer loop
      vertex -8.278452e+001 -4.800000e+001  3.294315e+001
      vertex -8.318272e+001 -3.463333e+001  3.273700e+001
      vertex -8.266403e+001 -3.407412e+001  3.299573e+001
    endloop
  endfacet
  facet normal  1.000000e+000  0.000000e+000  0.000000e+000
    outer loop
      vertex -8.165475e+001 -4.800000e+001  3.334601e+001
      vertex -8.165475e+001 -3.296326e+001  3.334601e+001
      vertex -8.165475e+001 -4.800000e+001  3.503697e+001
    endloop
  endfacet
  facet normal  1.000000e+000  -0.000000e+000  0.000000e+000
    outer loop
      vertex -8.165475e+001 -4.800000e+001  3.503697e+001
      vertex -8.165475e+001 -3.296326e+001  3.334601e+001
      vertex -8.165475e+001 -3.296326e+001  3.503697e+001
    endloop
  endfacet
  facet normal  0.000000e+000  0.000000e+000  1.000000e+000
    outer loop
      vertex -9.512984e+001 -4.800000e+001  3.503697e+001
      vertex -8.165475e+001 -4.800000e+001  3.503697e+001
      vertex -9.512984e+001 -3.296326e+001  3.503697e+001
    endloop
  endfacet
  facet normal  -0.000000e+000  0.000000e+000  1.000000e+000
    outer loop
      vertex -9.512984e+001 -3.296326e+001  3.503697e+001
      vertex -8.165475e+001 -4.800000e+001  3.503697e+001
      vertex -8.165475e+001 -3.296326e+001  3.503697e+001
    endloop
  endfacet
  facet normal  0.000000e+000 -1.000000e+000  0.000000e+000
    outer loop
      vertex -8.165475e+001 -4.800000e+001  3.503697e+001
      vertex -9.512984e+001 -4.800000e+001  3.503697e+001
      vertex -8.165475e+001 -4.800000e+001  3.334601e+001
    endloop
  endfacet
  facet normal  0.000000e+000 -1.000000e+000  0.000000e+000
    outer loop
      vertex -8.165475e+001 -4.800000e+001  3.334601e+001
      vertex -9.512984e+001 -4.800000e+001  3.503697e+001
      vertex -9.512984e+001 -4.800000e+001  3.334601e+001
    endloop
  endfacet
  facet normal  0.000000e+000 -1.000000e+000  0.000000e+000
    outer loop
      vertex -8.165475e+001 -4.800000e+001  3.334601e+001
      vertex -9.512984e+001 -4.800000e+001  3.334601e+001
      vertex -8.278452e+001 -4.800000e+001  3.294315e+001
    endloop
  endfacet
  facet normal  0.000000e+000 -1.000000e+000  0.000000e+000
    outer loop
      vertex -8.278452e+001 -4.800000e+001  3.294315e+001
      vertex -9.512984e+001 -4.800000e+001  3.334601e+001
      vertex -9.409102e+001 -4.800000e+001  3.300554e+001
    endloop
  endfacet
  facet normal  0.000000e+000 -1.000000e+000  0.000000e+000
    outer loop
      vertex -8.278452e+001 -4.800000e+001  3.294315e+001
      vertex -9.409102e+001 -4.800000e+001  3.300554e+001
      vertex -8.351218e+001 -4.800000e+001  3.249616e+001
    endloop
  endfacet
  facet normal  0.000000e+000 -1.000000e+000  0.000000e+000
    outer loop
      vertex -8.351218e+001 -4.800000e+001  3.249616e+001
      vertex -9.409102e+001 -4.800000e+001  3.300554e+001
      vertex -9.359659e+001 -4.800000e+001  3.276776e+001
    endloop
  endfacet
  facet normal  0.000000e+000 -1.000000e+000  0.000000e+000
    outer loop
      vertex -8.351218e+001 -4.800000e+001  3.249616e+001
      vertex -9.359659e+001 -4.800000e+001  3.276776e+001
      vertex -8.392818e+001 -4.800000e+001  3.197847e+001
    endloop
  endfacet
  facet normal  0.000000e+000 -1.000000e+000  0.000000e+000
    outer loop
      vertex -8.392818e+001 -4.800000e+001  3.197847e+001
      vertex -9.359659e+001 -4.800000e+001  3.276776e+001
      vertex -9.280457e+001 -4.800000e+001  3.197847e+001
    endloop
  endfacet
  facet normal  1.000000e+000  0.000000e+000  0.000000e+000
    outer loop
      vertex -8.000000e+001 -4.387111e+001  1.673435e+001
      vertex -8.000000e+001 -3.594216e+001  1.673435e+001
      vertex -8.000000e+001 -4.387111e+001  1.996730e+001
    endloop
  endfacet
  facet normal  1.000000e+000  -0.000000e+000  0.000000e+000
    outer loop
      vertex -8.000000e+001 -4.387111e+001  1.996730e+001
      vertex -8.000000e+001 -3.594216e+001  1.673435e+001
      vertex -8.000000e+001 -3.594216e+001  1.996730e+001
    endloop
  endfacet
  facet normal  2.197741e-001  0.000000e+000  9.755508e-001
    outer loop
      vertex -8.165475e+001 -4.712590e+001  3.000000e+000
      vertex -8.165475e+001 -3.299713e+001  3.000000e+000
      vertex -8.169753e+001 -3.321953e+001  3.009637e+000
    endloop
  endfacet
  facet normal  2.500861e-001  9.832199e-005  9.682236e-001
    outer loop
      vertex -8.165475e+001 -4.712590e+001  3.000000e+000
      vertex -8.169753e+001 -3.321953e+001  3.009637e+000
      vertex -8.186901e+001 -3.354325e+001  3.053962e+000
    endloop
  endfacet
  facet normal  3.740669e-001  2.216218e-003  9.273991e-001
    outer loop
      vertex -8.165475e+001 -4.712590e+001  3.000000e+000
      vertex -8.186901e+001 -3.354325e+001  3.053962e+000
      vertex -8.257008e+001 -3.435565e+001  3.338681e+000
    endloop
  endfacet
  facet normal  3.421164e-001 -3.989983e-004  9.396574e-001
    outer loop
      vertex -8.165475e+001 -4.712590e+001  3.000000e+000
      vertex -8.257008e+001 -3.435565e+001  3.338681e+000
      vertex -8.254031e+001 -4.610478e+001  3.322851e+000
    endloop
  endfacet
  facet normal  9.661435e-001  3.292092e-004  2.580049e-001
    outer loop
      vertex -8.416467e+001 -3.581850e+001  5.115009e+000
      vertex -8.439079e+001 -3.594216e+001  5.961912e+000
      vertex -8.415637e+001 -4.429042e+001  5.094735e+000
    endloop
  endfacet
  facet normal  9.974664e-001  2.094712e-002  6.798478e-002
    outer loop
      vertex -8.415637e+001 -4.429042e+001  5.094735e+000
      vertex -8.439079e+001 -3.594216e+001  5.961912e+000
      vertex -8.442336e+001 -3.594216e+001  6.439662e+000
    endloop
  endfacet
  facet normal  9.808604e-001  0.000000e+000  1.947118e-001
    outer loop
      vertex -8.415637e+001 -4.429042e+001  5.094735e+000
      vertex -8.442336e+001 -3.594216e+001  6.439662e+000
      vertex -8.442336e+001 -4.389343e+001  6.439662e+000
    endloop
  endfacet
  facet normal  8.773368e-001 -2.887484e-004  4.798750e-001
    outer loop
      vertex -8.379082e+001 -4.471780e+001  4.426162e+000
      vertex -8.416467e+001 -3.581850e+001  5.115009e+000
      vertex -8.415637e+001 -4.429042e+001  5.094735e+000
    endloop
  endfacet
  facet normal  8.802778e-001  2.540511e-004  4.744586e-001
    outer loop
      vertex -8.416467e+001 -3.581850e+001  5.115009e+000
      vertex -8.379082e+001 -4.471780e+001  4.426162e+000
      vertex -8.380276e+001 -3.552328e+001  4.443377e+000
    endloop
  endfacet
  facet normal  7.587345e-001 -2.349781e-004  6.513999e-001
    outer loop
      vertex -8.380276e+001 -3.552328e+001  4.443377e+000
      vertex -8.379082e+001 -4.471780e+001  4.426162e+000
      vertex -8.333073e+001 -4.523298e+001  3.890074e+000
    endloop
  endfacet
  facet normal  7.625397e-001  2.040830e-004  6.469413e-001
    outer loop
      vertex -8.380276e+001 -3.552328e+001  4.443377e+000
      vertex -8.333073e+001 -4.523298e+001  3.890074e+000
      vertex -8.334519e+001 -3.511043e+001  3.903922e+000
    endloop
  endfacet
  facet normal  5.828248e-001 -2.792187e-004  8.125978e-001
    outer loop
      vertex -8.334519e+001 -3.511043e+001  3.903922e+000
      vertex -8.333073e+001 -4.523298e+001  3.890074e+000
      vertex -8.254031e+001 -4.610478e+001  3.322851e+000
    endloop
  endfacet
  facet normal  5.889546e-001  4.037685e-004  8.081659e-001
    outer loop
      vertex -8.334519e+001 -3.511043e+001  3.903922e+000
      vertex -8.254031e+001 -4.610478e+001  3.322851e+000
      vertex -8.257008e+001 -3.435565e+001  3.338681e+000
    endloop
  endfacet
  facet normal -3.821566e-001 -3.669045e-004  9.240975e-001
    outer loop
      vertex -9.425475e+001 -4.610310e+001  3.323647e+000
      vertex -9.421706e+001 -3.436554e+001  3.343894e+000
      vertex -9.491533e+001 -3.355088e+001  3.055450e+000
    endloop
  endfacet
  facet normal -2.419696e-001  7.996833e-003  9.702509e-001
    outer loop
      vertex -9.491533e+001 -3.355088e+001  3.055450e+000
      vertex -9.508716e+001 -3.322266e+001  3.009892e+000
      vertex -9.425475e+001 -4.610310e+001  3.323647e+000
    endloop
  endfacet
  facet normal -1.546123e-001  1.407178e-002  9.878750e-001
    outer loop
      vertex -9.425475e+001 -4.610310e+001  3.323647e+000
      vertex -9.508716e+001 -3.322266e+001  3.009892e+000
      vertex -9.512984e+001 -3.299713e+001  3.000000e+000
    endloop
  endfacet
  facet normal -3.468803e-001  0.000000e+000  9.379094e-001
    outer loop
      vertex -9.425475e+001 -4.610310e+001  3.323647e+000
      vertex -9.512984e+001 -3.299713e+001  3.000000e+000
      vertex -9.512984e+001 -4.712590e+001  3.000000e+000
    endloop
  endfacet
  facet normal -9.976907e-001  0.000000e+000  6.792042e-002
    outer loop
      vertex -9.237874e+001 -3.594216e+001  6.439662e+000
      vertex -9.241126e+001 -3.594216e+001  5.961912e+000
      vertex -9.237874e+001 -4.389343e+001  6.439662e+000
    endloop
  endfacet
  facet normal -9.660562e-001  1.155471e-002  2.580736e-001
    outer loop
      vertex -9.237874e+001 -4.389343e+001  6.439662e+000
      vertex -9.241126e+001 -3.594216e+001  5.961912e+000
      vertex -9.263413e+001 -3.582063e+001  5.122194e+000
    endloop
  endfacet
  facet normal -9.809068e-001  7.060688e-004  1.944773e-001
    outer loop
      vertex -9.237874e+001 -4.389343e+001  6.439662e+000
      vertex -9.263413e+001 -3.582063e+001  5.122194e+000
      vertex -9.264599e+001 -4.429122e+001  5.093147e+000
    endloop
  endfacet
  facet normal -8.819324e-001 -3.819767e-004  4.713756e-001
    outer loop
      vertex -9.264599e+001 -4.429122e+001  5.093147e+000
      vertex -9.263413e+001 -3.582063e+001  5.122194e+000
      vertex -9.299269e+001 -3.552816e+001  4.451576e+000
    endloop
  endfacet
  facet normal -8.777811e-001  3.449893e-004  4.790617e-001
    outer loop
      vertex -9.264599e+001 -4.429122e+001  5.093147e+000
      vertex -9.299269e+001 -3.552816e+001  4.451576e+000
      vertex -9.301002e+001 -4.471758e+001  4.426447e+000
    endloop
  endfacet
  facet normal -7.654548e-001 -3.164418e-004  6.434897e-001
    outer loop
      vertex -9.301002e+001 -4.471758e+001  4.426447e+000
      vertex -9.299269e+001 -3.552816e+001  4.451576e+000
      vertex -9.344656e+001 -3.511810e+001  3.911889e+000
    endloop
  endfacet
  facet normal -7.599673e-001  2.800017e-004  6.499613e-001
    outer loop
      vertex -9.301002e+001 -4.471758e+001  4.426447e+000
      vertex -9.344656e+001 -3.511810e+001  3.911889e+000
      vertex -9.346783e+001 -4.523147e+001  3.891375e+000
    endloop
  endfacet
  facet normal -5.936163e-001 -3.838431e-004  8.047482e-001
    outer loop
      vertex -9.346783e+001 -4.523147e+001  3.891375e+000
      vertex -9.344656e+001 -3.511810e+001  3.911889e+000
      vertex -9.421706e+001 -3.436554e+001  3.343894e+000
    endloop
  endfacet
  facet normal -5.854326e-001  4.813800e-004  8.107209e-001
    outer loop
      vertex -9.346783e+001 -4.523147e+001  3.891375e+000
      vertex -9.421706e+001 -3.436554e+001  3.343894e+000
      vertex -9.425475e+001 -4.610310e+001  3.323647e+000
    endloop
  endfacet
  facet normal -8.762840e-005  3.336973e-001  9.426802e-001
    outer loop
      vertex -9.421706e+001 -3.436554e+001  3.343894e+000
      vertex -8.186901e+001 -3.354325e+001  3.053962e+000
      vertex -9.491533e+001 -3.355088e+001  3.055450e+000
    endloop
  endfacet
  facet normal  3.367852e-005  1.356384e-001  9.907585e-001
    outer loop
      vertex -9.491533e+001 -3.355088e+001  3.055450e+000
      vertex -8.186901e+001 -3.354325e+001  3.053962e+000
      vertex -8.169753e+001 -3.321953e+001  3.009637e+000
    endloop
  endfacet
  facet normal -1.324486e-005  1.374751e-001  9.905052e-001
    outer loop
      vertex -9.491533e+001 -3.355088e+001  3.055450e+000
      vertex -8.169753e+001 -3.321953e+001  3.009637e+000
      vertex -9.508716e+001 -3.322266e+001  3.009892e+000
    endloop
  endfacet
  facet normal  8.921685e-006  4.328915e-002  9.990625e-001
    outer loop
      vertex -9.508716e+001 -3.322266e+001  3.009892e+000
      vertex -8.169753e+001 -3.321953e+001  3.009637e+000
      vertex -8.165475e+001 -3.299713e+001  3.000000e+000
    endloop
  endfacet
  facet normal  0.000000e+000  4.381950e-002  9.990394e-001
    outer loop
      vertex -9.508716e+001 -3.322266e+001  3.009892e+000
      vertex -8.165475e+001 -3.299713e+001  3.000000e+000
      vertex -9.512984e+001 -3.299713e+001  3.000000e+000
    endloop
  endfacet
  facet normal  0.000000e+000  0.000000e+000  1.000000e+000
    outer loop
      vertex -9.512984e+001 -3.299713e+001  3.000000e+000
      vertex -8.165475e+001 -3.299713e+001  3.000000e+000
      vertex -8.165475e+001 -3.296326e+001  3.000000e+000
    endloop
  endfacet
  facet normal  0.000000e+000  0.000000e+000  1.000000e+000
    outer loop
      vertex -9.512984e+001 -3.299713e+001  3.000000e+000
      vertex -8.165475e+001 -3.296326e+001  3.000000e+000
      vertex -9.512984e+001 -3.296326e+001  3.000000e+000
    endloop
  endfacet
  facet normal  1.414829e-004  3.306368e-001  9.437581e-001
    outer loop
      vertex -8.186901e+001 -3.354325e+001  3.053962e+000
      vertex -9.421706e+001 -3.436554e+001  3.343894e+000
      vertex -8.257008e+001 -3.435565e+001  3.338681e+000
    endloop
  endfacet
  facet normal -1.544709e-004  6.023269e-001  7.982495e-001
    outer loop
      vertex -8.257008e+001 -3.435565e+001  3.338681e+000
      vertex -9.421706e+001 -3.436554e+001  3.343894e+000
      vertex -9.344656e+001 -3.511810e+001  3.911889e+000
    endloop
  endfacet
  facet normal  1.764204e-004  5.993109e-001  8.005163e-001
    outer loop
      vertex -8.257008e+001 -3.435565e+001  3.338681e+000
      vertex -9.344656e+001 -3.511810e+001  3.911889e+000
      vertex -8.334519e+001 -3.511043e+001  3.903922e+000
    endloop
  endfacet
  facet normal -1.271686e-004  7.961830e-001  6.050560e-001
    outer loop
      vertex -8.334519e+001 -3.511043e+001  3.903922e+000
      vertex -9.344656e+001 -3.511810e+001  3.911889e+000
      vertex -9.299269e+001 -3.552816e+001  4.451576e+000
    endloop
  endfacet
  facet normal  1.206780e-004  7.940778e-001  6.078162e-001
    outer loop
      vertex -8.334519e+001 -3.511043e+001  3.903922e+000
      vertex -9.299269e+001 -3.552816e+001  4.451576e+000
      vertex -8.380276e+001 -3.552328e+001  4.443377e+000
    endloop
  endfacet
  facet normal -1.299255e-004  9.165922e-001  3.998232e-001
    outer loop
      vertex -8.380276e+001 -3.552328e+001  4.443377e+000
      vertex -9.299269e+001 -3.552816e+001  4.451576e+000
      vertex -9.263413e+001 -3.582063e+001  5.122194e+000
    endloop
  endfacet
  facet normal  1.109294e-004  9.154410e-001  4.024523e-001
    outer loop
      vertex -8.380276e+001 -3.552328e+001  4.443377e+000
      vertex -9.263413e+001 -3.582063e+001  5.122194e+000
      vertex -8.416467e+001 -3.581850e+001  5.115009e+000
    endloop
  endfacet
  facet normal -1.276450e-004  9.896848e-001  1.432621e-001
    outer loop
      vertex -8.416467e+001 -3.581850e+001  5.115009e+000
      vertex -9.263413e+001 -3.582063e+001  5.122194e+000
      vertex -9.241126e+001 -3.594216e+001  5.961912e+000
    endloop
  endfacet
  facet normal  -0.000000e+000  9.895079e-001  1.444791e-001
    outer loop
      vertex -8.416467e+001 -3.581850e+001  5.115009e+000
      vertex -9.241126e+001 -3.594216e+001  5.961912e+000
      vertex -8.439079e+001 -3.594216e+001  5.961912e+000
    endloop
  endfacet
  facet normal -2.127312e-005 -8.424581e-001  5.387619e-001
    outer loop
      vertex -9.301002e+001 -4.471758e+001  4.426447e+000
      vertex -8.415637e+001 -4.429042e+001  5.094735e+000
      vertex -9.264599e+001 -4.429122e+001  5.093147e+000
    endloop
  endfacet
  facet normal  3.754867e-005 -9.590880e-001  2.831084e-001
    outer loop
      vertex -9.264599e+001 -4.429122e+001  5.093147e+000
      vertex -8.415637e+001 -4.429042e+001  5.094735e+000
      vertex -8.442336e+001 -4.389343e+001  6.439662e+000
    endloop
  endfacet
  facet normal  0.000000e+000 -9.590257e-001  2.833192e-001
    outer loop
      vertex -9.264599e+001 -4.429122e+001  5.093147e+000
      vertex -8.442336e+001 -4.389343e+001  6.439662e+000
      vertex -9.237874e+001 -4.389343e+001  6.439662e+000
    endloop
  endfacet
  facet normal  0.000000e+000 -9.985731e-001  5.340299e-002
    outer loop
      vertex -9.237874e+001 -4.389343e+001  6.439662e+000
      vertex -8.442336e+001 -4.389343e+001  6.439662e+000
      vertex -8.442336e+001 -4.387111e+001  6.856945e+000
    endloop
  endfacet
  facet normal  0.000000e+000 -9.985731e-001  5.340299e-002
    outer loop
      vertex -9.237874e+001 -4.389343e+001  6.439662e+000
      vertex -8.442336e+001 -4.387111e+001  6.856945e+000
      vertex -9.237874e+001 -4.387111e+001  6.856945e+000
    endloop
  endfacet
  facet normal -3.938439e-006 -8.425624e-001  5.385988e-001
    outer loop
      vertex -8.415637e+001 -4.429042e+001  5.094735e+000
      vertex -9.301002e+001 -4.471758e+001  4.426447e+000
      vertex -8.379082e+001 -4.471780e+001  4.426162e+000
    endloop
  endfacet
  facet normal  3.781396e-006 -7.212383e-001  6.926871e-001
    outer loop
      vertex -8.379082e+001 -4.471780e+001  4.426162e+000
      vertex -9.301002e+001 -4.471758e+001  4.426447e+000
      vertex -9.346783e+001 -4.523147e+001  3.891375e+000
    endloop
  endfacet
  facet normal -1.856678e-005 -7.210363e-001  6.928974e-001
    outer loop
      vertex -8.379082e+001 -4.471780e+001  4.426162e+000
      vertex -9.346783e+001 -4.523147e+001  3.891375e+000
      vertex -8.333073e+001 -4.523298e+001  3.890074e+000
    endloop
  endfacet
  facet normal  2.615096e-005 -5.457914e-001  8.379211e-001
    outer loop
      vertex -8.333073e+001 -4.523298e+001  3.890074e+000
      vertex -9.346783e+001 -4.523147e+001  3.891375e+000
      vertex -9.425475e+001 -4.610310e+001  3.323647e+000
    endloop
  endfacet
  facet normal -2.095264e-005 -5.453759e-001  8.381914e-001
    outer loop
      vertex -8.333073e+001 -4.523298e+001  3.890074e+000
      vertex -9.425475e+001 -4.610310e+001  3.323647e+000
      vertex -8.254031e+001 -4.610478e+001  3.322851e+000
    endloop
  endfacet
  facet normal  2.171788e-005 -3.017059e-001  9.534011e-001
    outer loop
      vertex -8.254031e+001 -4.610478e+001  3.322851e+000
      vertex -9.425475e+001 -4.610310e+001  3.323647e+000
      vertex -9.512984e+001 -4.712590e+001  3.000000e+000
    endloop
  endfacet
  facet normal  0.000000e+000 -3.014624e-001  9.534780e-001
    outer loop
      vertex -8.254031e+001 -4.610478e+001  3.322851e+000
      vertex -9.512984e+001 -4.712590e+001  3.000000e+000
      vertex -8.165475e+001 -4.712590e+001  3.000000e+000
    endloop
  endfacet
  facet normal -6.612194e-004  9.975629e-001 -6.976894e-002
    outer loop
      vertex -9.244882e+001 -3.582708e+001  3.059493e+001
      vertex -8.442014e+001 -3.593224e+001  2.901521e+001
      vertex -9.238340e+001 -3.592860e+001  2.914282e+001
    endloop
  endfacet
  facet normal  1.746405e-004  9.998438e-001 -1.767509e-002
    outer loop
      vertex -9.238340e+001 -3.592860e+001  2.914282e+001
      vertex -8.442014e+001 -3.593224e+001  2.901521e+001
      vertex -8.442336e+001 -3.594056e+001  2.854475e+001
    endloop
  endfacet
  facet normal -3.352207e-005  9.997910e-001 -2.044460e-002
    outer loop
      vertex -9.238340e+001 -3.592860e+001  2.914282e+001
      vertex -8.442336e+001 -3.594056e+001  2.854475e+001
      vertex -9.237874e+001 -3.594029e+001  2.857104e+001
    endloop
  endfacet
  facet normal  1.818031e-005  9.999885e-001 -4.800834e-003
    outer loop
      vertex -9.237874e+001 -3.594029e+001  2.857104e+001
      vertex -8.442336e+001 -3.594056e+001  2.854475e+001
      vertex -8.442336e+001 -3.594216e+001  2.821182e+001
    endloop
  endfacet
  facet normal  0.000000e+000  9.999865e-001 -5.203451e-003
    outer loop
      vertex -9.237874e+001 -3.594029e+001  2.857104e+001
      vertex -8.442336e+001 -3.594216e+001  2.821182e+001
      vertex -9.237874e+001 -3.594216e+001  2.821182e+001
    endloop
  endfacet
  facet normal  2.793693e-003  9.986285e-001 -5.228090e-002
    outer loop
      vertex -8.442014e+001 -3.593224e+001  2.901521e+001
      vertex -9.244882e+001 -3.582708e+001  3.059493e+001
      vertex -8.437703e+001 -3.587336e+001  3.014219e+001
    endloop
  endfacet
  facet normal -2.992347e-003  9.880114e-001 -1.543513e-001
    outer loop
      vertex -8.437703e+001 -3.587336e+001  3.014219e+001
      vertex -9.244882e+001 -3.582708e+001  3.059493e+001
      vertex -9.251888e+001 -3.573931e+001  3.115810e+001
    endloop
  endfacet
  facet normal -9.728327e-004  9.903652e-001 -1.384770e-001
    outer loop
      vertex -8.437703e+001 -3.587336e+001  3.014219e+001
      vertex -9.251888e+001 -3.573931e+001  3.115810e+001
      vertex -8.422185e+001 -3.571435e+001  3.127832e+001
    endloop
  endfacet
  facet normal  1.323939e-003  9.570059e-001 -2.900658e-001
    outer loop
      vertex -8.422185e+001 -3.571435e+001  3.127832e+001
      vertex -9.251888e+001 -3.573931e+001  3.115810e+001
      vertex -9.278178e+001 -3.550335e+001  3.193542e+001
    endloop
  endfacet
  facet normal  1.401922e-003  9.572859e-001 -2.891398e-001
    outer loop
      vertex -8.422185e+001 -3.571435e+001  3.127832e+001
      vertex -9.278178e+001 -3.550335e+001  3.193542e+001
      vertex -8.399979e+001 -3.554252e+001  3.184830e+001
    endloop
  endfacet
  facet normal -1.382206e-003  8.525181e-001 -5.226959e-001
    outer loop
      vertex -8.399979e+001 -3.554252e+001  3.184830e+001
      vertex -9.278178e+001 -3.550335e+001  3.193542e+001
      vertex -9.292005e+001 -3.536390e+001  3.216322e+001
    endloop
  endfacet
  facet normal  0.000000e+000  8.698254e-001 -4.933597e-001
    outer loop
      vertex -8.399979e+001 -3.554252e+001  3.184830e+001
      vertex -9.292005e+001 -3.536390e+001  3.216322e+001
      vertex -8.380714e+001 -3.536390e+001  3.216322e+001
    endloop
  endfacet
  facet normal  9.901170e-004  5.446747e-001 -8.386469e-001
    outer loop
      vertex -9.359659e+001 -3.457589e+001  3.276776e+001
      vertex -8.351218e+001 -3.501240e+001  3.249616e+001
      vertex -9.314925e+001 -3.509696e+001  3.242986e+001
    endloop
  endfacet
  facet normal -1.046708e-003  6.881437e-001 -7.255736e-001
    outer loop
      vertex -9.314925e+001 -3.509696e+001  3.242986e+001
      vertex -8.351218e+001 -3.501240e+001  3.249616e+001
      vertex -8.380714e+001 -3.536390e+001  3.216322e+001
    endloop
  endfacet
  facet normal  0.000000e+000  7.067175e-001 -7.074960e-001
    outer loop
      vertex -9.314925e+001 -3.509696e+001  3.242986e+001
      vertex -8.380714e+001 -3.536390e+001  3.216322e+001
      vertex -9.292005e+001 -3.536390e+001  3.216322e+001
    endloop
  endfacet
  facet normal  4.628627e-004  5.359715e-001 -8.442360e-001
    outer loop
      vertex -8.351218e+001 -3.501240e+001  3.249616e+001
      vertex -9.359659e+001 -3.457589e+001  3.276776e+001
      vertex -8.318272e+001 -3.463333e+001  3.273700e+001
    endloop
  endfacet
  facet normal -4.350189e-004  4.096142e-001 -9.122587e-001
    outer loop
      vertex -8.318272e+001 -3.463333e+001  3.273700e+001
      vertex -9.359659e+001 -3.457589e+001  3.276776e+001
      vertex -9.410796e+001 -3.403154e+001  3.301242e+001
    endloop
  endfacet
  facet normal  2.379984e-004  4.197242e-001 -9.076517e-001
    outer loop
      vertex -8.318272e+001 -3.463333e+001  3.273700e+001
      vertex -9.410796e+001 -3.403154e+001  3.301242e+001
      vertex -8.266403e+001 -3.407412e+001  3.299573e+001
    endloop
  endfacet
  facet normal -2.840416e-004  2.978273e-001 -9.546196e-001
    outer loop
      vertex -8.266403e+001 -3.407412e+001  3.299573e+001
      vertex -9.410796e+001 -3.403154e+001  3.301242e+001
      vertex -9.512984e+001 -3.296326e+001  3.334601e+001
    endloop
  endfacet
  facet normal  0.000000e+000  3.007279e-001 -9.537100e-001
    outer loop
      vertex -8.266403e+001 -3.407412e+001  3.299573e+001
      vertex -9.512984e+001 -3.296326e+001  3.334601e+001
      vertex -8.165475e+001 -3.296326e+001  3.334601e+001
    endloop
  endfacet
  facet normal  0.000000e+000  1.000000e+000  0.000000e+000
    outer loop
      vertex -9.512984e+001 -3.296326e+001  3.334601e+001
      vertex -9.512984e+001 -3.296326e+001  3.503697e+001
      vertex -8.165475e+001 -3.296326e+001  3.334601e+001
    endloop
  endfacet
  facet normal  0.000000e+000  1.000000e+000  -0.000000e+000
    outer loop
      vertex -8.165475e+001 -3.296326e+001  3.334601e+001
      vertex -9.512984e+001 -3.296326e+001  3.503697e+001
      vertex -8.165475e+001 -3.296326e+001  3.503697e+001
    endloop
  endfacet
  facet normal  1.000000e+000  -0.000000e+000  0.000000e+000
    outer loop
      vertex -8.442336e+001 -3.594216e+001  1.673435e+001
      vertex -8.442336e+001 -4.387111e+001  1.673435e+001
      vertex -8.442336e+001 -3.594216e+001  6.439662e+000
    endloop
  endfacet
  facet normal  1.000000e+000  0.000000e+000  0.000000e+000
    outer loop
      vertex -8.442336e+001 -3.594216e+001  6.439662e+000
      vertex -8.442336e+001 -4.387111e+001  1.673435e+001
      vertex -8.442336e+001 -4.387111e+001  6.856945e+000
    endloop
  endfacet
  facet normal  1.000000e+000  0.000000e+000  0.000000e+000
    outer loop
      vertex -8.442336e+001 -3.594216e+001  6.439662e+000
      vertex -8.442336e+001 -4.387111e+001  6.856945e+000
      vertex -8.442336e+001 -4.389343e+001  6.439662e+000
    endloop
  endfacet
  facet normal -1.000000e+000  0.000000e+000  0.000000e+000
    outer loop
      vertex -9.237874e+001 -4.387111e+001  6.856945e+000
      vertex -9.237874e+001 -3.594216e+001  6.439662e+000
      vertex -9.237874e+001 -4.389343e+001  6.439662e+000
    endloop
  endfacet
  facet normal -1.000000e+000  0.000000e+000  0.000000e+000
    outer loop
      vertex -9.237874e+001 -3.594216e+001  6.439662e+000
      vertex -9.237874e+001 -4.387111e+001  6.856945e+000
      vertex -9.237874e+001 -3.594216e+001  2.821182e+001
    endloop
  endfacet
  facet normal -1.000000e+000  -0.000000e+000  0.000000e+000
    outer loop
      vertex -9.237874e+001 -3.594216e+001  2.821182e+001
      vertex -9.237874e+001 -4.387111e+001  6.856945e+000
      vertex -9.237874e+001 -4.387111e+001  2.857104e+001
    endloop
  endfacet
  facet normal -9.999999e-001  0.000000e+000  0.000000e+000
    outer loop
      vertex -9.237874e+001 -3.594216e+001  2.821182e+001
      vertex -9.237874e+001 -4.387111e+001  2.857104e+001
      vertex -9.237874e+001 -3.594029e+001  2.857104e+001
    endloop
  endfacet
  facet normal -9.994010e-001  -0.000000e+000 -3.460737e-002
    outer loop
      vertex -9.244882e+001 -4.387111e+001  3.059493e+001
      vertex -9.244882e+001 -3.582708e+001  3.059493e+001
      vertex -9.237874e+001 -4.387111e+001  2.857104e+001
    endloop
  endfacet
  facet normal -9.989747e-001  2.667121e-003 -4.519318e-002
    outer loop
      vertex -9.237874e+001 -4.387111e+001  2.857104e+001
      vertex -9.244882e+001 -3.582708e+001  3.059493e+001
      vertex -9.238340e+001 -3.592860e+001  2.914282e+001
    endloop
  endfacet
  facet normal -9.999668e-001  0.000000e+000 -8.152483e-003
    outer loop
      vertex -9.237874e+001 -4.387111e+001  2.857104e+001
      vertex -9.238340e+001 -3.592860e+001  2.914282e+001
      vertex -9.237874e+001 -3.594029e+001  2.857104e+001
    endloop
  endfacet
  facet normal -9.064793e-001  -0.000000e+000 -4.222503e-001
    outer loop
      vertex -9.278178e+001 -4.387111e+001  3.193542e+001
      vertex -9.278178e+001 -3.550335e+001  3.193542e+001
      vertex -9.268694e+001 -4.387111e+001  3.173183e+001
    endloop
  endfacet
  facet normal -9.475547e-001 -2.963477e-003 -3.195797e-001
    outer loop
      vertex -9.268694e+001 -4.387111e+001  3.173183e+001
      vertex -9.278178e+001 -3.550335e+001  3.193542e+001
      vertex -9.251888e+001 -3.573931e+001  3.115810e+001
    endloop
  endfacet
  facet normal -9.787457e-001  5.765452e-003 -2.049963e-001
    outer loop
      vertex -9.268694e+001 -4.387111e+001  3.173183e+001
      vertex -9.251888e+001 -3.573931e+001  3.115810e+001
      vertex -9.244882e+001 -4.387111e+001  3.059493e+001
    endloop
  endfacet
  facet normal -9.923521e-001  0.000000e+000 -1.234395e-001
    outer loop
      vertex -9.244882e+001 -4.387111e+001  3.059493e+001
      vertex -9.251888e+001 -3.573931e+001  3.115810e+001
      vertex -9.244882e+001 -3.582708e+001  3.059493e+001
    endloop
  endfacet
  facet normal  9.988603e-001  0.000000e+000 -4.772870e-002
    outer loop
      vertex -8.442336e+001 -4.387111e+001  2.854475e+001
      vertex -8.442336e+001 -3.594056e+001  2.854475e+001
      vertex -8.431781e+001 -4.387111e+001  3.075359e+001
    endloop
  endfacet
  facet normal  9.999108e-001  1.134568e-002 -7.043559e-003
    outer loop
      vertex -8.431781e+001 -4.387111e+001  3.075359e+001
      vertex -8.442336e+001 -3.594056e+001  2.854475e+001
      vertex -8.442014e+001 -3.593224e+001  2.901521e+001
    endloop
  endfacet
  facet normal  9.992504e-001  4.459313e-003 -3.845351e-002
    outer loop
      vertex -8.431781e+001 -4.387111e+001  3.075359e+001
      vertex -8.442014e+001 -3.593224e+001  2.901521e+001
      vertex -8.437703e+001 -3.587336e+001  3.014219e+001
    endloop
  endfacet
  facet normal  9.908005e-001  0.000000e+000 -1.353308e-001
    outer loop
      vertex -8.422185e+001 -3.571435e+001  3.127832e+001
      vertex -8.422185e+001 -4.387111e+001  3.127832e+001
      vertex -8.437703e+001 -3.587336e+001  3.014219e+001
    endloop
  endfacet
  facet normal  9.836655e-001 -6.468450e-003 -1.798903e-001
    outer loop
      vertex -8.437703e+001 -3.587336e+001  3.014219e+001
      vertex -8.422185e+001 -4.387111e+001  3.127832e+001
      vertex -8.431781e+001 -4.387111e+001  3.075359e+001
    endloop
  endfacet
  facet normal  1.000000e+000  0.000000e+000  0.000000e+000
    outer loop
      vertex -8.442336e+001 -4.387111e+001  1.996730e+001
      vertex -8.442336e+001 -3.594216e+001  1.996730e+001
      vertex -8.442336e+001 -4.387111e+001  2.854475e+001
    endloop
  endfacet
  facet normal  1.000000e+000  0.000000e+000  0.000000e+000
    outer loop
      vertex -8.442336e+001 -4.387111e+001  2.854475e+001
      vertex -8.442336e+001 -3.594216e+001  1.996730e+001
      vertex -8.442336e+001 -3.594216e+001  2.821182e+001
    endloop
  endfacet
  facet normal  1.000000e+000  0.000000e+000  -0.000000e+000
    outer loop
      vertex -8.442336e+001 -4.387111e+001  2.854475e+001
      vertex -8.442336e+001 -3.594216e+001  2.821182e+001
      vertex -8.442336e+001 -3.594056e+001  2.854475e+001
    endloop
  endfacet
endsolid CATIA STL
