solid CATIA STL
  facet normal  1.733645e-001  9.848279e-001  7.664585e-003
    outer loop
      vertex -2.869070e+001 -5.440269e+001  1.010690e+000
      vertex -2.860782e+001 -5.442498e+001  2.000000e+000
      vertex -2.816316e+001 -5.449467e+001  8.964360e-001
    endloop
  endfacet
  facet normal  0.000000e+000  9.980121e-001 -6.302160e-002
    outer loop
      vertex -2.816316e+001 -5.449467e+001  8.964360e-001
      vertex -2.860782e+001 -5.442498e+001  2.000000e+000
      vertex -2.739218e+001 -5.442498e+001  2.000000e+000
    endloop
  endfacet
  facet normal -8.369937e-002  9.964812e-001 -4.450335e-003
    outer loop
      vertex -2.816316e+001 -5.449467e+001  8.964360e-001
      vertex -2.739218e+001 -5.442498e+001  2.000000e+000
      vertex -2.742077e+001 -5.443197e+001  9.728432e-001
    endloop
  endfacet
  facet normal -4.716518e-001  8.817561e-001  7.127536e-003
    outer loop
      vertex -2.742077e+001 -5.443197e+001  9.728432e-001
      vertex -2.739218e+001 -5.442498e+001  2.000000e+000
      vertex -2.632026e+001 -5.385161e+001  2.000000e+000
    endloop
  endfacet
  facet normal -1.333310e-001  9.172251e-001 -3.753944e-001
    outer loop
      vertex -2.742077e+001 -5.443197e+001  9.728432e-001
      vertex -2.632026e+001 -5.385161e+001  2.000000e+000
      vertex -2.677803e+001 -5.418101e+001  1.357758e+000
    endloop
  endfacet
  facet normal  4.685190e-001  8.758992e-001 -1.152848e-001
    outer loop
      vertex -2.967974e+001 -5.385161e+001  2.000000e+000
      vertex -2.860782e+001 -5.442498e+001  2.000000e+000
      vertex -2.922197e+001 -5.418101e+001  1.357758e+000
    endloop
  endfacet
  facet normal  3.790001e-001  9.253323e-001 -1.090311e-002
    outer loop
      vertex -2.922197e+001 -5.418101e+001  1.357758e+000
      vertex -2.860782e+001 -5.442498e+001  2.000000e+000
      vertex -2.869070e+001 -5.440269e+001  1.010690e+000
    endloop
  endfacet
  facet normal  -0.000000e+000  0.000000e+000 -1.000000e+000
    outer loop
      vertex -2.967974e+001 -5.385161e+001  2.000000e+000
      vertex -2.800000e+001 -5.385161e+001  2.000000e+000
      vertex -2.860782e+001 -5.442498e+001  2.000000e+000
    endloop
  endfacet
  facet normal  0.000000e+000  0.000000e+000 -1.000000e+000
    outer loop
      vertex -2.860782e+001 -5.442498e+001  2.000000e+000
      vertex -2.800000e+001 -5.385161e+001  2.000000e+000
      vertex -2.632026e+001 -5.385161e+001  2.000000e+000
    endloop
  endfacet
  facet normal  0.000000e+000  0.000000e+000 -1.000000e+000
    outer loop
      vertex -2.860782e+001 -5.442498e+001  2.000000e+000
      vertex -2.632026e+001 -5.385161e+001  2.000000e+000
      vertex -2.739218e+001 -5.442498e+001  2.000000e+000
    endloop
  endfacet
  facet normal  1.733645e-001  9.848279e-001  7.664585e-003
    outer loop
      vertex -2.069070e+001 -5.440269e+001  1.010690e+000
      vertex -2.060782e+001 -5.442498e+001  2.000000e+000
      vertex -2.016316e+001 -5.449467e+001  8.964360e-001
    endloop
  endfacet
  facet normal  0.000000e+000  9.980121e-001 -6.302160e-002
    outer loop
      vertex -2.016316e+001 -5.449467e+001  8.964360e-001
      vertex -2.060782e+001 -5.442498e+001  2.000000e+000
      vertex -1.939218e+001 -5.442498e+001  2.000000e+000
    endloop
  endfacet
  facet normal -8.369937e-002  9.964812e-001 -4.450335e-003
    outer loop
      vertex -2.016316e+001 -5.449467e+001  8.964360e-001
      vertex -1.939218e+001 -5.442498e+001  2.000000e+000
      vertex -1.942077e+001 -5.443197e+001  9.728432e-001
    endloop
  endfacet
  facet normal -4.716518e-001  8.817561e-001  7.127536e-003
    outer loop
      vertex -1.942077e+001 -5.443197e+001  9.728432e-001
      vertex -1.939218e+001 -5.442498e+001  2.000000e+000
      vertex -1.832026e+001 -5.385161e+001  2.000000e+000
    endloop
  endfacet
  facet normal -1.333310e-001  9.172251e-001 -3.753944e-001
    outer loop
      vertex -1.942077e+001 -5.443197e+001  9.728432e-001
      vertex -1.832026e+001 -5.385161e+001  2.000000e+000
      vertex -1.877803e+001 -5.418101e+001  1.357758e+000
    endloop
  endfacet
  facet normal  4.685190e-001  8.758992e-001 -1.152848e-001
    outer loop
      vertex -2.167974e+001 -5.385161e+001  2.000000e+000
      vertex -2.060782e+001 -5.442498e+001  2.000000e+000
      vertex -2.122197e+001 -5.418101e+001  1.357758e+000
    endloop
  endfacet
  facet normal  3.790001e-001  9.253323e-001 -1.090311e-002
    outer loop
      vertex -2.122197e+001 -5.418101e+001  1.357758e+000
      vertex -2.060782e+001 -5.442498e+001  2.000000e+000
      vertex -2.069070e+001 -5.440269e+001  1.010690e+000
    endloop
  endfacet
  facet normal  -0.000000e+000  0.000000e+000 -1.000000e+000
    outer loop
      vertex -2.167974e+001 -5.385161e+001  2.000000e+000
      vertex -2.000000e+001 -5.385161e+001  2.000000e+000
      vertex -2.060782e+001 -5.442498e+001  2.000000e+000
    endloop
  endfacet
  facet normal  0.000000e+000  0.000000e+000 -1.000000e+000
    outer loop
      vertex -2.060782e+001 -5.442498e+001  2.000000e+000
      vertex -2.000000e+001 -5.385161e+001  2.000000e+000
      vertex -1.832026e+001 -5.385161e+001  2.000000e+000
    endloop
  endfacet
  facet normal  0.000000e+000  0.000000e+000 -1.000000e+000
    outer loop
      vertex -2.060782e+001 -5.442498e+001  2.000000e+000
      vertex -1.832026e+001 -5.385161e+001  2.000000e+000
      vertex -1.939218e+001 -5.442498e+001  2.000000e+000
    endloop
  endfacet
  facet normal -5.612714e-003  9.999826e-001 -1.807600e-003
    outer loop
      vertex -1.959197e+001 -4.926815e+001  2.623831e+001
      vertex -2.755612e+001 -4.931831e+001  2.321878e+001
      vertex -2.755612e+001 -4.930928e+001  2.821182e+001
    endloop
  endfacet
  facet normal  0.000000e+000  9.077696e-001 -4.194691e-001
    outer loop
      vertex -1.832026e+001 -5.385161e+001  2.000000e+000
      vertex -2.755612e+001 -5.325758e+001  3.285532e+000
      vertex -1.959197e+001 -5.325758e+001  3.285532e+000
    endloop
  endfacet
  facet normal  0.000000e+000  9.077696e-001 -4.194691e-001
    outer loop
      vertex -1.832026e+001 -5.385161e+001  2.000000e+000
      vertex -1.959197e+001 -5.325758e+001  3.285532e+000
      vertex -1.610902e+001 -5.325758e+001  3.285532e+000
    endloop
  endfacet
  facet normal  8.872533e-003  9.018354e-001 -4.319885e-001
    outer loop
      vertex -1.832026e+001 -5.385161e+001  2.000000e+000
      vertex -1.610902e+001 -5.325758e+001  3.285532e+000
      vertex -1.610902e+001 -5.418101e+001  1.357758e+000
    endloop
  endfacet
  facet normal  0.000000e+000  8.897946e-001 -4.563611e-001
    outer loop
      vertex -1.832026e+001 -5.385161e+001  2.000000e+000
      vertex -1.610902e+001 -5.418101e+001  1.357758e+000
      vertex -1.877803e+001 -5.418101e+001  1.357758e+000
    endloop
  endfacet
  facet normal  0.000000e+000  9.077696e-001 -4.194691e-001
    outer loop
      vertex -3.165646e+001 -5.325758e+001  3.285532e+000
      vertex -2.755612e+001 -5.325758e+001  3.285532e+000
      vertex -1.832026e+001 -5.385161e+001  2.000000e+000
    endloop
  endfacet
  facet normal  0.000000e+000  9.077696e-001 -4.194691e-001
    outer loop
      vertex -3.165646e+001 -5.325758e+001  3.285532e+000
      vertex -1.832026e+001 -5.385161e+001  2.000000e+000
      vertex -2.167974e+001 -5.385161e+001  2.000000e+000
    endloop
  endfacet
  facet normal  0.000000e+000  9.077696e-001 -4.194691e-001
    outer loop
      vertex -3.165646e+001 -5.325758e+001  3.285532e+000
      vertex -2.167974e+001 -5.385161e+001  2.000000e+000
      vertex -2.632026e+001 -5.385161e+001  2.000000e+000
    endloop
  endfacet
  facet normal  0.000000e+000  9.077696e-001 -4.194691e-001
    outer loop
      vertex -3.165646e+001 -5.325758e+001  3.285532e+000
      vertex -2.632026e+001 -5.385161e+001  2.000000e+000
      vertex -2.967974e+001 -5.385161e+001  2.000000e+000
    endloop
  endfacet
  facet normal -5.372432e-002  8.724425e-001 -4.857550e-001
    outer loop
      vertex -3.165646e+001 -5.325758e+001  3.285532e+000
      vertex -2.967974e+001 -5.385161e+001  2.000000e+000
      vertex -2.922197e+001 -5.418101e+001  1.357758e+000
    endloop
  endfacet
  facet normal  0.000000e+000  9.018710e-001 -4.320056e-001
    outer loop
      vertex -3.165646e+001 -5.325758e+001  3.285532e+000
      vertex -2.922197e+001 -5.418101e+001  1.357758e+000
      vertex -3.165646e+001 -5.418101e+001  1.357758e+000
    endloop
  endfacet
  facet normal  6.552748e-003  9.988611e-001  4.726299e-002
    outer loop
      vertex -1.959197e+001 -4.953976e+001  3.197847e+001
      vertex -1.959197e+001 -4.926815e+001  2.623831e+001
      vertex -2.755612e+001 -4.930928e+001  2.821182e+001
    endloop
  endfacet
  facet normal  6.513447e-003  9.988574e-001  4.734586e-002
    outer loop
      vertex -1.959197e+001 -4.953976e+001  3.197847e+001
      vertex -2.755612e+001 -4.930928e+001  2.821182e+001
      vertex -2.760997e+001 -4.939225e+001  2.996964e+001
    endloop
  endfacet
  facet normal  1.915941e-003  9.978427e-001  6.562178e-002
    outer loop
      vertex -1.959197e+001 -4.953976e+001  3.197847e+001
      vertex -2.760997e+001 -4.939225e+001  2.996964e+001
      vertex -2.770233e+001 -4.944988e+001  3.084864e+001
    endloop
  endfacet
  facet normal  3.448509e-004  9.970437e-001  7.683612e-002
    outer loop
      vertex -1.959197e+001 -4.953976e+001  3.197847e+001
      vertex -2.770233e+001 -4.944988e+001  3.084864e+001
      vertex -2.786469e+001 -4.950864e+001  3.161182e+001
    endloop
  endfacet
  facet normal  0.000000e+000  9.964181e-001  8.456398e-002
    outer loop
      vertex -1.959197e+001 -4.953976e+001  3.197847e+001
      vertex -2.786469e+001 -4.950864e+001  3.161182e+001
      vertex -2.800801e+001 -4.953976e+001  3.197847e+001
    endloop
  endfacet
  facet normal  1.394077e-003  9.630083e-001 -2.694679e-001
    outer loop
      vertex -1.959197e+001 -5.169333e+001  8.004503e+000
      vertex -1.959197e+001 -5.222791e+001  6.094025e+000
      vertex -2.755612e+001 -5.185366e+001  7.390304e+000
    endloop
  endfacet
  facet normal -1.190586e-002  9.388216e-001 -3.441978e-001
    outer loop
      vertex -2.755612e+001 -5.185366e+001  7.390304e+000
      vertex -1.959197e+001 -5.222791e+001  6.094025e+000
      vertex -1.959197e+001 -5.325758e+001  3.285532e+000
    endloop
  endfacet
  facet normal  0.000000e+000  9.461881e-001 -3.236173e-001
    outer loop
      vertex -2.755612e+001 -5.185366e+001  7.390304e+000
      vertex -1.959197e+001 -5.325758e+001  3.285532e+000
      vertex -2.755612e+001 -5.325758e+001  3.285532e+000
    endloop
  endfacet
  facet normal -1.729855e-003  9.876739e-001 -1.565159e-001
    outer loop
      vertex -2.755612e+001 -4.974495e+001  1.824743e+001
      vertex -1.959197e+001 -4.983197e+001  1.761025e+001
      vertex -2.755612e+001 -5.033792e+001  1.450555e+001
    endloop
  endfacet
  facet normal  4.752658e-003  9.849625e-001 -1.727029e-001
    outer loop
      vertex -2.755612e+001 -5.033792e+001  1.450555e+001
      vertex -1.959197e+001 -4.983197e+001  1.761025e+001
      vertex -1.959197e+001 -5.083240e+001  1.190462e+001
    endloop
  endfacet
  facet normal -1.299123e-003  9.816656e-001 -1.906069e-001
    outer loop
      vertex -2.755612e+001 -5.033792e+001  1.450555e+001
      vertex -1.959197e+001 -5.083240e+001  1.190462e+001
      vertex -2.755612e+001 -5.106096e+001  1.078176e+001
    endloop
  endfacet
  facet normal  2.366767e-003  9.764889e-001 -2.155544e-001
    outer loop
      vertex -2.755612e+001 -5.106096e+001  1.078176e+001
      vertex -1.959197e+001 -5.083240e+001  1.190462e+001
      vertex -1.959197e+001 -5.169333e+001  8.004503e+000
    endloop
  endfacet
  facet normal -2.051095e-003  9.737525e-001 -2.276001e-001
    outer loop
      vertex -2.755612e+001 -5.106096e+001  1.078176e+001
      vertex -1.959197e+001 -5.169333e+001  8.004503e+000
      vertex -2.755612e+001 -5.185366e+001  7.390304e+000
    endloop
  endfacet
  facet normal  8.721486e-003  9.991775e-001 -3.960140e-002
    outer loop
      vertex -1.959197e+001 -4.926815e+001  2.623831e+001
      vertex -1.959197e+001 -4.949578e+001  2.049509e+001
      vertex -2.755612e+001 -4.931831e+001  2.321878e+001
    endloop
  endfacet
  facet normal -1.745170e-002  9.931264e-001 -1.157381e-001
    outer loop
      vertex -2.755612e+001 -4.931831e+001  2.321878e+001
      vertex -1.959197e+001 -4.949578e+001  2.049509e+001
      vertex -1.959197e+001 -4.983197e+001  1.761025e+001
    endloop
  endfacet
  facet normal  4.046061e-003  9.963295e-001 -8.550457e-002
    outer loop
      vertex -2.755612e+001 -4.931831e+001  2.321878e+001
      vertex -1.959197e+001 -4.983197e+001  1.761025e+001
      vertex -2.755612e+001 -4.974495e+001  1.824743e+001
    endloop
  endfacet
  facet normal  0.000000e+000  8.897946e-001 -4.563612e-001
    outer loop
      vertex -2.167974e+001 -5.385161e+001  2.000000e+000
      vertex -2.122197e+001 -5.418101e+001  1.357758e+000
      vertex -2.632026e+001 -5.385161e+001  2.000000e+000
    endloop
  endfacet
  facet normal  0.000000e+000  8.897946e-001 -4.563611e-001
    outer loop
      vertex -2.632026e+001 -5.385161e+001  2.000000e+000
      vertex -2.122197e+001 -5.418101e+001  1.357758e+000
      vertex -2.677803e+001 -5.418101e+001  1.357758e+000
    endloop
  endfacet
  facet normal  0.000000e+000  7.258635e-001 -6.878387e-001
    outer loop
      vertex -3.165646e+001 -5.418101e+001  1.357758e+000
      vertex -2.922197e+001 -5.418101e+001  1.357758e+000
      vertex -3.165646e+001 -5.512120e+001  3.655936e-001
    endloop
  endfacet
  facet normal -6.167740e-002  7.956404e-001 -6.026210e-001
    outer loop
      vertex -3.165646e+001 -5.512120e+001  3.655936e-001
      vertex -2.922197e+001 -5.418101e+001  1.357758e+000
      vertex -2.869070e+001 -5.440269e+001  1.010690e+000
    endloop
  endfacet
  facet normal -2.416934e-002  7.212722e-001 -6.922298e-001
    outer loop
      vertex -3.165646e+001 -5.512120e+001  3.655936e-001
      vertex -2.869070e+001 -5.440269e+001  1.010690e+000
      vertex -2.816316e+001 -5.449467e+001  8.964360e-001
    endloop
  endfacet
  facet normal  0.000000e+000  8.376768e-001 -5.461662e-001
    outer loop
      vertex -2.677803e+001 -5.418101e+001  1.357758e+000
      vertex -2.122197e+001 -5.418101e+001  1.357758e+000
      vertex -2.742077e+001 -5.443197e+001  9.728432e-001
    endloop
  endfacet
  facet normal -6.332662e-004  8.423119e-001 -5.389901e-001
    outer loop
      vertex -2.742077e+001 -5.443197e+001  9.728432e-001
      vertex -2.122197e+001 -5.418101e+001  1.357758e+000
      vertex -2.069070e+001 -5.440269e+001  1.010690e+000
    endloop
  endfacet
  facet normal  2.158308e-004  7.720178e-001 -6.356009e-001
    outer loop
      vertex -2.742077e+001 -5.443197e+001  9.728432e-001
      vertex -2.069070e+001 -5.440269e+001  1.010690e+000
      vertex -2.816316e+001 -5.449467e+001  8.964360e-001
    endloop
  endfacet
  facet normal  0.000000e+000  7.789599e-001 -6.270736e-001
    outer loop
      vertex -2.816316e+001 -5.449467e+001  8.964360e-001
      vertex -2.069070e+001 -5.440269e+001  1.010690e+000
      vertex -2.016316e+001 -5.449467e+001  8.964360e-001
    endloop
  endfacet
  facet normal  0.000000e+000  6.464424e-001 -7.629627e-001
    outer loop
      vertex -2.816316e+001 -5.449467e+001  8.964360e-001
      vertex -2.016316e+001 -5.449467e+001  8.964360e-001
      vertex -3.165646e+001 -5.512120e+001  3.655936e-001
    endloop
  endfacet
  facet normal  0.000000e+000  6.464425e-001 -7.629627e-001
    outer loop
      vertex -3.165646e+001 -5.512120e+001  3.655936e-001
      vertex -2.016316e+001 -5.449467e+001  8.964360e-001
      vertex -1.610902e+001 -5.512120e+001  3.655936e-001
    endloop
  endfacet
  facet normal  0.000000e+000  2.674671e-001 -9.635670e-001
    outer loop
      vertex -3.165646e+001 -5.512120e+001  3.655936e-001
      vertex -1.610902e+001 -5.512120e+001  3.655936e-001
      vertex -3.165646e+001 -5.643827e+001 -1.064436e-018
    endloop
  endfacet
  facet normal  9.751822e-018  2.674671e-001 -9.635670e-001
    outer loop
      vertex -3.165646e+001 -5.643827e+001 -1.064436e-018
      vertex -1.610902e+001 -5.512120e+001  3.655936e-001
      vertex -1.610902e+001 -5.643827e+001  1.562841e-016
    endloop
  endfacet
  facet normal  0.000000e+000  8.376768e-001 -5.461662e-001
    outer loop
      vertex -1.877803e+001 -5.418101e+001  1.357758e+000
      vertex -1.610902e+001 -5.418101e+001  1.357758e+000
      vertex -1.942077e+001 -5.443197e+001  9.728432e-001
    endloop
  endfacet
  facet normal  2.493166e-002  7.256380e-001 -6.876249e-001
    outer loop
      vertex -1.942077e+001 -5.443197e+001  9.728432e-001
      vertex -1.610902e+001 -5.418101e+001  1.357758e+000
      vertex -1.610902e+001 -5.512120e+001  3.655936e-001
    endloop
  endfacet
  facet normal  1.449389e-002  6.993122e-001 -7.146695e-001
    outer loop
      vertex -1.942077e+001 -5.443197e+001  9.728432e-001
      vertex -1.610902e+001 -5.512120e+001  3.655936e-001
      vertex -2.016316e+001 -5.449467e+001  8.964360e-001
    endloop
  endfacet
  facet normal  0.000000e+000  0.000000e+000 -1.000000e+000
    outer loop
      vertex -2.250000e+001 -6.000000e+001  0.000000e+000
      vertex -2.583494e+001 -6.125000e+001  0.000000e+000
      vertex -2.550000e+001 -6.000000e+001  0.000000e+000
    endloop
  endfacet
  facet normal  0.000000e+000  0.000000e+000 -1.000000e+000
    outer loop
      vertex -2.250000e+001 -6.000000e+001  0.000000e+000
      vertex -2.550000e+001 -6.000000e+001  0.000000e+000
      vertex -2.583494e+001 -5.875000e+001  0.000000e+000
    endloop
  endfacet
  facet normal  0.000000e+000  0.000000e+000 -1.000000e+000
    outer loop
      vertex -2.250000e+001 -6.000000e+001  0.000000e+000
      vertex -2.583494e+001 -5.875000e+001  0.000000e+000
      vertex -2.675000e+001 -5.783494e+001  0.000000e+000
    endloop
  endfacet
  facet normal  0.000000e+000  0.000000e+000 -9.999999e-001
    outer loop
      vertex -2.250000e+001 -6.000000e+001  0.000000e+000
      vertex -2.675000e+001 -5.783494e+001  0.000000e+000
      vertex -2.216506e+001 -5.875000e+001  0.000000e+000
    endloop
  endfacet
  facet normal  4.354851e-019 -1.574557e-019 -1.000000e+000
    outer loop
      vertex -3.165646e+001 -6.319850e+001  0.000000e+000
      vertex -3.165646e+001 -5.643827e+001 -1.064436e-018
      vertex -3.050000e+001 -6.000000e+001  0.000000e+000
    endloop
  endfacet
  facet normal  0.000000e+000  -0.000000e+000 -1.000000e+000
    outer loop
      vertex -3.165646e+001 -6.319850e+001  0.000000e+000
      vertex -3.050000e+001 -6.000000e+001  0.000000e+000
      vertex -3.016506e+001 -6.125000e+001  0.000000e+000
    endloop
  endfacet
  facet normal  0.000000e+000  -0.000000e+000 -1.000000e+000
    outer loop
      vertex -3.165646e+001 -6.319850e+001  0.000000e+000
      vertex -3.016506e+001 -6.125000e+001  0.000000e+000
      vertex -2.925000e+001 -6.216506e+001  0.000000e+000
    endloop
  endfacet
  facet normal  0.000000e+000  -0.000000e+000 -1.000000e+000
    outer loop
      vertex -3.165646e+001 -6.319850e+001  0.000000e+000
      vertex -2.925000e+001 -6.216506e+001  0.000000e+000
      vertex -2.800000e+001 -6.250000e+001  0.000000e+000
    endloop
  endfacet
  facet normal  4.956315e-016 -8.271049e-015 -1.000000e+000
    outer loop
      vertex -1.610902e+001 -6.319850e+001  7.705801e-015
      vertex -3.165646e+001 -6.319850e+001  0.000000e+000
      vertex -2.000000e+001 -6.250000e+001  0.000000e+000
    endloop
  endfacet
  facet normal  1.185910e-015 -4.425855e-015 -1.000000e+000
    outer loop
      vertex -1.610902e+001 -6.319850e+001  7.705801e-015
      vertex -2.000000e+001 -6.250000e+001  0.000000e+000
      vertex -1.875000e+001 -6.216506e+001  0.000000e+000
    endloop
  endfacet
  facet normal  2.097149e-015 -2.097153e-015 -1.000000e+000
    outer loop
      vertex -1.610902e+001 -6.319850e+001  7.705801e-015
      vertex -1.875000e+001 -6.216506e+001  0.000000e+000
      vertex -1.783494e+001 -6.125000e+001  0.000000e+000
    endloop
  endfacet
  facet normal  3.427827e-015 -9.184824e-016 -1.000000e+000
    outer loop
      vertex -1.610902e+001 -6.319850e+001  7.705801e-015
      vertex -1.783494e+001 -6.125000e+001  0.000000e+000
      vertex -1.750000e+001 -6.000000e+001  0.000000e+000
    endloop
  endfacet
  facet normal  2.971907e-015 -1.116755e-015 -1.000000e+000
    outer loop
      vertex -1.610902e+001 -6.319850e+001  7.705801e-015
      vertex -1.750000e+001 -6.000000e+001  0.000000e+000
      vertex -1.610902e+001 -5.643827e+001  1.562841e-016
    endloop
  endfacet
  facet normal  6.815067e-020 -2.543406e-019 -1.000000e+000
    outer loop
      vertex -3.165646e+001 -5.643827e+001 -1.064436e-018
      vertex -2.000000e+001 -5.750000e+001  0.000000e+000
      vertex -2.125000e+001 -5.783494e+001  0.000000e+000
    endloop
  endfacet
  facet normal  9.018255e-020 -9.018273e-020 -1.000000e+000
    outer loop
      vertex -3.165646e+001 -5.643827e+001 -1.064436e-018
      vertex -2.125000e+001 -5.783494e+001  0.000000e+000
      vertex -2.216506e+001 -5.875000e+001  0.000000e+000
    endloop
  endfacet
  facet normal -5.089178e-019 -2.549943e-018 -9.999999e-001
    outer loop
      vertex -3.165646e+001 -5.643827e+001 -1.064436e-018
      vertex -2.216506e+001 -5.875000e+001  0.000000e+000
      vertex -2.675000e+001 -5.783494e+001  0.000000e+000
    endloop
  endfacet
  facet normal -3.479142e-018 -1.298428e-017 -1.000000e+000
    outer loop
      vertex -3.165646e+001 -5.643827e+001 -1.064436e-018
      vertex -2.675000e+001 -5.783494e+001  0.000000e+000
      vertex -2.800000e+001 -5.750000e+001  0.000000e+000
    endloop
  endfacet
  facet normal  1.397105e-019 -5.214044e-019 -1.000000e+000
    outer loop
      vertex -3.165646e+001 -5.643827e+001 -1.064436e-018
      vertex -2.800000e+001 -5.750000e+001  0.000000e+000
      vertex -2.925000e+001 -5.783494e+001  0.000000e+000
    endloop
  endfacet
  facet normal  2.798842e-019 -2.798848e-019 -1.000000e+000
    outer loop
      vertex -3.165646e+001 -5.643827e+001 -1.064436e-018
      vertex -2.925000e+001 -5.783494e+001  0.000000e+000
      vertex -3.016506e+001 -5.875000e+001  0.000000e+000
    endloop
  endfacet
  facet normal  5.042756e-019 -1.351201e-019 -1.000000e+000
    outer loop
      vertex -3.165646e+001 -5.643827e+001 -1.064436e-018
      vertex -3.016506e+001 -5.875000e+001  0.000000e+000
      vertex -3.050000e+001 -6.000000e+001  0.000000e+000
    endloop
  endfacet
  facet normal  6.663599e-017  1.785504e-017 -1.000000e+000
    outer loop
      vertex -1.610902e+001 -5.643827e+001  1.562841e-016
      vertex -1.750000e+001 -6.000000e+001  0.000000e+000
      vertex -1.783494e+001 -5.875000e+001  0.000000e+000
    endloop
  endfacet
  facet normal  3.870670e-017  3.870678e-017 -9.999999e-001
    outer loop
      vertex -1.610902e+001 -5.643827e+001  1.562841e-016
      vertex -1.783494e+001 -5.875000e+001  0.000000e+000
      vertex -1.875000e+001 -5.783494e+001  0.000000e+000
    endloop
  endfacet
  facet normal  1.990021e-017  7.426827e-017 -1.000000e+000
    outer loop
      vertex -1.610902e+001 -5.643827e+001  1.562841e-016
      vertex -1.875000e+001 -5.783494e+001  0.000000e+000
      vertex -2.000000e+001 -5.750000e+001  0.000000e+000
    endloop
  endfacet
  facet normal  1.012054e-017  1.101084e-016 -1.000000e+000
    outer loop
      vertex -1.610902e+001 -5.643827e+001  1.562841e-016
      vertex -2.000000e+001 -5.750000e+001  0.000000e+000
      vertex -3.165646e+001 -5.643827e+001 -1.064436e-018
    endloop
  endfacet
  facet normal  0.000000e+000  0.000000e+000 -1.000000e+000
    outer loop
      vertex -2.000000e+001 -6.250000e+001  0.000000e+000
      vertex -3.165646e+001 -6.319850e+001  0.000000e+000
      vertex -2.125000e+001 -6.216506e+001  0.000000e+000
    endloop
  endfacet
  facet normal  0.000000e+000  0.000000e+000 -1.000000e+000
    outer loop
      vertex -2.125000e+001 -6.216506e+001  0.000000e+000
      vertex -3.165646e+001 -6.319850e+001  0.000000e+000
      vertex -2.800000e+001 -6.250000e+001  0.000000e+000
    endloop
  endfacet
  facet normal  0.000000e+000  0.000000e+000 -9.999999e-001
    outer loop
      vertex -2.125000e+001 -6.216506e+001  0.000000e+000
      vertex -2.800000e+001 -6.250000e+001  0.000000e+000
      vertex -2.216506e+001 -6.125000e+001  0.000000e+000
    endloop
  endfacet
  facet normal  0.000000e+000  0.000000e+000 -1.000000e+000
    outer loop
      vertex -2.216506e+001 -6.125000e+001  0.000000e+000
      vertex -2.800000e+001 -6.250000e+001  0.000000e+000
      vertex -2.675000e+001 -6.216506e+001  0.000000e+000
    endloop
  endfacet
  facet normal  0.000000e+000  0.000000e+000 -9.999999e-001
    outer loop
      vertex -2.216506e+001 -6.125000e+001  0.000000e+000
      vertex -2.675000e+001 -6.216506e+001  0.000000e+000
      vertex -2.250000e+001 -6.000000e+001  0.000000e+000
    endloop
  endfacet
  facet normal  0.000000e+000  0.000000e+000 -1.000000e+000
    outer loop
      vertex -2.250000e+001 -6.000000e+001  0.000000e+000
      vertex -2.675000e+001 -6.216506e+001  0.000000e+000
      vertex -2.583494e+001 -6.125000e+001  0.000000e+000
    endloop
  endfacet
  facet normal -2.588202e-001  9.659255e-001  0.000000e+000
    outer loop
      vertex -2.800000e+001 -6.250000e+001  0.000000e+000
      vertex -2.675000e+001 -6.216506e+001  2.000000e+000
      vertex -2.675000e+001 -6.216506e+001  0.000000e+000
    endloop
  endfacet
  facet normal -7.071061e-001  7.071075e-001  0.000000e+000
    outer loop
      vertex -2.675000e+001 -6.216506e+001  0.000000e+000
      vertex -2.675000e+001 -6.216506e+001  2.000000e+000
      vertex -2.583494e+001 -6.125000e+001  2.000000e+000
    endloop
  endfacet
  facet normal -7.071061e-001  7.071075e-001  0.000000e+000
    outer loop
      vertex -2.675000e+001 -6.216506e+001  0.000000e+000
      vertex -2.583494e+001 -6.125000e+001  2.000000e+000
      vertex -2.583494e+001 -6.125000e+001  0.000000e+000
    endloop
  endfacet
  facet normal -9.659259e-001  2.588188e-001  0.000000e+000
    outer loop
      vertex -2.583494e+001 -6.125000e+001  0.000000e+000
      vertex -2.583494e+001 -6.125000e+001  2.000000e+000
      vertex -2.550000e+001 -6.000000e+001  2.000000e+000
    endloop
  endfacet
  facet normal -9.659259e-001  2.588188e-001  0.000000e+000
    outer loop
      vertex -2.583494e+001 -6.125000e+001  0.000000e+000
      vertex -2.550000e+001 -6.000000e+001  2.000000e+000
      vertex -2.550000e+001 -6.000000e+001  0.000000e+000
    endloop
  endfacet
  facet normal -2.588202e-001  9.659255e-001  0.000000e+000
    outer loop
      vertex -2.675000e+001 -6.216506e+001  2.000000e+000
      vertex -2.800000e+001 -6.250000e+001  0.000000e+000
      vertex -2.800000e+001 -6.250000e+001  2.000000e+000
    endloop
  endfacet
  facet normal  2.588202e-001  9.659255e-001  0.000000e+000
    outer loop
      vertex -2.800000e+001 -6.250000e+001  2.000000e+000
      vertex -2.800000e+001 -6.250000e+001  0.000000e+000
      vertex -2.925000e+001 -6.216506e+001  0.000000e+000
    endloop
  endfacet
  facet normal  2.588202e-001  9.659255e-001  -0.000000e+000
    outer loop
      vertex -2.800000e+001 -6.250000e+001  2.000000e+000
      vertex -2.925000e+001 -6.216506e+001  0.000000e+000
      vertex -2.925000e+001 -6.216506e+001  2.000000e+000
    endloop
  endfacet
  facet normal  7.071061e-001  7.071075e-001  0.000000e+000
    outer loop
      vertex -2.925000e+001 -6.216506e+001  2.000000e+000
      vertex -2.925000e+001 -6.216506e+001  0.000000e+000
      vertex -3.016506e+001 -6.125000e+001  0.000000e+000
    endloop
  endfacet
  facet normal  7.071061e-001  7.071075e-001  -0.000000e+000
    outer loop
      vertex -2.925000e+001 -6.216506e+001  2.000000e+000
      vertex -3.016506e+001 -6.125000e+001  0.000000e+000
      vertex -3.016506e+001 -6.125000e+001  2.000000e+000
    endloop
  endfacet
  facet normal  9.659259e-001  2.588188e-001  0.000000e+000
    outer loop
      vertex -3.016506e+001 -6.125000e+001  2.000000e+000
      vertex -3.016506e+001 -6.125000e+001  0.000000e+000
      vertex -3.050000e+001 -6.000000e+001  0.000000e+000
    endloop
  endfacet
  facet normal  9.659259e-001  2.588188e-001  -0.000000e+000
    outer loop
      vertex -3.016506e+001 -6.125000e+001  2.000000e+000
      vertex -3.050000e+001 -6.000000e+001  0.000000e+000
      vertex -3.050000e+001 -6.000000e+001  2.000000e+000
    endloop
  endfacet
  facet normal  2.588202e-001 -9.659255e-001  0.000000e+000
    outer loop
      vertex -2.800000e+001 -5.750000e+001  0.000000e+000
      vertex -2.925000e+001 -5.783494e+001  2.000000e+000
      vertex -2.925000e+001 -5.783494e+001  0.000000e+000
    endloop
  endfacet
  facet normal  7.071061e-001 -7.071075e-001  0.000000e+000
    outer loop
      vertex -2.925000e+001 -5.783494e+001  0.000000e+000
      vertex -2.925000e+001 -5.783494e+001  2.000000e+000
      vertex -3.016506e+001 -5.875000e+001  2.000000e+000
    endloop
  endfacet
  facet normal  7.071061e-001 -7.071075e-001  0.000000e+000
    outer loop
      vertex -2.925000e+001 -5.783494e+001  0.000000e+000
      vertex -3.016506e+001 -5.875000e+001  2.000000e+000
      vertex -3.016506e+001 -5.875000e+001  0.000000e+000
    endloop
  endfacet
  facet normal  9.659259e-001 -2.588188e-001  0.000000e+000
    outer loop
      vertex -3.016506e+001 -5.875000e+001  0.000000e+000
      vertex -3.016506e+001 -5.875000e+001  2.000000e+000
      vertex -3.050000e+001 -6.000000e+001  2.000000e+000
    endloop
  endfacet
  facet normal  9.659259e-001 -2.588188e-001  0.000000e+000
    outer loop
      vertex -3.016506e+001 -5.875000e+001  0.000000e+000
      vertex -3.050000e+001 -6.000000e+001  2.000000e+000
      vertex -3.050000e+001 -6.000000e+001  0.000000e+000
    endloop
  endfacet
  facet normal  2.588202e-001 -9.659255e-001  0.000000e+000
    outer loop
      vertex -2.925000e+001 -5.783494e+001  2.000000e+000
      vertex -2.800000e+001 -5.750000e+001  0.000000e+000
      vertex -2.800000e+001 -5.750000e+001  2.000000e+000
    endloop
  endfacet
  facet normal -2.588202e-001 -9.659255e-001  -0.000000e+000
    outer loop
      vertex -2.800000e+001 -5.750000e+001  2.000000e+000
      vertex -2.800000e+001 -5.750000e+001  0.000000e+000
      vertex -2.675000e+001 -5.783494e+001  0.000000e+000
    endloop
  endfacet
  facet normal -2.588202e-001 -9.659255e-001  0.000000e+000
    outer loop
      vertex -2.800000e+001 -5.750000e+001  2.000000e+000
      vertex -2.675000e+001 -5.783494e+001  0.000000e+000
      vertex -2.675000e+001 -5.783494e+001  2.000000e+000
    endloop
  endfacet
  facet normal -7.071061e-001 -7.071075e-001  -0.000000e+000
    outer loop
      vertex -2.675000e+001 -5.783494e+001  2.000000e+000
      vertex -2.675000e+001 -5.783494e+001  0.000000e+000
      vertex -2.583494e+001 -5.875000e+001  0.000000e+000
    endloop
  endfacet
  facet normal -7.071061e-001 -7.071075e-001  0.000000e+000
    outer loop
      vertex -2.675000e+001 -5.783494e+001  2.000000e+000
      vertex -2.583494e+001 -5.875000e+001  0.000000e+000
      vertex -2.583494e+001 -5.875000e+001  2.000000e+000
    endloop
  endfacet
  facet normal -9.659259e-001 -2.588188e-001  -0.000000e+000
    outer loop
      vertex -2.583494e+001 -5.875000e+001  2.000000e+000
      vertex -2.583494e+001 -5.875000e+001  0.000000e+000
      vertex -2.550000e+001 -6.000000e+001  0.000000e+000
    endloop
  endfacet
  facet normal -9.659259e-001 -2.588188e-001  0.000000e+000
    outer loop
      vertex -2.583494e+001 -5.875000e+001  2.000000e+000
      vertex -2.550000e+001 -6.000000e+001  0.000000e+000
      vertex -2.550000e+001 -6.000000e+001  2.000000e+000
    endloop
  endfacet
  facet normal -2.588202e-001  9.659255e-001  0.000000e+000
    outer loop
      vertex -2.000000e+001 -6.250000e+001  0.000000e+000
      vertex -1.875000e+001 -6.216506e+001  2.000000e+000
      vertex -1.875000e+001 -6.216506e+001  0.000000e+000
    endloop
  endfacet
  facet normal -7.071061e-001  7.071075e-001  0.000000e+000
    outer loop
      vertex -1.875000e+001 -6.216506e+001  0.000000e+000
      vertex -1.875000e+001 -6.216506e+001  2.000000e+000
      vertex -1.783494e+001 -6.125000e+001  2.000000e+000
    endloop
  endfacet
  facet normal -7.071061e-001  7.071075e-001  0.000000e+000
    outer loop
      vertex -1.875000e+001 -6.216506e+001  0.000000e+000
      vertex -1.783494e+001 -6.125000e+001  2.000000e+000
      vertex -1.783494e+001 -6.125000e+001  0.000000e+000
    endloop
  endfacet
  facet normal -9.659259e-001  2.588188e-001  0.000000e+000
    outer loop
      vertex -1.783494e+001 -6.125000e+001  0.000000e+000
      vertex -1.783494e+001 -6.125000e+001  2.000000e+000
      vertex -1.750000e+001 -6.000000e+001  2.000000e+000
    endloop
  endfacet
  facet normal -9.659259e-001  2.588188e-001  0.000000e+000
    outer loop
      vertex -1.783494e+001 -6.125000e+001  0.000000e+000
      vertex -1.750000e+001 -6.000000e+001  2.000000e+000
      vertex -1.750000e+001 -6.000000e+001  0.000000e+000
    endloop
  endfacet
  facet normal -2.588202e-001  9.659255e-001  0.000000e+000
    outer loop
      vertex -1.875000e+001 -6.216506e+001  2.000000e+000
      vertex -2.000000e+001 -6.250000e+001  0.000000e+000
      vertex -2.000000e+001 -6.250000e+001  2.000000e+000
    endloop
  endfacet
  facet normal  2.588202e-001  9.659255e-001  0.000000e+000
    outer loop
      vertex -2.000000e+001 -6.250000e+001  2.000000e+000
      vertex -2.000000e+001 -6.250000e+001  0.000000e+000
      vertex -2.125000e+001 -6.216506e+001  0.000000e+000
    endloop
  endfacet
  facet normal  2.588202e-001  9.659255e-001  -0.000000e+000
    outer loop
      vertex -2.000000e+001 -6.250000e+001  2.000000e+000
      vertex -2.125000e+001 -6.216506e+001  0.000000e+000
      vertex -2.125000e+001 -6.216506e+001  2.000000e+000
    endloop
  endfacet
  facet normal  7.071061e-001  7.071075e-001  0.000000e+000
    outer loop
      vertex -2.125000e+001 -6.216506e+001  2.000000e+000
      vertex -2.125000e+001 -6.216506e+001  0.000000e+000
      vertex -2.216506e+001 -6.125000e+001  0.000000e+000
    endloop
  endfacet
  facet normal  7.071061e-001  7.071075e-001  -0.000000e+000
    outer loop
      vertex -2.125000e+001 -6.216506e+001  2.000000e+000
      vertex -2.216506e+001 -6.125000e+001  0.000000e+000
      vertex -2.216506e+001 -6.125000e+001  2.000000e+000
    endloop
  endfacet
  facet normal  9.659259e-001  2.588188e-001  0.000000e+000
    outer loop
      vertex -2.216506e+001 -6.125000e+001  2.000000e+000
      vertex -2.216506e+001 -6.125000e+001  0.000000e+000
      vertex -2.250000e+001 -6.000000e+001  0.000000e+000
    endloop
  endfacet
  facet normal  9.659259e-001  2.588188e-001  -0.000000e+000
    outer loop
      vertex -2.216506e+001 -6.125000e+001  2.000000e+000
      vertex -2.250000e+001 -6.000000e+001  0.000000e+000
      vertex -2.250000e+001 -6.000000e+001  2.000000e+000
    endloop
  endfacet
  facet normal  2.588202e-001 -9.659255e-001  0.000000e+000
    outer loop
      vertex -2.000000e+001 -5.750000e+001  0.000000e+000
      vertex -2.125000e+001 -5.783494e+001  2.000000e+000
      vertex -2.125000e+001 -5.783494e+001  0.000000e+000
    endloop
  endfacet
  facet normal  7.071061e-001 -7.071075e-001  0.000000e+000
    outer loop
      vertex -2.125000e+001 -5.783494e+001  0.000000e+000
      vertex -2.125000e+001 -5.783494e+001  2.000000e+000
      vertex -2.216506e+001 -5.875000e+001  2.000000e+000
    endloop
  endfacet
  facet normal  7.071061e-001 -7.071075e-001  0.000000e+000
    outer loop
      vertex -2.125000e+001 -5.783494e+001  0.000000e+000
      vertex -2.216506e+001 -5.875000e+001  2.000000e+000
      vertex -2.216506e+001 -5.875000e+001  0.000000e+000
    endloop
  endfacet
  facet normal  9.659259e-001 -2.588188e-001  0.000000e+000
    outer loop
      vertex -2.216506e+001 -5.875000e+001  0.000000e+000
      vertex -2.216506e+001 -5.875000e+001  2.000000e+000
      vertex -2.250000e+001 -6.000000e+001  2.000000e+000
    endloop
  endfacet
  facet normal  9.659259e-001 -2.588188e-001  0.000000e+000
    outer loop
      vertex -2.216506e+001 -5.875000e+001  0.000000e+000
      vertex -2.250000e+001 -6.000000e+001  2.000000e+000
      vertex -2.250000e+001 -6.000000e+001  0.000000e+000
    endloop
  endfacet
  facet normal  2.588202e-001 -9.659255e-001  0.000000e+000
    outer loop
      vertex -2.125000e+001 -5.783494e+001  2.000000e+000
      vertex -2.000000e+001 -5.750000e+001  0.000000e+000
      vertex -2.000000e+001 -5.750000e+001  2.000000e+000
    endloop
  endfacet
  facet normal -2.588202e-001 -9.659255e-001  -0.000000e+000
    outer loop
      vertex -2.000000e+001 -5.750000e+001  2.000000e+000
      vertex -2.000000e+001 -5.750000e+001  0.000000e+000
      vertex -1.875000e+001 -5.783494e+001  0.000000e+000
    endloop
  endfacet
  facet normal -2.588202e-001 -9.659255e-001  0.000000e+000
    outer loop
      vertex -2.000000e+001 -5.750000e+001  2.000000e+000
      vertex -1.875000e+001 -5.783494e+001  0.000000e+000
      vertex -1.875000e+001 -5.783494e+001  2.000000e+000
    endloop
  endfacet
  facet normal -7.071061e-001 -7.071075e-001  -0.000000e+000
    outer loop
      vertex -1.875000e+001 -5.783494e+001  2.000000e+000
      vertex -1.875000e+001 -5.783494e+001  0.000000e+000
      vertex -1.783494e+001 -5.875000e+001  0.000000e+000
    endloop
  endfacet
  facet normal -7.071061e-001 -7.071075e-001  0.000000e+000
    outer loop
      vertex -1.875000e+001 -5.783494e+001  2.000000e+000
      vertex -1.783494e+001 -5.875000e+001  0.000000e+000
      vertex -1.783494e+001 -5.875000e+001  2.000000e+000
    endloop
  endfacet
  facet normal -9.659259e-001 -2.588188e-001  -0.000000e+000
    outer loop
      vertex -1.783494e+001 -5.875000e+001  2.000000e+000
      vertex -1.783494e+001 -5.875000e+001  0.000000e+000
      vertex -1.750000e+001 -6.000000e+001  0.000000e+000
    endloop
  endfacet
  facet normal -9.659259e-001 -2.588188e-001  0.000000e+000
    outer loop
      vertex -1.783494e+001 -5.875000e+001  2.000000e+000
      vertex -1.750000e+001 -6.000000e+001  0.000000e+000
      vertex -1.750000e+001 -6.000000e+001  2.000000e+000
    endloop
  endfacet
  facet normal  0.000000e+000  0.000000e+000 -1.000000e+000
    outer loop
      vertex -2.800000e+001 -5.750000e+001  2.000000e+000
      vertex -2.675000e+001 -5.783494e+001  2.000000e+000
      vertex -2.925000e+001 -5.783494e+001  2.000000e+000
    endloop
  endfacet
  facet normal  0.000000e+000  0.000000e+000 -1.000000e+000
    outer loop
      vertex -2.800000e+001 -6.250000e+001  2.000000e+000
      vertex -2.925000e+001 -6.216506e+001  2.000000e+000
      vertex -2.675000e+001 -6.216506e+001  2.000000e+000
    endloop
  endfacet
  facet normal  0.000000e+000  0.000000e+000 -1.000000e+000
    outer loop
      vertex -2.675000e+001 -6.216506e+001  2.000000e+000
      vertex -2.925000e+001 -6.216506e+001  2.000000e+000
      vertex -3.016506e+001 -6.125000e+001  2.000000e+000
    endloop
  endfacet
  facet normal  0.000000e+000  0.000000e+000 -1.000000e+000
    outer loop
      vertex -2.675000e+001 -6.216506e+001  2.000000e+000
      vertex -3.016506e+001 -6.125000e+001  2.000000e+000
      vertex -2.583494e+001 -6.125000e+001  2.000000e+000
    endloop
  endfacet
  facet normal  0.000000e+000  0.000000e+000 -1.000000e+000
    outer loop
      vertex -2.583494e+001 -6.125000e+001  2.000000e+000
      vertex -3.016506e+001 -6.125000e+001  2.000000e+000
      vertex -3.050000e+001 -6.000000e+001  2.000000e+000
    endloop
  endfacet
  facet normal  0.000000e+000  0.000000e+000 -1.000000e+000
    outer loop
      vertex -2.583494e+001 -6.125000e+001  2.000000e+000
      vertex -3.050000e+001 -6.000000e+001  2.000000e+000
      vertex -2.550000e+001 -6.000000e+001  2.000000e+000
    endloop
  endfacet
  facet normal  0.000000e+000  0.000000e+000 -1.000000e+000
    outer loop
      vertex -2.550000e+001 -6.000000e+001  2.000000e+000
      vertex -3.050000e+001 -6.000000e+001  2.000000e+000
      vertex -3.016506e+001 -5.875000e+001  2.000000e+000
    endloop
  endfacet
  facet normal  0.000000e+000  0.000000e+000 -1.000000e+000
    outer loop
      vertex -2.550000e+001 -6.000000e+001  2.000000e+000
      vertex -3.016506e+001 -5.875000e+001  2.000000e+000
      vertex -2.583494e+001 -5.875000e+001  2.000000e+000
    endloop
  endfacet
  facet normal  0.000000e+000  0.000000e+000 -1.000000e+000
    outer loop
      vertex -2.583494e+001 -5.875000e+001  2.000000e+000
      vertex -3.016506e+001 -5.875000e+001  2.000000e+000
      vertex -2.925000e+001 -5.783494e+001  2.000000e+000
    endloop
  endfacet
  facet normal  0.000000e+000  0.000000e+000 -1.000000e+000
    outer loop
      vertex -2.583494e+001 -5.875000e+001  2.000000e+000
      vertex -2.925000e+001 -5.783494e+001  2.000000e+000
      vertex -2.675000e+001 -5.783494e+001  2.000000e+000
    endloop
  endfacet
  facet normal  0.000000e+000  0.000000e+000 -1.000000e+000
    outer loop
      vertex -2.000000e+001 -5.750000e+001  2.000000e+000
      vertex -1.875000e+001 -5.783494e+001  2.000000e+000
      vertex -2.125000e+001 -5.783494e+001  2.000000e+000
    endloop
  endfacet
  facet normal  0.000000e+000  0.000000e+000 -1.000000e+000
    outer loop
      vertex -2.000000e+001 -6.250000e+001  2.000000e+000
      vertex -2.125000e+001 -6.216506e+001  2.000000e+000
      vertex -1.875000e+001 -6.216506e+001  2.000000e+000
    endloop
  endfacet
  facet normal  0.000000e+000  0.000000e+000 -1.000000e+000
    outer loop
      vertex -1.875000e+001 -6.216506e+001  2.000000e+000
      vertex -2.125000e+001 -6.216506e+001  2.000000e+000
      vertex -2.216506e+001 -6.125000e+001  2.000000e+000
    endloop
  endfacet
  facet normal  0.000000e+000  0.000000e+000 -1.000000e+000
    outer loop
      vertex -1.875000e+001 -6.216506e+001  2.000000e+000
      vertex -2.216506e+001 -6.125000e+001  2.000000e+000
      vertex -1.783494e+001 -6.125000e+001  2.000000e+000
    endloop
  endfacet
  facet normal  0.000000e+000  0.000000e+000 -1.000000e+000
    outer loop
      vertex -1.783494e+001 -6.125000e+001  2.000000e+000
      vertex -2.216506e+001 -6.125000e+001  2.000000e+000
      vertex -2.250000e+001 -6.000000e+001  2.000000e+000
    endloop
  endfacet
  facet normal  0.000000e+000  0.000000e+000 -1.000000e+000
    outer loop
      vertex -1.783494e+001 -6.125000e+001  2.000000e+000
      vertex -2.250000e+001 -6.000000e+001  2.000000e+000
      vertex -1.750000e+001 -6.000000e+001  2.000000e+000
    endloop
  endfacet
  facet normal  0.000000e+000  0.000000e+000 -1.000000e+000
    outer loop
      vertex -1.750000e+001 -6.000000e+001  2.000000e+000
      vertex -2.250000e+001 -6.000000e+001  2.000000e+000
      vertex -2.216506e+001 -5.875000e+001  2.000000e+000
    endloop
  endfacet
  facet normal  0.000000e+000  0.000000e+000 -1.000000e+000
    outer loop
      vertex -1.750000e+001 -6.000000e+001  2.000000e+000
      vertex -2.216506e+001 -5.875000e+001  2.000000e+000
      vertex -1.783494e+001 -5.875000e+001  2.000000e+000
    endloop
  endfacet
  facet normal  0.000000e+000  0.000000e+000 -1.000000e+000
    outer loop
      vertex -1.783494e+001 -5.875000e+001  2.000000e+000
      vertex -2.216506e+001 -5.875000e+001  2.000000e+000
      vertex -2.125000e+001 -5.783494e+001  2.000000e+000
    endloop
  endfacet
  facet normal  0.000000e+000  0.000000e+000 -1.000000e+000
    outer loop
      vertex -1.783494e+001 -5.875000e+001  2.000000e+000
      vertex -2.125000e+001 -5.783494e+001  2.000000e+000
      vertex -1.875000e+001 -5.783494e+001  2.000000e+000
    endloop
  endfacet
  facet normal -1.000000e+000  -0.000000e+000  0.000000e+000
    outer loop
      vertex -3.165646e+001 -6.319850e+001  3.285532e+000
      vertex -3.165646e+001 -5.325758e+001  3.285532e+000
      vertex -3.165646e+001 -6.319850e+001  0.000000e+000
    endloop
  endfacet
  facet normal -1.000000e+000  0.000000e+000  0.000000e+000
    outer loop
      vertex -3.165646e+001 -6.319850e+001  0.000000e+000
      vertex -3.165646e+001 -5.325758e+001  3.285532e+000
      vertex -3.165646e+001 -5.643827e+001 -1.064436e-018
    endloop
  endfacet
  facet normal -9.999999e-001  -0.000000e+000  0.000000e+000
    outer loop
      vertex -3.165646e+001 -5.325758e+001  3.285532e+000
      vertex -3.165646e+001 -5.418101e+001  1.357758e+000
      vertex -3.165646e+001 -5.643827e+001 -1.064436e-018
    endloop
  endfacet
  facet normal -1.000000e+000  0.000000e+000  0.000000e+000
    outer loop
      vertex -3.165646e+001 -5.643827e+001 -1.064436e-018
      vertex -3.165646e+001 -5.418101e+001  1.357758e+000
      vertex -3.165646e+001 -5.512120e+001  3.655936e-001
    endloop
  endfacet
  facet normal  1.000000e+000  0.000000e+000  0.000000e+000
    outer loop
      vertex -1.610902e+001 -6.319850e+001  7.705801e-015
      vertex -1.610902e+001 -5.643827e+001  1.562841e-016
      vertex -1.610902e+001 -6.319850e+001  3.285532e+000
    endloop
  endfacet
  facet normal  1.000000e+000  -0.000000e+000  0.000000e+000
    outer loop
      vertex -1.610902e+001 -6.319850e+001  3.285532e+000
      vertex -1.610902e+001 -5.643827e+001  1.562841e-016
      vertex -1.610902e+001 -5.325758e+001  3.285532e+000
    endloop
  endfacet
  facet normal  1.000000e+000  0.000000e+000  -0.000000e+000
    outer loop
      vertex -1.610902e+001 -5.643827e+001  1.562841e-016
      vertex -1.610902e+001 -5.512120e+001  3.655936e-001
      vertex -1.610902e+001 -5.325758e+001  3.285532e+000
    endloop
  endfacet
  facet normal  1.000000e+000  0.000000e+000  0.000000e+000
    outer loop
      vertex -1.610902e+001 -5.325758e+001  3.285532e+000
      vertex -1.610902e+001 -5.512120e+001  3.655936e-001
      vertex -1.610902e+001 -5.418101e+001  1.357758e+000
    endloop
  endfacet
  facet normal  -0.000000e+000 -1.000000e+000  -0.000000e+000
    outer loop
      vertex -1.959197e+001 -6.319850e+001  3.285532e+000
      vertex -1.959197e+001 -6.319850e+001  6.211701e+000
      vertex -2.755612e+001 -6.319850e+001  6.211701e+000
    endloop
  endfacet
  facet normal  0.000000e+000 -1.000000e+000  0.000000e+000
    outer loop
      vertex -1.959197e+001 -6.319850e+001  3.285532e+000
      vertex -2.755612e+001 -6.319850e+001  6.211701e+000
      vertex -2.755612e+001 -6.319850e+001  3.285532e+000
    endloop
  endfacet
  facet normal  0.000000e+000 -1.000000e+000  0.000000e+000
    outer loop
      vertex -1.959197e+001 -6.319850e+001  3.285532e+000
      vertex -2.755612e+001 -6.319850e+001  3.285532e+000
      vertex -1.610902e+001 -6.319850e+001  7.705801e-015
    endloop
  endfacet
  facet normal  0.000000e+000 -1.000000e+000  0.000000e+000
    outer loop
      vertex -1.959197e+001 -6.319850e+001  3.285532e+000
      vertex -1.610902e+001 -6.319850e+001  7.705801e-015
      vertex -1.610902e+001 -6.319850e+001  3.285532e+000
    endloop
  endfacet
  facet normal  -0.000000e+000 -1.000000e+000  0.000000e+000
    outer loop
      vertex -3.165646e+001 -6.319850e+001  0.000000e+000
      vertex -1.610902e+001 -6.319850e+001  7.705801e-015
      vertex -3.165646e+001 -6.319850e+001  3.285532e+000
    endloop
  endfacet
  facet normal  0.000000e+000 -1.000000e+000  0.000000e+000
    outer loop
      vertex -3.165646e+001 -6.319850e+001  3.285532e+000
      vertex -1.610902e+001 -6.319850e+001  7.705801e-015
      vertex -2.755612e+001 -6.319850e+001  3.285532e+000
    endloop
  endfacet
  facet normal -1.000000e+000  -0.000000e+000  0.000000e+000
    outer loop
      vertex -3.055251e+001 -5.621612e+001  3.503697e+001
      vertex -3.055251e+001 -4.800000e+001  3.503697e+001
      vertex -3.055251e+001 -5.623909e+001  3.334601e+001
    endloop
  endfacet
  facet normal -1.000000e+000  0.000000e+000  0.000000e+000
    outer loop
      vertex -3.055251e+001 -5.623909e+001  3.334601e+001
      vertex -3.055251e+001 -4.800000e+001  3.503697e+001
      vertex -3.055251e+001 -4.800000e+001  3.334601e+001
    endloop
  endfacet
  facet normal -5.631059e-001  1.156200e-003 -8.263840e-001
    outer loop
      vertex -2.875325e+001 -5.447050e+001  3.268063e+001
      vertex -2.857519e+001 -4.800000e+001  3.256835e+001
      vertex -2.841636e+001 -5.422241e+001  3.245142e+001
    endloop
  endfacet
  facet normal -6.581985e-001 -2.653082e-003 -7.528398e-001
    outer loop
      vertex -2.841636e+001 -5.422241e+001  3.245142e+001
      vertex -2.857519e+001 -4.800000e+001  3.256835e+001
      vertex -2.815190e+001 -4.800000e+001  3.219827e+001
    endloop
  endfacet
  facet normal -6.914798e-001  -0.000000e+000 -7.223958e-001
    outer loop
      vertex -2.841636e+001 -5.422241e+001  3.245142e+001
      vertex -2.815190e+001 -4.800000e+001  3.219827e+001
      vertex -2.815190e+001 -5.403290e+001  3.219827e+001
    endloop
  endfacet
  facet normal -3.086548e-001 -3.973884e-003 -9.511659e-001
    outer loop
      vertex -2.920180e+001 -4.800000e+001  3.290770e+001
      vertex -2.990775e+001 -5.558140e+001  3.316846e+001
      vertex -3.055251e+001 -4.800000e+001  3.334601e+001
    endloop
  endfacet
  facet normal -2.752388e-001 -8.929119e-004 -9.613755e-001
    outer loop
      vertex -3.055251e+001 -4.800000e+001  3.334601e+001
      vertex -2.990775e+001 -5.558140e+001  3.316846e+001
      vertex -3.031911e+001 -5.623990e+001  3.328684e+001
    endloop
  endfacet
  facet normal -2.457345e-001  0.000000e+000 -9.693372e-001
    outer loop
      vertex -3.055251e+001 -4.800000e+001  3.334601e+001
      vertex -3.031911e+001 -5.623990e+001  3.328684e+001
      vertex -3.055251e+001 -5.623909e+001  3.334601e+001
    endloop
  endfacet
  facet normal -4.761674e-001  1.409810e-002 -8.792416e-001
    outer loop
      vertex -2.920180e+001 -4.800000e+001  3.290770e+001
      vertex -2.857519e+001 -4.800000e+001  3.256835e+001
      vertex -2.990775e+001 -5.558140e+001  3.316846e+001
    endloop
  endfacet
  facet normal -3.847818e-001 -5.427590e-003 -9.229916e-001
    outer loop
      vertex -2.990775e+001 -5.558140e+001  3.316846e+001
      vertex -2.857519e+001 -4.800000e+001  3.256835e+001
      vertex -2.875325e+001 -5.447050e+001  3.268063e+001
    endloop
  endfacet
  facet normal -9.781098e-001  5.429708e-006 -2.080894e-001
    outer loop
      vertex -2.786469e+001 -4.950864e+001  3.161182e+001
      vertex -2.770233e+001 -4.944988e+001  3.084864e+001
      vertex -2.786481e+001 -5.378036e+001  3.161227e+001
    endloop
  endfacet
  facet normal -9.944726e-001  1.910785e-002 -1.032425e-001
    outer loop
      vertex -2.786481e+001 -5.378036e+001  3.161227e+001
      vertex -2.770233e+001 -4.944988e+001  3.084864e+001
      vertex -2.760997e+001 -4.939225e+001  2.996964e+001
    endloop
  endfacet
  facet normal -9.859483e-001 -5.242070e-003 -1.669685e-001
    outer loop
      vertex -2.786481e+001 -5.378036e+001  3.161227e+001
      vertex -2.760997e+001 -4.939225e+001  2.996964e+001
      vertex -2.762963e+001 -5.360040e+001  3.021787e+001
    endloop
  endfacet
  facet normal -9.995311e-001  2.872243e-003 -3.048358e-002
    outer loop
      vertex -2.762963e+001 -5.360040e+001  3.021787e+001
      vertex -2.760997e+001 -4.939225e+001  2.996964e+001
      vertex -2.755612e+001 -4.930928e+001  2.821182e+001
    endloop
  endfacet
  facet normal -9.993293e-001  -0.000000e+000 -3.662016e-002
    outer loop
      vertex -2.762963e+001 -5.360040e+001  3.021787e+001
      vertex -2.755612e+001 -4.930928e+001  2.821182e+001
      vertex -2.755612e+001 -5.358472e+001  2.821182e+001
    endloop
  endfacet
  facet normal -8.980204e-001 -2.091334e-005 -4.399538e-001
    outer loop
      vertex -2.786481e+001 -5.378036e+001  3.161227e+001
      vertex -2.815190e+001 -5.403290e+001  3.219827e+001
      vertex -2.786469e+001 -4.950864e+001  3.161182e+001
    endloop
  endfacet
  facet normal -9.316577e-001  1.207162e-002 -3.631366e-001
    outer loop
      vertex -2.786469e+001 -4.950864e+001  3.161182e+001
      vertex -2.815190e+001 -5.403290e+001  3.219827e+001
      vertex -2.800801e+001 -4.953976e+001  3.197847e+001
    endloop
  endfacet
  facet normal -8.366632e-001  -0.000000e+000 -5.477175e-001
    outer loop
      vertex -2.815190e+001 -5.403290e+001  3.219827e+001
      vertex -2.815190e+001 -4.800000e+001  3.219827e+001
      vertex -2.800801e+001 -4.953976e+001  3.197847e+001
    endloop
  endfacet
  facet normal -8.366632e-001  0.000000e+000 -5.477176e-001
    outer loop
      vertex -2.800801e+001 -4.953976e+001  3.197847e+001
      vertex -2.815190e+001 -4.800000e+001  3.219827e+001
      vertex -2.800801e+001 -4.800000e+001  3.197847e+001
    endloop
  endfacet
  facet normal  0.000000e+000  0.000000e+000  9.999999e-001
    outer loop
      vertex -3.055251e+001 -5.621612e+001  3.503697e+001
      vertex -1.600000e+001 -5.621612e+001  3.503697e+001
      vertex -3.055251e+001 -4.800000e+001  3.503697e+001
    endloop
  endfacet
  facet normal  -0.000000e+000  0.000000e+000  9.999999e-001
    outer loop
      vertex -3.055251e+001 -4.800000e+001  3.503697e+001
      vertex -1.600000e+001 -5.621612e+001  3.503697e+001
      vertex -1.600000e+001 -4.800000e+001  3.503697e+001
    endloop
  endfacet
  facet normal  -0.000000e+000  0.000000e+000 -9.999999e-001
    outer loop
      vertex -2.800801e+001 -4.800000e+001  3.197847e+001
      vertex -1.959197e+001 -4.800000e+001  3.197847e+001
      vertex -2.800801e+001 -4.953976e+001  3.197847e+001
    endloop
  endfacet
  facet normal  0.000000e+000  0.000000e+000 -9.999999e-001
    outer loop
      vertex -2.800801e+001 -4.953976e+001  3.197847e+001
      vertex -1.959197e+001 -4.800000e+001  3.197847e+001
      vertex -1.959197e+001 -4.953976e+001  3.197847e+001
    endloop
  endfacet
  facet normal  -0.000000e+000 -8.796362e-001 -4.756471e-001
    outer loop
      vertex -1.959197e+001 -5.391446e+001  3.197923e+001
      vertex -1.600000e+001 -5.391446e+001  3.197923e+001
      vertex -2.815190e+001 -5.403290e+001  3.219827e+001
    endloop
  endfacet
  facet normal -1.682776e-003 -8.376024e-001 -5.462776e-001
    outer loop
      vertex -2.815190e+001 -5.403290e+001  3.219827e+001
      vertex -1.600000e+001 -5.391446e+001  3.197923e+001
      vertex -1.600000e+001 -5.422241e+001  3.245142e+001
    endloop
  endfacet
  facet normal  -0.000000e+000 -8.005252e-001 -5.992991e-001
    outer loop
      vertex -2.815190e+001 -5.403290e+001  3.219827e+001
      vertex -1.600000e+001 -5.422241e+001  3.245142e+001
      vertex -2.841636e+001 -5.422241e+001  3.245142e+001
    endloop
  endfacet
  facet normal  2.613999e-003 -9.188163e-001 -3.946771e-001
    outer loop
      vertex -2.815190e+001 -5.403290e+001  3.219827e+001
      vertex -2.786481e+001 -5.378036e+001  3.161227e+001
      vertex -1.959197e+001 -5.391446e+001  3.197923e+001
    endloop
  endfacet
  facet normal -1.706265e-003 -9.510419e-001 -3.090573e-001
    outer loop
      vertex -1.959197e+001 -5.391446e+001  3.197923e+001
      vertex -2.786481e+001 -5.378036e+001  3.161227e+001
      vertex -1.959197e+001 -5.373122e+001  3.141537e+001
    endloop
  endfacet
  facet normal  2.856662e-003 -9.918309e-001 -1.275274e-001
    outer loop
      vertex -2.786481e+001 -5.378036e+001  3.161227e+001
      vertex -2.762963e+001 -5.360040e+001  3.021787e+001
      vertex -1.959197e+001 -5.373122e+001  3.141537e+001
    endloop
  endfacet
  facet normal  0.000000e+000 -9.940856e-001 -1.085997e-001
    outer loop
      vertex -1.959197e+001 -5.373122e+001  3.141537e+001
      vertex -2.762963e+001 -5.360040e+001  3.021787e+001
      vertex -1.959197e+001 -5.360040e+001  3.021787e+001
    endloop
  endfacet
  facet normal -4.010330e-003 -2.715010e-001 -9.624298e-001
    outer loop
      vertex -1.600000e+001 -5.481233e+001  3.289355e+001
      vertex -1.600000e+001 -5.617792e+001  3.327878e+001
      vertex -2.990775e+001 -5.558140e+001  3.316846e+001
    endloop
  endfacet
  facet normal  2.337760e-003 -1.289005e-001 -9.916548e-001
    outer loop
      vertex -2.990775e+001 -5.558140e+001  3.316846e+001
      vertex -1.600000e+001 -5.617792e+001  3.327878e+001
      vertex -1.600000e+001 -5.623990e+001  3.328684e+001
    endloop
  endfacet
  facet normal  -0.000000e+000 -1.769388e-001 -9.842219e-001
    outer loop
      vertex -2.990775e+001 -5.558140e+001  3.316846e+001
      vertex -1.600000e+001 -5.623990e+001  3.328684e+001
      vertex -3.031911e+001 -5.623990e+001  3.328684e+001
    endloop
  endfacet
  facet normal  4.379328e-003 -4.058774e-001 -9.139170e-001
    outer loop
      vertex -2.990775e+001 -5.558140e+001  3.316846e+001
      vertex -2.875325e+001 -5.447050e+001  3.268063e+001
      vertex -1.600000e+001 -5.481233e+001  3.289355e+001
    endloop
  endfacet
  facet normal -5.748432e-003 -6.743799e-001 -7.383621e-001
    outer loop
      vertex -1.600000e+001 -5.481233e+001  3.289355e+001
      vertex -2.875325e+001 -5.447050e+001  3.268063e+001
      vertex -2.841636e+001 -5.422241e+001  3.245142e+001
    endloop
  endfacet
  facet normal  0.000000e+000 -5.997351e-001 -8.001987e-001
    outer loop
      vertex -1.600000e+001 -5.481233e+001  3.289355e+001
      vertex -2.841636e+001 -5.422241e+001  3.245142e+001
      vertex -1.600000e+001 -5.422241e+001  3.245142e+001
    endloop
  endfacet
  facet normal -3.999327e-006 -9.999077e-001  1.358622e-002
    outer loop
      vertex -3.055251e+001 -5.623909e+001  3.334601e+001
      vertex -3.031911e+001 -5.623990e+001  3.328684e+001
      vertex -3.055251e+001 -5.621612e+001  3.503697e+001
    endloop
  endfacet
  facet normal  0.000000e+000 -9.999077e-001  1.358675e-002
    outer loop
      vertex -3.055251e+001 -5.621612e+001  3.503697e+001
      vertex -3.031911e+001 -5.623990e+001  3.328684e+001
      vertex -1.600000e+001 -5.623990e+001  3.328684e+001
    endloop
  endfacet
  facet normal  0.000000e+000 -9.999078e-001  1.358675e-002
    outer loop
      vertex -3.055251e+001 -5.621612e+001  3.503697e+001
      vertex -1.600000e+001 -5.623990e+001  3.328684e+001
      vertex -1.600000e+001 -5.621612e+001  3.503697e+001
    endloop
  endfacet
  facet normal  0.000000e+000 -1.748340e-004 -1.000000e+000
    outer loop
      vertex -1.959197e+001 -5.391446e+001  3.197923e+001
      vertex -1.959197e+001 -4.953976e+001  3.197847e+001
      vertex -1.600000e+001 -5.391446e+001  3.197923e+001
    endloop
  endfacet
  facet normal  2.129325e-004  0.000000e+000 -1.000000e+000
    outer loop
      vertex -1.600000e+001 -5.391446e+001  3.197923e+001
      vertex -1.959197e+001 -4.953976e+001  3.197847e+001
      vertex -1.959197e+001 -4.800000e+001  3.197847e+001
    endloop
  endfacet
  facet normal  2.129325e-004  0.000000e+000 -1.000000e+000
    outer loop
      vertex -1.600000e+001 -5.391446e+001  3.197923e+001
      vertex -1.959197e+001 -4.800000e+001  3.197847e+001
      vertex -1.600000e+001 -4.800000e+001  3.197923e+001
    endloop
  endfacet
  facet normal  0.000000e+000  9.999999e-001  0.000000e+000
    outer loop
      vertex -2.800801e+001 -4.800000e+001  3.197847e+001
      vertex -2.815190e+001 -4.800000e+001  3.219827e+001
      vertex -1.959197e+001 -4.800000e+001  3.197847e+001
    endloop
  endfacet
  facet normal  0.000000e+000  1.000000e+000  -0.000000e+000
    outer loop
      vertex -1.600000e+001 -4.800000e+001  3.197923e+001
      vertex -1.959197e+001 -4.800000e+001  3.197847e+001
      vertex -2.815190e+001 -4.800000e+001  3.219827e+001
    endloop
  endfacet
  facet normal  -0.000000e+000  1.000000e+000  -0.000000e+000
    outer loop
      vertex -1.600000e+001 -4.800000e+001  3.197923e+001
      vertex -2.815190e+001 -4.800000e+001  3.219827e+001
      vertex -2.857519e+001 -4.800000e+001  3.256835e+001
    endloop
  endfacet
  facet normal  -0.000000e+000  9.999999e-001  -0.000000e+000
    outer loop
      vertex -1.600000e+001 -4.800000e+001  3.197923e+001
      vertex -2.857519e+001 -4.800000e+001  3.256835e+001
      vertex -2.920180e+001 -4.800000e+001  3.290770e+001
    endloop
  endfacet
  facet normal  -0.000000e+000  1.000000e+000  -0.000000e+000
    outer loop
      vertex -1.600000e+001 -4.800000e+001  3.197923e+001
      vertex -2.920180e+001 -4.800000e+001  3.290770e+001
      vertex -3.055251e+001 -4.800000e+001  3.334601e+001
    endloop
  endfacet
  facet normal  -0.000000e+000  1.000000e+000  0.000000e+000
    outer loop
      vertex -1.600000e+001 -4.800000e+001  3.197923e+001
      vertex -3.055251e+001 -4.800000e+001  3.334601e+001
      vertex -3.055251e+001 -4.800000e+001  3.503697e+001
    endloop
  endfacet
  facet normal  -0.000000e+000  1.000000e+000  0.000000e+000
    outer loop
      vertex -1.600000e+001 -4.800000e+001  3.197923e+001
      vertex -3.055251e+001 -4.800000e+001  3.503697e+001
      vertex -1.600000e+001 -4.800000e+001  3.503697e+001
    endloop
  endfacet
  facet normal  9.999999e-001  0.000000e+000  0.000000e+000
    outer loop
      vertex -1.600000e+001 -5.623990e+001  3.328684e+001
      vertex -1.600000e+001 -5.617792e+001  3.327878e+001
      vertex -1.600000e+001 -5.621612e+001  3.503697e+001
    endloop
  endfacet
  facet normal  9.999999e-001  0.000000e+000  0.000000e+000
    outer loop
      vertex -1.600000e+001 -5.617792e+001  3.327878e+001
      vertex -1.600000e+001 -5.481233e+001  3.289355e+001
      vertex -1.600000e+001 -5.621612e+001  3.503697e+001
    endloop
  endfacet
  facet normal  1.000000e+000  0.000000e+000  -0.000000e+000
    outer loop
      vertex -1.600000e+001 -5.422241e+001  3.245142e+001
      vertex -1.600000e+001 -5.391446e+001  3.197923e+001
      vertex -1.600000e+001 -4.800000e+001  3.197923e+001
    endloop
  endfacet
  facet normal  1.000000e+000  0.000000e+000  -0.000000e+000
    outer loop
      vertex -1.600000e+001 -5.422241e+001  3.245142e+001
      vertex -1.600000e+001 -4.800000e+001  3.197923e+001
      vertex -1.600000e+001 -4.800000e+001  3.503697e+001
    endloop
  endfacet
  facet normal  1.000000e+000  0.000000e+000  0.000000e+000
    outer loop
      vertex -1.600000e+001 -5.422241e+001  3.245142e+001
      vertex -1.600000e+001 -4.800000e+001  3.503697e+001
      vertex -1.600000e+001 -5.621612e+001  3.503697e+001
    endloop
  endfacet
  facet normal  1.000000e+000  0.000000e+000  0.000000e+000
    outer loop
      vertex -1.600000e+001 -5.422241e+001  3.245142e+001
      vertex -1.600000e+001 -5.621612e+001  3.503697e+001
      vertex -1.600000e+001 -5.481233e+001  3.289355e+001
    endloop
  endfacet
  facet normal  1.000000e+000  0.000000e+000  0.000000e+000
    outer loop
      vertex -1.959197e+001 -4.953976e+001  3.197847e+001
      vertex -1.959197e+001 -5.391446e+001  3.197923e+001
      vertex -1.959197e+001 -5.373122e+001  3.141537e+001
    endloop
  endfacet
  facet normal  9.999999e-001  -0.000000e+000  0.000000e+000
    outer loop
      vertex -1.959197e+001 -4.953976e+001  3.197847e+001
      vertex -1.959197e+001 -5.373122e+001  3.141537e+001
      vertex -1.959197e+001 -5.360040e+001  3.021787e+001
    endloop
  endfacet
  facet normal  9.999999e-001  -0.000000e+000  0.000000e+000
    outer loop
      vertex -1.959197e+001 -4.953976e+001  3.197847e+001
      vertex -1.959197e+001 -5.360040e+001  3.021787e+001
      vertex -1.959197e+001 -4.983197e+001  1.761025e+001
    endloop
  endfacet
  facet normal  9.999999e-001  0.000000e+000  0.000000e+000
    outer loop
      vertex -1.959197e+001 -4.953976e+001  3.197847e+001
      vertex -1.959197e+001 -4.983197e+001  1.761025e+001
      vertex -1.959197e+001 -4.949578e+001  2.049509e+001
    endloop
  endfacet
  facet normal  1.000000e+000  0.000000e+000  -0.000000e+000
    outer loop
      vertex -1.959197e+001 -4.953976e+001  3.197847e+001
      vertex -1.959197e+001 -4.949578e+001  2.049509e+001
      vertex -1.959197e+001 -4.926815e+001  2.623831e+001
    endloop
  endfacet
  facet normal  1.000000e+000  0.000000e+000  -0.000000e+000
    outer loop
      vertex -1.959197e+001 -5.360040e+001  3.021787e+001
      vertex -1.959197e+001 -5.325758e+001  3.285532e+000
      vertex -1.959197e+001 -5.222791e+001  6.094025e+000
    endloop
  endfacet
  facet normal  1.000000e+000  0.000000e+000  -0.000000e+000
    outer loop
      vertex -1.959197e+001 -5.360040e+001  3.021787e+001
      vertex -1.959197e+001 -5.222791e+001  6.094025e+000
      vertex -1.959197e+001 -5.169333e+001  8.004503e+000
    endloop
  endfacet
  facet normal  1.000000e+000  0.000000e+000  -0.000000e+000
    outer loop
      vertex -1.959197e+001 -5.360040e+001  3.021787e+001
      vertex -1.959197e+001 -5.169333e+001  8.004503e+000
      vertex -1.959197e+001 -5.083240e+001  1.190462e+001
    endloop
  endfacet
  facet normal  1.000000e+000  0.000000e+000  -0.000000e+000
    outer loop
      vertex -1.959197e+001 -5.360040e+001  3.021787e+001
      vertex -1.959197e+001 -5.083240e+001  1.190462e+001
      vertex -1.959197e+001 -4.983197e+001  1.761025e+001
    endloop
  endfacet
  facet normal  1.000000e+000  0.000000e+000  0.000000e+000
    outer loop
      vertex -1.959197e+001 -6.319850e+001  3.285532e+000
      vertex -1.959197e+001 -5.796838e+001  5.127519e+000
      vertex -1.959197e+001 -5.881976e+001  4.969598e+000
    endloop
  endfacet
  facet normal  9.999999e-001  0.000000e+000  0.000000e+000
    outer loop
      vertex -1.959197e+001 -6.319850e+001  3.285532e+000
      vertex -1.959197e+001 -5.881976e+001  4.969598e+000
      vertex -1.959197e+001 -5.957194e+001  5.398550e+000
    endloop
  endfacet
  facet normal  1.000000e+000  0.000000e+000  0.000000e+000
    outer loop
      vertex -1.959197e+001 -6.319850e+001  3.285532e+000
      vertex -1.959197e+001 -5.957194e+001  5.398550e+000
      vertex -1.959197e+001 -5.986954e+001  6.211701e+000
    endloop
  endfacet
  facet normal  1.000000e+000  0.000000e+000  0.000000e+000
    outer loop
      vertex -1.959197e+001 -6.319850e+001  3.285532e+000
      vertex -1.959197e+001 -5.986954e+001  6.211701e+000
      vertex -1.959197e+001 -6.319850e+001  6.211701e+000
    endloop
  endfacet
  facet normal  9.999999e-001  0.000000e+000  0.000000e+000
    outer loop
      vertex -1.959197e+001 -5.325758e+001  3.285532e+000
      vertex -1.959197e+001 -5.360040e+001  3.021787e+001
      vertex -1.959197e+001 -5.373500e+001  2.397601e+001
    endloop
  endfacet
  facet normal  1.000000e+000  0.000000e+000  0.000000e+000
    outer loop
      vertex -1.959197e+001 -5.325758e+001  3.285532e+000
      vertex -1.959197e+001 -5.373500e+001  2.397601e+001
      vertex -1.959197e+001 -5.441515e+001  1.780870e+001
    endloop
  endfacet
  facet normal  9.999999e-001  0.000000e+000  0.000000e+000
    outer loop
      vertex -1.959197e+001 -5.325758e+001  3.285532e+000
      vertex -1.959197e+001 -5.441515e+001  1.780870e+001
      vertex -1.959197e+001 -5.564501e+001  1.174122e+001
    endloop
  endfacet
  facet normal  1.000000e+000  0.000000e+000  0.000000e+000
    outer loop
      vertex -1.959197e+001 -5.325758e+001  3.285532e+000
      vertex -1.959197e+001 -5.564501e+001  1.174122e+001
      vertex -1.959197e+001 -5.742007e+001  5.797697e+000
    endloop
  endfacet
  facet normal  1.000000e+000  0.000000e+000  0.000000e+000
    outer loop
      vertex -1.959197e+001 -5.325758e+001  3.285532e+000
      vertex -1.959197e+001 -5.742007e+001  5.797697e+000
      vertex -1.959197e+001 -5.796838e+001  5.127519e+000
    endloop
  endfacet
  facet normal  1.000000e+000  0.000000e+000  0.000000e+000
    outer loop
      vertex -1.959197e+001 -5.325758e+001  3.285532e+000
      vertex -1.959197e+001 -5.796838e+001  5.127519e+000
      vertex -1.959197e+001 -6.319850e+001  3.285532e+000
    endloop
  endfacet
  facet normal  0.000000e+000 -9.997676e-001  2.155871e-002
    outer loop
      vertex -1.959197e+001 -5.360040e+001  3.021787e+001
      vertex -2.762963e+001 -5.360040e+001  3.021787e+001
      vertex -1.959197e+001 -5.373500e+001  2.397601e+001
    endloop
  endfacet
  facet normal -2.347469e-002 -9.996868e-001 -8.671440e-003
    outer loop
      vertex -1.959197e+001 -5.373500e+001  2.397601e+001
      vertex -2.762963e+001 -5.360040e+001  3.021787e+001
      vertex -2.755612e+001 -5.358472e+001  2.821182e+001
    endloop
  endfacet
  facet normal  5.612258e-003 -9.989260e-001  4.599065e-002
    outer loop
      vertex -1.959197e+001 -5.373500e+001  2.397601e+001
      vertex -2.755612e+001 -5.358472e+001  2.821182e+001
      vertex -2.755612e+001 -5.384832e+001  2.248647e+001
    endloop
  endfacet
  facet normal  0.000000e+000 -9.571444e-001  2.896109e-001
    outer loop
      vertex -2.755612e+001 -5.742007e+001  5.797697e+000
      vertex -1.959197e+001 -5.742007e+001  5.797697e+000
      vertex -2.755612e+001 -5.576723e+001  1.126023e+001
    endloop
  endfacet
  facet normal -2.577683e-003 -9.581769e-001  2.861651e-001
    outer loop
      vertex -2.755612e+001 -5.576723e+001  1.126023e+001
      vertex -1.959197e+001 -5.742007e+001  5.797697e+000
      vertex -1.959197e+001 -5.564501e+001  1.174122e+001
    endloop
  endfacet
  facet normal  2.366300e-003 -9.778485e-001  2.093009e-001
    outer loop
      vertex -2.755612e+001 -5.576723e+001  1.126023e+001
      vertex -1.959197e+001 -5.564501e+001  1.174122e+001
      vertex -2.755612e+001 -5.457520e+001  1.682940e+001
    endloop
  endfacet
  facet normal -4.732451e-003 -9.800581e-001  1.986543e-001
    outer loop
      vertex -2.755612e+001 -5.457520e+001  1.682940e+001
      vertex -1.959197e+001 -5.564501e+001  1.174122e+001
      vertex -1.959197e+001 -5.441515e+001  1.780870e+001
    endloop
  endfacet
  facet normal  4.261015e-003 -9.918370e-001  1.274407e-001
    outer loop
      vertex -2.755612e+001 -5.457520e+001  1.682940e+001
      vertex -1.959197e+001 -5.441515e+001  1.780870e+001
      vertex -2.755612e+001 -5.384832e+001  2.248647e+001
    endloop
  endfacet
  facet normal -6.358504e-003 -9.939536e-001  1.096169e-001
    outer loop
      vertex -2.755612e+001 -5.384832e+001  2.248647e+001
      vertex -1.959197e+001 -5.441515e+001  1.780870e+001
      vertex -1.959197e+001 -5.373500e+001  2.397601e+001
    endloop
  endfacet
  facet normal  0.000000e+000 -1.823781e-001  9.832285e-001
    outer loop
      vertex -2.755612e+001 -5.881976e+001  4.969598e+000
      vertex -1.959197e+001 -5.796838e+001  5.127519e+000
      vertex -2.755612e+001 -5.796838e+001  5.127519e+000
    endloop
  endfacet
  facet normal  0.000000e+000 -7.739699e-001  6.332224e-001
    outer loop
      vertex -2.755612e+001 -5.796838e+001  5.127519e+000
      vertex -1.959197e+001 -5.796838e+001  5.127519e+000
      vertex -1.959197e+001 -5.742007e+001  5.797697e+000
    endloop
  endfacet
  facet normal  0.000000e+000 -7.739699e-001  6.332224e-001
    outer loop
      vertex -2.755612e+001 -5.796838e+001  5.127519e+000
      vertex -1.959197e+001 -5.742007e+001  5.797697e+000
      vertex -2.755612e+001 -5.742007e+001  5.797697e+000
    endloop
  endfacet
  facet normal  0.000000e+000 -1.823781e-001  9.832285e-001
    outer loop
      vertex -1.959197e+001 -5.796838e+001  5.127519e+000
      vertex -2.755612e+001 -5.881976e+001  4.969598e+000
      vertex -1.959197e+001 -5.881976e+001  4.969598e+000
    endloop
  endfacet
  facet normal  0.000000e+000  4.953824e-001  8.686750e-001
    outer loop
      vertex -1.959197e+001 -5.881976e+001  4.969598e+000
      vertex -2.755612e+001 -5.881976e+001  4.969598e+000
      vertex -2.755612e+001 -5.957194e+001  5.398550e+000
    endloop
  endfacet
  facet normal  -0.000000e+000  4.953824e-001  8.686750e-001
    outer loop
      vertex -1.959197e+001 -5.881976e+001  4.969598e+000
      vertex -2.755612e+001 -5.957194e+001  5.398550e+000
      vertex -1.959197e+001 -5.957194e+001  5.398550e+000
    endloop
  endfacet
  facet normal  0.000000e+000  9.390851e-001  3.436848e-001
    outer loop
      vertex -1.959197e+001 -5.957194e+001  5.398550e+000
      vertex -2.755612e+001 -5.957194e+001  5.398550e+000
      vertex -2.755612e+001 -5.986954e+001  6.211701e+000
    endloop
  endfacet
  facet normal  -0.000000e+000  9.390851e-001  3.436848e-001
    outer loop
      vertex -1.959197e+001 -5.957194e+001  5.398550e+000
      vertex -2.755612e+001 -5.986954e+001  6.211701e+000
      vertex -1.959197e+001 -5.986954e+001  6.211701e+000
    endloop
  endfacet
  facet normal  0.000000e+000  0.000000e+000  1.000000e+000
    outer loop
      vertex -2.755612e+001 -6.319850e+001  6.211701e+000
      vertex -1.959197e+001 -6.319850e+001  6.211701e+000
      vertex -2.755612e+001 -5.986954e+001  6.211701e+000
    endloop
  endfacet
  facet normal  -0.000000e+000  0.000000e+000  1.000000e+000
    outer loop
      vertex -2.755612e+001 -5.986954e+001  6.211701e+000
      vertex -1.959197e+001 -6.319850e+001  6.211701e+000
      vertex -1.959197e+001 -5.986954e+001  6.211701e+000
    endloop
  endfacet
  facet normal  0.000000e+000  0.000000e+000  1.000000e+000
    outer loop
      vertex -1.610902e+001 -6.319850e+001  3.285532e+000
      vertex -1.610902e+001 -5.325758e+001  3.285532e+000
      vertex -1.959197e+001 -6.319850e+001  3.285532e+000
    endloop
  endfacet
  facet normal  0.000000e+000  0.000000e+000  1.000000e+000
    outer loop
      vertex -1.959197e+001 -6.319850e+001  3.285532e+000
      vertex -1.610902e+001 -5.325758e+001  3.285532e+000
      vertex -1.959197e+001 -5.325758e+001  3.285532e+000
    endloop
  endfacet
  facet normal  0.000000e+000  0.000000e+000  1.000000e+000
    outer loop
      vertex -2.755612e+001 -6.319850e+001  3.285532e+000
      vertex -2.755612e+001 -5.325758e+001  3.285532e+000
      vertex -3.165646e+001 -6.319850e+001  3.285532e+000
    endloop
  endfacet
  facet normal  0.000000e+000  0.000000e+000  1.000000e+000
    outer loop
      vertex -3.165646e+001 -6.319850e+001  3.285532e+000
      vertex -2.755612e+001 -5.325758e+001  3.285532e+000
      vertex -3.165646e+001 -5.325758e+001  3.285532e+000
    endloop
  endfacet
  facet normal -1.000000e+000  -0.000000e+000  0.000000e+000
    outer loop
      vertex -2.755612e+001 -5.358472e+001  2.821182e+001
      vertex -2.755612e+001 -4.930928e+001  2.821182e+001
      vertex -2.755612e+001 -4.931831e+001  2.321878e+001
    endloop
  endfacet
  facet normal -9.999999e-001  -0.000000e+000  0.000000e+000
    outer loop
      vertex -2.755612e+001 -5.358472e+001  2.821182e+001
      vertex -2.755612e+001 -4.931831e+001  2.321878e+001
      vertex -2.755612e+001 -4.974495e+001  1.824743e+001
    endloop
  endfacet
  facet normal -1.000000e+000  -0.000000e+000  0.000000e+000
    outer loop
      vertex -2.755612e+001 -5.358472e+001  2.821182e+001
      vertex -2.755612e+001 -4.974495e+001  1.824743e+001
      vertex -2.755612e+001 -5.033792e+001  1.450555e+001
    endloop
  endfacet
  facet normal -1.000000e+000  -0.000000e+000  0.000000e+000
    outer loop
      vertex -2.755612e+001 -5.358472e+001  2.821182e+001
      vertex -2.755612e+001 -5.033792e+001  1.450555e+001
      vertex -2.755612e+001 -5.106096e+001  1.078176e+001
    endloop
  endfacet
  facet normal -1.000000e+000  -0.000000e+000  0.000000e+000
    outer loop
      vertex -2.755612e+001 -5.358472e+001  2.821182e+001
      vertex -2.755612e+001 -5.106096e+001  1.078176e+001
      vertex -2.755612e+001 -5.185366e+001  7.390304e+000
    endloop
  endfacet
  facet normal -1.000000e+000  -0.000000e+000  0.000000e+000
    outer loop
      vertex -2.755612e+001 -5.358472e+001  2.821182e+001
      vertex -2.755612e+001 -5.185366e+001  7.390304e+000
      vertex -2.755612e+001 -5.325758e+001  3.285532e+000
    endloop
  endfacet
  facet normal -1.000000e+000  0.000000e+000  0.000000e+000
    outer loop
      vertex -2.755612e+001 -5.358472e+001  2.821182e+001
      vertex -2.755612e+001 -5.325758e+001  3.285532e+000
      vertex -2.755612e+001 -5.384832e+001  2.248647e+001
    endloop
  endfacet
  facet normal -1.000000e+000  0.000000e+000  0.000000e+000
    outer loop
      vertex -2.755612e+001 -6.319850e+001  3.285532e+000
      vertex -2.755612e+001 -6.319850e+001  6.211701e+000
      vertex -2.755612e+001 -5.986954e+001  6.211701e+000
    endloop
  endfacet
  facet normal -1.000000e+000  0.000000e+000  -0.000000e+000
    outer loop
      vertex -2.755612e+001 -6.319850e+001  3.285532e+000
      vertex -2.755612e+001 -5.986954e+001  6.211701e+000
      vertex -2.755612e+001 -5.957194e+001  5.398550e+000
    endloop
  endfacet
  facet normal -9.999999e-001  0.000000e+000  -0.000000e+000
    outer loop
      vertex -2.755612e+001 -6.319850e+001  3.285532e+000
      vertex -2.755612e+001 -5.957194e+001  5.398550e+000
      vertex -2.755612e+001 -5.881976e+001  4.969598e+000
    endloop
  endfacet
  facet normal -1.000000e+000  0.000000e+000  -0.000000e+000
    outer loop
      vertex -2.755612e+001 -6.319850e+001  3.285532e+000
      vertex -2.755612e+001 -5.881976e+001  4.969598e+000
      vertex -2.755612e+001 -5.796838e+001  5.127519e+000
    endloop
  endfacet
  facet normal -1.000000e+000  0.000000e+000  0.000000e+000
    outer loop
      vertex -2.755612e+001 -5.325758e+001  3.285532e+000
      vertex -2.755612e+001 -6.319850e+001  3.285532e+000
      vertex -2.755612e+001 -5.796838e+001  5.127519e+000
    endloop
  endfacet
  facet normal -1.000000e+000  0.000000e+000  0.000000e+000
    outer loop
      vertex -2.755612e+001 -5.325758e+001  3.285532e+000
      vertex -2.755612e+001 -5.796838e+001  5.127519e+000
      vertex -2.755612e+001 -5.742007e+001  5.797697e+000
    endloop
  endfacet
  facet normal -1.000000e+000  0.000000e+000  0.000000e+000
    outer loop
      vertex -2.755612e+001 -5.325758e+001  3.285532e+000
      vertex -2.755612e+001 -5.742007e+001  5.797697e+000
      vertex -2.755612e+001 -5.576723e+001  1.126023e+001
    endloop
  endfacet
  facet normal -1.000000e+000  0.000000e+000  0.000000e+000
    outer loop
      vertex -2.755612e+001 -5.325758e+001  3.285532e+000
      vertex -2.755612e+001 -5.576723e+001  1.126023e+001
      vertex -2.755612e+001 -5.457520e+001  1.682940e+001
    endloop
  endfacet
  facet normal -1.000000e+000  0.000000e+000  0.000000e+000
    outer loop
      vertex -2.755612e+001 -5.325758e+001  3.285532e+000
      vertex -2.755612e+001 -5.457520e+001  1.682940e+001
      vertex -2.755612e+001 -5.384832e+001  2.248647e+001
    endloop
  endfacet
endsolid CATIA STL
