solid CATIA STL
  facet normal  7.828113e-001 -6.216394e-001 -2.776408e-002
    outer loop
      vertex -6.146307e+001 -8.997283e+001  2.000000e+000
      vertex -6.230590e+001 -9.103419e+001  2.000000e+000
      vertex -6.220837e+001 -9.082820e+001  1.380558e-001
    endloop
  endfacet
  facet normal -4.796339e-001 -8.773402e-001  1.501529e-002
    outer loop
      vertex -5.886151e+001 -8.977428e+001  2.000000e+000
      vertex -5.915794e+001 -8.964608e+001  2.167580e-002
      vertex -5.847502e+001 -9.001898e+001  4.746401e-002
    endloop
  endfacet
  facet normal -6.790545e-001 -7.328528e-001 -4.256629e-002
    outer loop
      vertex -5.847502e+001 -9.001898e+001  4.746401e-002
      vertex -5.786737e+001 -9.069543e+001  2.000000e+000
      vertex -5.886151e+001 -8.977428e+001  2.000000e+000
    endloop
  endfacet
  facet normal  7.439024e-001 -6.682249e-001  9.211530e-003
    outer loop
      vertex -6.220837e+001 -9.082820e+001  1.380558e-001
      vertex -6.139803e+001 -8.992744e+001  4.020739e-002
      vertex -6.146307e+001 -8.997283e+001  2.000000e+000
    endloop
  endfacet
  facet normal  4.233917e-001 -9.059201e-001 -6.931799e-003
    outer loop
      vertex -6.146307e+001 -8.997283e+001  2.000000e+000
      vertex -6.139803e+001 -8.992744e+001  4.020739e-002
      vertex -6.069410e+001 -8.959829e+001  1.909350e-002
    endloop
  endfacet
  facet normal  3.431920e-001 -9.382260e-001 -4.417272e-002
    outer loop
      vertex -6.146307e+001 -8.997283e+001  2.000000e+000
      vertex -6.069410e+001 -8.959829e+001  1.909350e-002
      vertex -6.019025e+001 -8.950725e+001  2.000000e+000
    endloop
  endfacet
  facet normal  1.249801e-001 -9.920632e-001  1.380526e-002
    outer loop
      vertex -6.069410e+001 -8.959829e+001  1.909350e-002
      vertex -5.992283e+001 -8.950119e+001  1.436029e-002
      vertex -6.019025e+001 -8.950725e+001  2.000000e+000
    endloop
  endfacet
  facet normal -1.857837e-001 -9.821911e-001 -2.801704e-002
    outer loop
      vertex -6.019025e+001 -8.950725e+001  2.000000e+000
      vertex -5.992283e+001 -8.950119e+001  1.436029e-002
      vertex -5.915794e+001 -8.964608e+001  2.167580e-002
    endloop
  endfacet
  facet normal -1.969110e-001 -9.798321e-001 -3.398896e-002
    outer loop
      vertex -6.019025e+001 -8.950725e+001  2.000000e+000
      vertex -5.915794e+001 -8.964608e+001  2.167580e-002
      vertex -5.886151e+001 -8.977428e+001  2.000000e+000
    endloop
  endfacet
  facet normal -7.883837e-001 -6.143237e-001  3.252237e-002
    outer loop
      vertex -5.847502e+001 -9.001898e+001  4.746401e-002
      vertex -5.771238e+001 -9.099163e+001  1.621666e-001
      vertex -5.786737e+001 -9.069543e+001  2.000000e+000
    endloop
  endfacet
  facet normal -9.755388e-001 -2.145934e-001 -4.768357e-002
    outer loop
      vertex -5.786737e+001 -9.069543e+001  2.000000e+000
      vertex -5.771238e+001 -9.099163e+001  1.621666e-001
      vertex -5.750000e+001 -9.200000e+001  3.551318e-001
    endloop
  endfacet
  facet normal -9.625621e-001 -2.710612e-001  0.000000e+000
    outer loop
      vertex -5.786737e+001 -9.069543e+001  2.000000e+000
      vertex -5.750000e+001 -9.200000e+001  3.551318e-001
      vertex -5.750000e+001 -9.200000e+001  2.000000e+000
    endloop
  endfacet
  facet normal  5.614388e-001  8.275182e-001  6.844289e-005
    outer loop
      vertex -6.108327e+001 -9.425304e+001  1.077858e+000
      vertex -6.169362e+001 -9.383892e+001  9.128787e-001
      vertex -6.108327e+001 -9.425311e+001  2.000000e+000
    endloop
  endfacet
  facet normal  5.887123e-001  8.080247e-001 -2.267104e-002
    outer loop
      vertex -6.108327e+001 -9.425311e+001  2.000000e+000
      vertex -6.169362e+001 -9.383892e+001  9.128787e-001
      vertex -6.181271e+001 -9.372166e+001  2.000000e+000
    endloop
  endfacet
  facet normal  7.951281e-001  6.060522e-001  2.172578e-002
    outer loop
      vertex -6.169362e+001 -9.383892e+001  9.128787e-001
      vertex -6.223578e+001 -9.311861e+001  6.613687e-001
      vertex -6.181271e+001 -9.372166e+001  2.000000e+000
    endloop
  endfacet
  facet normal  8.373372e-001  5.463737e-001 -1.849936e-002
    outer loop
      vertex -6.181271e+001 -9.372166e+001  2.000000e+000
      vertex -6.223578e+001 -9.311861e+001  6.613687e-001
      vertex -6.230590e+001 -9.296581e+001  2.000000e+000
    endloop
  endfacet
  facet normal -8.384387e-001  5.399980e-001  7.363882e-002
    outer loop
      vertex -5.830638e+001 -9.383892e+001  9.128787e-001
      vertex -5.788361e+001 -9.333076e+001  2.000000e+000
      vertex -5.759476e+001 -9.268179e+001  5.298902e-001
    endloop
  endfacet
  facet normal -9.587545e-001  2.763774e-001 -6.637339e-002
    outer loop
      vertex -5.759476e+001 -9.268179e+001  5.298902e-001
      vertex -5.788361e+001 -9.333076e+001  2.000000e+000
      vertex -5.750000e+001 -9.200000e+001  2.000000e+000
    endloop
  endfacet
  facet normal -9.904782e-001  1.376699e-001  0.000000e+000
    outer loop
      vertex -5.759476e+001 -9.268179e+001  5.298902e-001
      vertex -5.750000e+001 -9.200000e+001  2.000000e+000
      vertex -5.750000e+001 -9.200000e+001  3.551318e-001
    endloop
  endfacet
  facet normal -6.659868e-001  7.459636e-001  6.169942e-005
    outer loop
      vertex -5.891673e+001 -9.425311e+001  2.000000e+000
      vertex -5.788361e+001 -9.333076e+001  2.000000e+000
      vertex -5.891673e+001 -9.425304e+001  1.077858e+000
    endloop
  endfacet
  facet normal -5.822826e-001  7.995323e-001 -1.472927e-001
    outer loop
      vertex -5.891673e+001 -9.425304e+001  1.077858e+000
      vertex -5.788361e+001 -9.333076e+001  2.000000e+000
      vertex -5.830638e+001 -9.383892e+001  9.128787e-001
    endloop
  endfacet
  facet normal  -0.000000e+000  0.000000e+000 -1.000000e+000
    outer loop
      vertex -6.019025e+001 -8.950725e+001  2.000000e+000
      vertex -5.886151e+001 -8.977428e+001  2.000000e+000
      vertex -6.146307e+001 -8.997283e+001  2.000000e+000
    endloop
  endfacet
  facet normal  0.000000e+000  0.000000e+000 -1.000000e+000
    outer loop
      vertex -5.788361e+001 -9.333076e+001  2.000000e+000
      vertex -6.230590e+001 -9.296581e+001  2.000000e+000
      vertex -5.750000e+001 -9.200000e+001  2.000000e+000
    endloop
  endfacet
  facet normal  -0.000000e+000  0.000000e+000 -1.000000e+000
    outer loop
      vertex -5.750000e+001 -9.200000e+001  2.000000e+000
      vertex -6.230590e+001 -9.296581e+001  2.000000e+000
      vertex -6.230590e+001 -9.103419e+001  2.000000e+000
    endloop
  endfacet
  facet normal  0.000000e+000  0.000000e+000 -9.999999e-001
    outer loop
      vertex -5.750000e+001 -9.200000e+001  2.000000e+000
      vertex -6.230590e+001 -9.103419e+001  2.000000e+000
      vertex -5.786737e+001 -9.069543e+001  2.000000e+000
    endloop
  endfacet
  facet normal  -0.000000e+000  0.000000e+000 -1.000000e+000
    outer loop
      vertex -5.786737e+001 -9.069543e+001  2.000000e+000
      vertex -6.230590e+001 -9.103419e+001  2.000000e+000
      vertex -6.146307e+001 -8.997283e+001  2.000000e+000
    endloop
  endfacet
  facet normal  0.000000e+000  0.000000e+000 -1.000000e+000
    outer loop
      vertex -5.786737e+001 -9.069543e+001  2.000000e+000
      vertex -6.146307e+001 -8.997283e+001  2.000000e+000
      vertex -5.886151e+001 -8.977428e+001  2.000000e+000
    endloop
  endfacet
  facet normal  0.000000e+000  0.000000e+000 -1.000000e+000
    outer loop
      vertex -6.108327e+001 -9.425311e+001  2.000000e+000
      vertex -6.181271e+001 -9.372166e+001  2.000000e+000
      vertex -5.891673e+001 -9.425311e+001  2.000000e+000
    endloop
  endfacet
  facet normal  0.000000e+000  0.000000e+000 -9.999999e-001
    outer loop
      vertex -5.891673e+001 -9.425311e+001  2.000000e+000
      vertex -6.181271e+001 -9.372166e+001  2.000000e+000
      vertex -6.230590e+001 -9.296581e+001  2.000000e+000
    endloop
  endfacet
  facet normal  0.000000e+000  0.000000e+000 -1.000000e+000
    outer loop
      vertex -5.891673e+001 -9.425311e+001  2.000000e+000
      vertex -6.230590e+001 -9.296581e+001  2.000000e+000
      vertex -5.788361e+001 -9.333076e+001  2.000000e+000
    endloop
  endfacet
  facet normal  7.068129e-001 -7.068129e-001 -2.882953e-002
    outer loop
      vertex -5.325000e+001 -8.983494e+001  2.000000e+000
      vertex -5.416506e+001 -9.075000e+001  2.000000e+000
      vertex -5.402095e+001 -9.052835e+001  9.892135e-002
    endloop
  endfacet
  facet normal -5.936189e-001 -8.047109e-001  7.545080e-003
    outer loop
      vertex -5.075000e+001 -8.983494e+001  2.000000e+000
      vertex -5.084743e+001 -8.978154e+001  2.988556e-002
      vertex -5.022191e+001 -9.024261e+001  6.773786e-002
    endloop
  endfacet
  facet normal -7.064213e-001 -7.064213e-001 -4.402138e-002
    outer loop
      vertex -5.022191e+001 -9.024261e+001  6.773786e-002
      vertex -4.983494e+001 -9.075000e+001  2.000000e+000
      vertex -5.075000e+001 -8.983494e+001  2.000000e+000
    endloop
  endfacet
  facet normal  9.229640e-001 -3.840614e-001  2.518541e-002
    outer loop
      vertex -5.402095e+001 -9.052835e+001  9.892135e-002
      vertex -5.416506e+001 -9.075000e+001  2.000000e+000
      vertex -5.446538e+001 -9.158540e+001  2.664940e-001
    endloop
  endfacet
  facet normal  9.650498e-001 -2.585855e-001 -4.257394e-002
    outer loop
      vertex -5.446538e+001 -9.158540e+001  2.664940e-001
      vertex -5.416506e+001 -9.075000e+001  2.000000e+000
      vertex -5.450000e+001 -9.200000e+001  2.000000e+000
    endloop
  endfacet
  facet normal  9.965322e-001 -8.320786e-002  0.000000e+000
    outer loop
      vertex -5.446538e+001 -9.158540e+001  2.664940e-001
      vertex -5.450000e+001 -9.200000e+001  2.000000e+000
      vertex -5.450000e+001 -9.200000e+001  3.551323e-001
    endloop
  endfacet
  facet normal  6.445884e-001 -7.643322e-001  1.738466e-002
    outer loop
      vertex -5.402095e+001 -9.052835e+001  9.892135e-002
      vertex -5.310490e+001 -8.975742e+001  2.833193e-002
      vertex -5.325000e+001 -8.983494e+001  2.000000e+000
    endloop
  endfacet
  facet normal  2.968317e-001 -9.548008e-001 -1.569644e-002
    outer loop
      vertex -5.325000e+001 -8.983494e+001  2.000000e+000
      vertex -5.310490e+001 -8.975742e+001  2.833193e-002
      vertex -5.236260e+001 -8.952644e+001  1.551981e-002
    endloop
  endfacet
  facet normal  2.586670e-001 -9.653537e-001 -3.440310e-002
    outer loop
      vertex -5.325000e+001 -8.983494e+001  2.000000e+000
      vertex -5.236260e+001 -8.952644e+001  1.551981e-002
      vertex -5.200000e+001 -8.950000e+001  2.000000e+000
    endloop
  endfacet
  facet normal -1.059428e-002 -9.998274e-001  1.525476e-002
    outer loop
      vertex -5.236260e+001 -8.952644e+001  1.551981e-002
      vertex -5.158512e+001 -8.953467e+001  1.591807e-002
      vertex -5.200000e+001 -8.950000e+001  2.000000e+000
    endloop
  endfacet
  facet normal -3.161195e-001 -9.474248e-001 -4.954674e-002
    outer loop
      vertex -5.200000e+001 -8.950000e+001  2.000000e+000
      vertex -5.158512e+001 -8.953467e+001  1.591807e-002
      vertex -5.084743e+001 -8.978154e+001  2.988556e-002
    endloop
  endfacet
  facet normal -2.587970e-001 -9.658391e-001 -1.337998e-002
    outer loop
      vertex -5.200000e+001 -8.950000e+001  2.000000e+000
      vertex -5.084743e+001 -8.978154e+001  2.988556e-002
      vertex -5.075000e+001 -8.983494e+001  2.000000e+000
    endloop
  endfacet
  facet normal -8.569192e-001 -5.141494e-001  3.660681e-002
    outer loop
      vertex -5.022191e+001 -9.024261e+001  6.773786e-002
      vertex -4.961898e+001 -9.123792e+001  2.022426e-001
      vertex -4.983494e+001 -9.075000e+001  2.000000e+000
    endloop
  endfacet
  facet normal -9.831119e-001 -1.680375e-001 -7.248890e-002
    outer loop
      vertex -4.983494e+001 -9.075000e+001  2.000000e+000
      vertex -4.961898e+001 -9.123792e+001  2.022426e-001
      vertex -4.950000e+001 -9.200000e+001  3.551318e-001
    endloop
  endfacet
  facet normal -9.659255e-001 -2.588202e-001  0.000000e+000
    outer loop
      vertex -4.983494e+001 -9.075000e+001  2.000000e+000
      vertex -4.950000e+001 -9.200000e+001  3.551318e-001
      vertex -4.950000e+001 -9.200000e+001  2.000000e+000
    endloop
  endfacet
  facet normal  8.384387e-001  5.399980e-001  7.363882e-002
    outer loop
      vertex -5.440524e+001 -9.268179e+001  5.298902e-001
      vertex -5.411639e+001 -9.333076e+001  2.000000e+000
      vertex -5.369362e+001 -9.383892e+001  9.128787e-001
    endloop
  endfacet
  facet normal  6.633235e-001  7.429804e-001 -8.934270e-002
    outer loop
      vertex -5.369362e+001 -9.383892e+001  9.128787e-001
      vertex -5.411639e+001 -9.333076e+001  2.000000e+000
      vertex -5.308327e+001 -9.425311e+001  2.000000e+000
    endloop
  endfacet
  facet normal  5.614388e-001  8.275183e-001  6.846523e-005
    outer loop
      vertex -5.369362e+001 -9.383892e+001  9.128787e-001
      vertex -5.308327e+001 -9.425311e+001  2.000000e+000
      vertex -5.308327e+001 -9.425304e+001  1.077858e+000
    endloop
  endfacet
  facet normal  9.904783e-001  1.376699e-001  0.000000e+000
    outer loop
      vertex -5.450000e+001 -9.200000e+001  3.551323e-001
      vertex -5.450000e+001 -9.200000e+001  2.000000e+000
      vertex -5.440524e+001 -9.268179e+001  5.298902e-001
    endloop
  endfacet
  facet normal  9.587545e-001  2.763774e-001 -6.637339e-002
    outer loop
      vertex -5.440524e+001 -9.268179e+001  5.298902e-001
      vertex -5.450000e+001 -9.200000e+001  2.000000e+000
      vertex -5.411639e+001 -9.333076e+001  2.000000e+000
    endloop
  endfacet
  facet normal -8.384387e-001  5.399980e-001  7.363882e-002
    outer loop
      vertex -5.030638e+001 -9.383892e+001  9.128787e-001
      vertex -4.988361e+001 -9.333076e+001  2.000000e+000
      vertex -4.959476e+001 -9.268179e+001  5.298902e-001
    endloop
  endfacet
  facet normal -9.587545e-001  2.763774e-001 -6.637339e-002
    outer loop
      vertex -4.959476e+001 -9.268179e+001  5.298902e-001
      vertex -4.988361e+001 -9.333076e+001  2.000000e+000
      vertex -4.950000e+001 -9.200000e+001  2.000000e+000
    endloop
  endfacet
  facet normal -9.904782e-001  1.376699e-001  0.000000e+000
    outer loop
      vertex -4.959476e+001 -9.268179e+001  5.298902e-001
      vertex -4.950000e+001 -9.200000e+001  2.000000e+000
      vertex -4.950000e+001 -9.200000e+001  3.551318e-001
    endloop
  endfacet
  facet normal -6.659868e-001  7.459636e-001  6.169942e-005
    outer loop
      vertex -5.091673e+001 -9.425311e+001  2.000000e+000
      vertex -4.988361e+001 -9.333076e+001  2.000000e+000
      vertex -5.091673e+001 -9.425304e+001  1.077858e+000
    endloop
  endfacet
  facet normal -5.822826e-001  7.995323e-001 -1.472927e-001
    outer loop
      vertex -5.091673e+001 -9.425304e+001  1.077858e+000
      vertex -4.988361e+001 -9.333076e+001  2.000000e+000
      vertex -5.030638e+001 -9.383892e+001  9.128787e-001
    endloop
  endfacet
  facet normal  0.000000e+000  0.000000e+000 -1.000000e+000
    outer loop
      vertex -5.200000e+001 -8.950000e+001  2.000000e+000
      vertex -5.075000e+001 -8.983494e+001  2.000000e+000
      vertex -5.325000e+001 -8.983494e+001  2.000000e+000
    endloop
  endfacet
  facet normal  0.000000e+000  0.000000e+000 -1.000000e+000
    outer loop
      vertex -5.325000e+001 -8.983494e+001  2.000000e+000
      vertex -5.075000e+001 -8.983494e+001  2.000000e+000
      vertex -4.983494e+001 -9.075000e+001  2.000000e+000
    endloop
  endfacet
  facet normal  0.000000e+000  0.000000e+000 -9.999999e-001
    outer loop
      vertex -5.325000e+001 -8.983494e+001  2.000000e+000
      vertex -4.983494e+001 -9.075000e+001  2.000000e+000
      vertex -5.416506e+001 -9.075000e+001  2.000000e+000
    endloop
  endfacet
  facet normal  0.000000e+000  0.000000e+000 -1.000000e+000
    outer loop
      vertex -5.416506e+001 -9.075000e+001  2.000000e+000
      vertex -4.983494e+001 -9.075000e+001  2.000000e+000
      vertex -4.950000e+001 -9.200000e+001  2.000000e+000
    endloop
  endfacet
  facet normal  0.000000e+000  0.000000e+000 -1.000000e+000
    outer loop
      vertex -5.416506e+001 -9.075000e+001  2.000000e+000
      vertex -4.950000e+001 -9.200000e+001  2.000000e+000
      vertex -5.450000e+001 -9.200000e+001  2.000000e+000
    endloop
  endfacet
  facet normal  0.000000e+000  0.000000e+000 -1.000000e+000
    outer loop
      vertex -5.450000e+001 -9.200000e+001  2.000000e+000
      vertex -4.950000e+001 -9.200000e+001  2.000000e+000
      vertex -4.988361e+001 -9.333076e+001  2.000000e+000
    endloop
  endfacet
  facet normal  0.000000e+000  0.000000e+000 -1.000000e+000
    outer loop
      vertex -5.450000e+001 -9.200000e+001  2.000000e+000
      vertex -4.988361e+001 -9.333076e+001  2.000000e+000
      vertex -5.411639e+001 -9.333076e+001  2.000000e+000
    endloop
  endfacet
  facet normal  0.000000e+000  0.000000e+000 -1.000000e+000
    outer loop
      vertex -5.411639e+001 -9.333076e+001  2.000000e+000
      vertex -4.988361e+001 -9.333076e+001  2.000000e+000
      vertex -5.091673e+001 -9.425311e+001  2.000000e+000
    endloop
  endfacet
  facet normal  0.000000e+000  0.000000e+000 -9.999999e-001
    outer loop
      vertex -5.411639e+001 -9.333076e+001  2.000000e+000
      vertex -5.091673e+001 -9.425311e+001  2.000000e+000
      vertex -5.308327e+001 -9.425311e+001  2.000000e+000
    endloop
  endfacet
  facet normal  7.255297e-001 -6.878462e-001  2.178290e-002
    outer loop
      vertex -6.130095e+001 -8.186517e+001  0.000000e+000
      vertex -6.146307e+001 -8.197283e+001  2.000000e+000
      vertex -6.220113e+001 -8.281467e+001  0.000000e+000
    endloop
  endfacet
  facet normal  7.828230e-001 -6.216486e-001 -2.722389e-002
    outer loop
      vertex -6.146307e+001 -8.197283e+001  2.000000e+000
      vertex -6.230590e+001 -8.303419e+001  2.000000e+000
      vertex -6.220113e+001 -8.281467e+001  0.000000e+000
    endloop
  endfacet
  facet normal  3.434388e-001 -9.389006e-001 -2.270455e-002
    outer loop
      vertex -6.019025e+001 -8.150725e+001  2.000000e+000
      vertex -6.146307e+001 -8.197283e+001  2.000000e+000
      vertex -6.130095e+001 -8.186517e+001  0.000000e+000
    endloop
  endfacet
  facet normal  2.787507e-001 -9.602123e-001  1.703397e-002
    outer loop
      vertex -6.004443e+001 -8.150040e+001  0.000000e+000
      vertex -6.019025e+001 -8.150725e+001  2.000000e+000
      vertex -6.130095e+001 -8.186517e+001  0.000000e+000
    endloop
  endfacet
  facet normal -1.969939e-001 -9.802446e-001 -1.772044e-002
    outer loop
      vertex -5.886151e+001 -8.177428e+001  2.000000e+000
      vertex -6.019025e+001 -8.150725e+001  2.000000e+000
      vertex -6.004443e+001 -8.150040e+001  0.000000e+000
    endloop
  endfacet
  facet normal -2.444691e-001 -9.695851e-001  1.181899e-002
    outer loop
      vertex -5.877574e+001 -8.182028e+001  0.000000e+000
      vertex -5.886151e+001 -8.177428e+001  2.000000e+000
      vertex -6.004443e+001 -8.150040e+001  0.000000e+000
    endloop
  endfacet
  facet normal -6.796193e-001 -7.334623e-001 -1.227380e-002
    outer loop
      vertex -5.786737e+001 -8.269543e+001  2.000000e+000
      vertex -5.886151e+001 -8.177428e+001  2.000000e+000
      vertex -5.877574e+001 -8.182028e+001  0.000000e+000
    endloop
  endfacet
  facet normal -7.007827e-001 -7.133484e-001  6.139588e-003
    outer loop
      vertex -5.877574e+001 -8.182028e+001  0.000000e+000
      vertex -5.784238e+001 -8.273720e+001  0.000000e+000
      vertex -5.786737e+001 -8.269543e+001  2.000000e+000
    endloop
  endfacet
  facet normal -9.651337e-001 -2.616744e-001 -6.595191e-003
    outer loop
      vertex -5.786737e+001 -8.269543e+001  2.000000e+000
      vertex -5.784238e+001 -8.273720e+001  0.000000e+000
      vertex -5.750000e+001 -8.400000e+001  0.000000e+000
    endloop
  endfacet
  facet normal -9.625621e-001 -2.710612e-001  0.000000e+000
    outer loop
      vertex -5.786737e+001 -8.269543e+001  2.000000e+000
      vertex -5.750000e+001 -8.400000e+001  0.000000e+000
      vertex -5.750000e+001 -8.400000e+001  2.000000e+000
    endloop
  endfacet
  facet normal  7.828230e-001  6.216486e-001 -2.722389e-002
    outer loop
      vertex -6.230590e+001 -8.496581e+001  2.000000e+000
      vertex -6.146307e+001 -8.602717e+001  2.000000e+000
      vertex -6.220113e+001 -8.518533e+001  0.000000e+000
    endloop
  endfacet
  facet normal  7.255297e-001  6.878462e-001  2.178290e-002
    outer loop
      vertex -6.146307e+001 -8.602717e+001  2.000000e+000
      vertex -6.130095e+001 -8.613483e+001  0.000000e+000
      vertex -6.220113e+001 -8.518533e+001  0.000000e+000
    endloop
  endfacet
  facet normal -6.796193e-001  7.334623e-001 -1.227380e-002
    outer loop
      vertex -5.877574e+001 -8.617972e+001  0.000000e+000
      vertex -5.886151e+001 -8.622572e+001  2.000000e+000
      vertex -5.786737e+001 -8.530457e+001  2.000000e+000
    endloop
  endfacet
  facet normal -2.444691e-001  9.695851e-001  1.181899e-002
    outer loop
      vertex -5.886151e+001 -8.622572e+001  2.000000e+000
      vertex -5.877574e+001 -8.617972e+001  0.000000e+000
      vertex -6.004443e+001 -8.649960e+001  0.000000e+000
    endloop
  endfacet
  facet normal -1.969939e-001  9.802446e-001 -1.772044e-002
    outer loop
      vertex -6.004443e+001 -8.649960e+001  0.000000e+000
      vertex -6.019025e+001 -8.649275e+001  2.000000e+000
      vertex -5.886151e+001 -8.622572e+001  2.000000e+000
    endloop
  endfacet
  facet normal  2.787507e-001  9.602123e-001  1.703397e-002
    outer loop
      vertex -6.019025e+001 -8.649275e+001  2.000000e+000
      vertex -6.004443e+001 -8.649960e+001  0.000000e+000
      vertex -6.130095e+001 -8.613483e+001  0.000000e+000
    endloop
  endfacet
  facet normal  3.434388e-001  9.389006e-001 -2.270455e-002
    outer loop
      vertex -6.130095e+001 -8.613483e+001  0.000000e+000
      vertex -6.146307e+001 -8.602717e+001  2.000000e+000
      vertex -6.019025e+001 -8.649275e+001  2.000000e+000
    endloop
  endfacet
  facet normal -7.007827e-001  7.133484e-001  6.139588e-003
    outer loop
      vertex -5.877574e+001 -8.617972e+001  0.000000e+000
      vertex -5.786737e+001 -8.530457e+001  2.000000e+000
      vertex -5.784238e+001 -8.526280e+001  0.000000e+000
    endloop
  endfacet
  facet normal -9.625427e-001  2.710557e-001 -6.366920e-003
    outer loop
      vertex -5.784238e+001 -8.526280e+001  0.000000e+000
      vertex -5.786737e+001 -8.530457e+001  2.000000e+000
      vertex -5.750000e+001 -8.400000e+001  2.000000e+000
    endloop
  endfacet
  facet normal -9.651546e-001  2.616801e-001  0.000000e+000
    outer loop
      vertex -5.784238e+001 -8.526280e+001  0.000000e+000
      vertex -5.750000e+001 -8.400000e+001  2.000000e+000
      vertex -5.750000e+001 -8.400000e+001  0.000000e+000
    endloop
  endfacet
  facet normal  -0.000000e+000  0.000000e+000 -1.000000e+000
    outer loop
      vertex -6.019025e+001 -8.150725e+001  2.000000e+000
      vertex -5.886151e+001 -8.177428e+001  2.000000e+000
      vertex -6.146307e+001 -8.197283e+001  2.000000e+000
    endloop
  endfacet
  facet normal  0.000000e+000  0.000000e+000 -9.999999e-001
    outer loop
      vertex -5.786737e+001 -8.530457e+001  2.000000e+000
      vertex -6.230590e+001 -8.496581e+001  2.000000e+000
      vertex -5.750000e+001 -8.400000e+001  2.000000e+000
    endloop
  endfacet
  facet normal  -0.000000e+000  0.000000e+000 -1.000000e+000
    outer loop
      vertex -5.750000e+001 -8.400000e+001  2.000000e+000
      vertex -6.230590e+001 -8.496581e+001  2.000000e+000
      vertex -6.230590e+001 -8.303419e+001  2.000000e+000
    endloop
  endfacet
  facet normal  0.000000e+000  0.000000e+000 -9.999999e-001
    outer loop
      vertex -5.750000e+001 -8.400000e+001  2.000000e+000
      vertex -6.230590e+001 -8.303419e+001  2.000000e+000
      vertex -5.786737e+001 -8.269543e+001  2.000000e+000
    endloop
  endfacet
  facet normal  -0.000000e+000  0.000000e+000 -1.000000e+000
    outer loop
      vertex -5.786737e+001 -8.269543e+001  2.000000e+000
      vertex -6.230590e+001 -8.303419e+001  2.000000e+000
      vertex -6.146307e+001 -8.197283e+001  2.000000e+000
    endloop
  endfacet
  facet normal  0.000000e+000  0.000000e+000 -1.000000e+000
    outer loop
      vertex -5.786737e+001 -8.269543e+001  2.000000e+000
      vertex -6.146307e+001 -8.197283e+001  2.000000e+000
      vertex -5.886151e+001 -8.177428e+001  2.000000e+000
    endloop
  endfacet
  facet normal  0.000000e+000  0.000000e+000 -1.000000e+000
    outer loop
      vertex -6.019025e+001 -8.649275e+001  2.000000e+000
      vertex -6.146307e+001 -8.602717e+001  2.000000e+000
      vertex -5.886151e+001 -8.622572e+001  2.000000e+000
    endloop
  endfacet
  facet normal  0.000000e+000  0.000000e+000 -1.000000e+000
    outer loop
      vertex -5.886151e+001 -8.622572e+001  2.000000e+000
      vertex -6.146307e+001 -8.602717e+001  2.000000e+000
      vertex -6.230590e+001 -8.496581e+001  2.000000e+000
    endloop
  endfacet
  facet normal  0.000000e+000  0.000000e+000 -1.000000e+000
    outer loop
      vertex -5.886151e+001 -8.622572e+001  2.000000e+000
      vertex -6.230590e+001 -8.496581e+001  2.000000e+000
      vertex -5.786737e+001 -8.530457e+001  2.000000e+000
    endloop
  endfacet
  facet normal -5.080631e-004 -9.999999e-001 -8.273560e-005
    outer loop
      vertex -5.324696e+001 -9.425311e+001  3.005180e+000
      vertex -5.308327e+001 -9.425304e+001  1.077858e+000
      vertex -5.308327e+001 -9.425311e+001  2.000000e+000
    endloop
  endfacet
  facet normal  0.000000e+000 -1.000000e+000  0.000000e+000
    outer loop
      vertex -5.324696e+001 -9.425311e+001  3.005180e+000
      vertex -5.308327e+001 -9.425311e+001  2.000000e+000
      vertex -5.091673e+001 -9.425311e+001  2.000000e+000
    endloop
  endfacet
  facet normal  0.000000e+000 -1.000000e+000  0.000000e+000
    outer loop
      vertex -5.324696e+001 -9.425311e+001  3.005180e+000
      vertex -5.091673e+001 -9.425311e+001  2.000000e+000
      vertex -4.800000e+001 -9.425311e+001  3.005180e+000
    endloop
  endfacet
  facet normal  -0.000000e+000 -1.000000e+000 -3.958548e-005
    outer loop
      vertex -5.891673e+001 -9.425304e+001  1.077858e+000
      vertex -5.308327e+001 -9.425304e+001  1.077858e+000
      vertex -5.324696e+001 -9.425311e+001  3.005180e+000
    endloop
  endfacet
  facet normal -2.436097e-006 -1.000000e+000 -3.241899e-005
    outer loop
      vertex -5.891673e+001 -9.425304e+001  1.077858e+000
      vertex -5.324696e+001 -9.425311e+001  3.005180e+000
      vertex -5.476268e+001 -9.425311e+001  3.119078e+000
    endloop
  endfacet
  facet normal -7.730116e-006 -1.000000e+000 -2.164522e-005
    outer loop
      vertex -5.891673e+001 -9.425304e+001  1.077858e+000
      vertex -5.476268e+001 -9.425311e+001  3.119078e+000
      vertex -5.586663e+001 -9.425311e+001  3.513328e+000
    endloop
  endfacet
  facet normal -1.275031e-005 -9.999999e-001 -1.535809e-005
    outer loop
      vertex -5.891673e+001 -9.425304e+001  1.077858e+000
      vertex -5.586663e+001 -9.425311e+001  3.513328e+000
      vertex -5.679534e+001 -9.425311e+001  4.284345e+000
    endloop
  endfacet
  facet normal -1.675698e-005 -1.000000e+000 -1.270730e-005
    outer loop
      vertex -5.891673e+001 -9.425304e+001  1.077858e+000
      vertex -5.679534e+001 -9.425311e+001  4.284345e+000
      vertex -5.759262e+001 -9.425311e+001  5.335714e+000
    endloop
  endfacet
  facet normal -2.225598e-005 -1.000000e+000 -1.099721e-005
    outer loop
      vertex -5.891673e+001 -9.425304e+001  1.077858e+000
      vertex -5.759262e+001 -9.425311e+001  5.335714e+000
      vertex -5.832859e+001 -9.425311e+001  6.825150e+000
    endloop
  endfacet
  facet normal  6.787628e-004 -9.999998e-001 -8.273563e-005
    outer loop
      vertex -5.891673e+001 -9.425304e+001  1.077858e+000
      vertex -5.832859e+001 -9.425311e+001  6.825150e+000
      vertex -5.891673e+001 -9.425311e+001  2.000000e+000
    endloop
  endfacet
  facet normal  -0.000000e+000 -1.000000e+000 -8.273561e-005
    outer loop
      vertex -5.091673e+001 -9.425304e+001  1.077858e+000
      vertex -4.800000e+001 -9.425304e+001  1.077858e+000
      vertex -5.091673e+001 -9.425311e+001  2.000000e+000
    endloop
  endfacet
  facet normal  1.364216e-005 -1.000000e+000 -3.958548e-005
    outer loop
      vertex -5.091673e+001 -9.425311e+001  2.000000e+000
      vertex -4.800000e+001 -9.425304e+001  1.077858e+000
      vertex -4.800000e+001 -9.425311e+001  3.005180e+000
    endloop
  endfacet
  facet normal  0.000000e+000 -1.000000e+000  0.000000e+000
    outer loop
      vertex -5.832859e+001 -9.425311e+001  6.825150e+000
      vertex -5.895856e+001 -9.425311e+001  8.647536e+000
      vertex -5.891673e+001 -9.425311e+001  2.000000e+000
    endloop
  endfacet
  facet normal  0.000000e+000 -1.000000e+000  0.000000e+000
    outer loop
      vertex -5.891673e+001 -9.425311e+001  2.000000e+000
      vertex -5.895856e+001 -9.425311e+001  8.647536e+000
      vertex -6.265414e+001 -9.425311e+001  8.647536e+000
    endloop
  endfacet
  facet normal  0.000000e+000 -1.000000e+000  0.000000e+000
    outer loop
      vertex -5.891673e+001 -9.425311e+001  2.000000e+000
      vertex -6.265414e+001 -9.425311e+001  8.647536e+000
      vertex -6.108327e+001 -9.425311e+001  2.000000e+000
    endloop
  endfacet
  facet normal -5.479934e-005 -1.000000e+000 -1.294958e-005
    outer loop
      vertex -6.108327e+001 -9.425311e+001  2.000000e+000
      vertex -6.265414e+001 -9.425311e+001  8.647536e+000
      vertex -6.225760e+001 -9.425304e+001  1.077858e+000
    endloop
  endfacet
  facet normal  0.000000e+000 -1.000000e+000 -8.273561e-005
    outer loop
      vertex -6.108327e+001 -9.425311e+001  2.000000e+000
      vertex -6.225760e+001 -9.425304e+001  1.077858e+000
      vertex -6.108327e+001 -9.425304e+001  1.077858e+000
    endloop
  endfacet
  facet normal -9.986305e-001  -0.000000e+000 -5.231550e-002
    outer loop
      vertex -6.235829e+001 -8.680363e+001  3.000000e+000
      vertex -6.230590e+001 -8.303419e+001  2.000000e+000
      vertex -6.230590e+001 -8.496581e+001  2.000000e+000
    endloop
  endfacet
  facet normal -9.986307e-001 -2.941322e-006 -5.231382e-002
    outer loop
      vertex -6.265414e+001 -9.073979e+001  8.647536e+000
      vertex -6.252683e+001 -8.995171e+001  6.217282e+000
      vertex -6.220837e+001 -9.082820e+001  1.380558e-001
    endloop
  endfacet
  facet normal -9.986308e-001 -4.594342e-006 -5.231380e-002
    outer loop
      vertex -6.265414e+001 -9.073979e+001  8.647536e+000
      vertex -6.220837e+001 -9.082820e+001  1.380558e-001
      vertex -6.230590e+001 -9.103419e+001  2.000000e+000
    endloop
  endfacet
  facet normal -9.986307e-001  -0.000000e+000 -5.231401e-002
    outer loop
      vertex -6.265414e+001 -9.073979e+001  8.647536e+000
      vertex -6.230590e+001 -9.103419e+001  2.000000e+000
      vertex -6.230590e+001 -9.296581e+001  2.000000e+000
    endloop
  endfacet
  facet normal -9.986306e-001  0.000000e+000 -5.231400e-002
    outer loop
      vertex -6.265414e+001 -9.073979e+001  8.647536e+000
      vertex -6.230590e+001 -9.296581e+001  2.000000e+000
      vertex -6.265414e+001 -9.425311e+001  8.647536e+000
    endloop
  endfacet
  facet normal -9.986306e-001  0.000000e+000 -5.231550e-002
    outer loop
      vertex -6.230590e+001 -8.303419e+001  2.000000e+000
      vertex -6.235829e+001 -8.680363e+001  3.000000e+000
      vertex -6.235829e+001 -8.000000e+001  3.000000e+000
    endloop
  endfacet
  facet normal -9.986307e-001 -4.185057e-007 -5.231423e-002
    outer loop
      vertex -6.230590e+001 -8.303419e+001  2.000000e+000
      vertex -6.235829e+001 -8.000000e+001  3.000000e+000
      vertex -6.220113e+001 -8.000000e+001 -1.064436e-018
    endloop
  endfacet
  facet normal -9.986306e-001 -1.978369e-020 -5.231360e-002
    outer loop
      vertex -6.230590e+001 -8.303419e+001  2.000000e+000
      vertex -6.220113e+001 -8.000000e+001 -1.064436e-018
      vertex -6.220113e+001 -8.281467e+001  0.000000e+000
    endloop
  endfacet
  facet normal -9.986306e-001  9.780046e-007 -5.231370e-002
    outer loop
      vertex -6.230590e+001 -8.496581e+001  2.000000e+000
      vertex -6.220113e+001 -8.518533e+001  0.000000e+000
      vertex -6.235829e+001 -8.680363e+001  3.000000e+000
    endloop
  endfacet
  facet normal -9.986307e-001  0.000000e+000 -5.231424e-002
    outer loop
      vertex -6.235829e+001 -8.680363e+001  3.000000e+000
      vertex -6.220113e+001 -8.518533e+001  0.000000e+000
      vertex -6.220113e+001 -8.886739e+001  3.819167e-013
    endloop
  endfacet
  facet normal -9.986308e-001 -7.202472e-007 -5.231374e-002
    outer loop
      vertex -6.235829e+001 -8.680363e+001  3.000000e+000
      vertex -6.220113e+001 -8.886739e+001  3.819167e-013
      vertex -6.241077e+001 -8.840091e+001  4.001803e+000
    endloop
  endfacet
  facet normal -9.986306e-001  3.843788e-007 -5.231386e-002
    outer loop
      vertex -6.241077e+001 -8.840091e+001  4.001803e+000
      vertex -6.220113e+001 -8.886739e+001  3.819167e-013
      vertex -6.246472e+001 -8.928696e+001  5.031684e+000
    endloop
  endfacet
  facet normal -9.986308e-001  2.670207e-007 -5.231388e-002
    outer loop
      vertex -6.246472e+001 -8.928696e+001  5.031684e+000
      vertex -6.220113e+001 -8.886739e+001  3.819167e-013
      vertex -6.220837e+001 -9.082820e+001  1.380558e-001
    endloop
  endfacet
  facet normal -9.986307e-001  2.647904e-006 -5.231463e-002
    outer loop
      vertex -6.246472e+001 -8.928696e+001  5.031684e+000
      vertex -6.220837e+001 -9.082820e+001  1.380558e-001
      vertex -6.252683e+001 -8.995171e+001  6.217282e+000
    endloop
  endfacet
  facet normal -9.986306e-001  1.062918e-006 -5.231380e-002
    outer loop
      vertex -6.265414e+001 -9.425311e+001  8.647536e+000
      vertex -6.230590e+001 -9.296581e+001  2.000000e+000
      vertex -6.225760e+001 -9.425304e+001  1.077858e+000
    endloop
  endfacet
  facet normal -9.986307e-001  1.547120e-006 -5.231447e-002
    outer loop
      vertex -6.225760e+001 -9.425304e+001  1.077858e+000
      vertex -6.230590e+001 -9.296581e+001  2.000000e+000
      vertex -6.223578e+001 -9.311861e+001  6.613687e-001
    endloop
  endfacet
  facet normal  0.000000e+000 -3.701009e-001 -9.289915e-001
    outer loop
      vertex -6.225760e+001 -9.425304e+001  1.077858e+000
      vertex -6.169362e+001 -9.383892e+001  9.128787e-001
      vertex -6.108327e+001 -9.425304e+001  1.077858e+000
    endloop
  endfacet
  facet normal -2.184999e-002 -3.441900e-001 -9.386457e-001
    outer loop
      vertex -6.225760e+001 -9.425304e+001  1.077858e+000
      vertex -6.223578e+001 -9.311861e+001  6.613687e-001
      vertex -6.169362e+001 -9.383892e+001  9.128787e-001
    endloop
  endfacet
  facet normal  2.383179e-001  2.461866e-001 -9.394662e-001
    outer loop
      vertex -5.022191e+001 -9.024261e+001  6.773786e-002
      vertex -5.084743e+001 -8.978154e+001  2.988556e-002
      vertex -4.800000e+001 -9.161361e+001  2.721102e-001
    endloop
  endfacet
  facet normal  1.361519e-002 -1.258048e-001 -9.919616e-001
    outer loop
      vertex -4.800000e+001 -9.161361e+001  2.721102e-001
      vertex -4.961898e+001 -9.123792e+001  2.022426e-001
      vertex -5.022191e+001 -9.024261e+001  6.773786e-002
    endloop
  endfacet
  facet normal  0.000000e+000 -3.701009e-001 -9.289915e-001
    outer loop
      vertex -4.800000e+001 -9.425304e+001  1.077858e+000
      vertex -5.091673e+001 -9.425304e+001  1.077858e+000
      vertex -5.030638e+001 -9.383892e+001  9.128787e-001
    endloop
  endfacet
  facet normal  1.032625e-002 -3.199191e-001 -9.473886e-001
    outer loop
      vertex -4.800000e+001 -9.425304e+001  1.077858e+000
      vertex -5.030638e+001 -9.383892e+001  9.128787e-001
      vertex -4.959476e+001 -9.268179e+001  5.298902e-001
    endloop
  endfacet
  facet normal  7.714447e-002 -2.576031e-001 -9.631664e-001
    outer loop
      vertex -4.800000e+001 -9.425304e+001  1.077858e+000
      vertex -4.959476e+001 -9.268179e+001  5.298902e-001
      vertex -4.950000e+001 -9.200000e+001  3.551318e-001
    endloop
  endfacet
  facet normal  2.266163e-001 -1.574503e-001 -9.611735e-001
    outer loop
      vertex -4.800000e+001 -9.425304e+001  1.077858e+000
      vertex -4.950000e+001 -9.200000e+001  3.551318e-001
      vertex -4.961898e+001 -9.123792e+001  2.022426e-001
    endloop
  endfacet
  facet normal -2.646830e-002 -2.918698e-001 -9.560918e-001
    outer loop
      vertex -4.800000e+001 -9.425304e+001  1.077858e+000
      vertex -4.961898e+001 -9.123792e+001  2.022426e-001
      vertex -4.800000e+001 -9.161361e+001  2.721102e-001
    endloop
  endfacet
  facet normal -2.688594e-014 -2.354223e-002 -9.997228e-001
    outer loop
      vertex -6.220113e+001 -8.886739e+001  3.819167e-013
      vertex -4.800000e+001 -8.886739e+001  0.000000e+000
      vertex -5.236260e+001 -8.952644e+001  1.551981e-002
    endloop
  endfacet
  facet normal  7.863710e-005 -2.236894e-002 -9.997498e-001
    outer loop
      vertex -6.220113e+001 -8.886739e+001  3.819167e-013
      vertex -5.236260e+001 -8.952644e+001  1.551981e-002
      vertex -5.992283e+001 -8.950119e+001  1.436029e-002
    endloop
  endfacet
  facet normal -2.260082e-003 -3.077070e-002 -9.995239e-001
    outer loop
      vertex -6.220113e+001 -8.886739e+001  3.819167e-013
      vertex -5.992283e+001 -8.950119e+001  1.436029e-002
      vertex -6.069410e+001 -8.959829e+001  1.909350e-002
    endloop
  endfacet
  facet normal -9.042848e-003 -4.474112e-002 -9.989576e-001
    outer loop
      vertex -6.220113e+001 -8.886739e+001  3.819167e-013
      vertex -6.069410e+001 -8.959829e+001  1.909350e-002
      vertex -6.139803e+001 -8.992744e+001  4.020739e-002
    endloop
  endfacet
  facet normal -4.251735e-002 -7.001390e-002 -9.966395e-001
    outer loop
      vertex -6.220113e+001 -8.886739e+001  3.819167e-013
      vertex -6.139803e+001 -8.992744e+001  4.020739e-002
      vertex -6.220837e+001 -9.082820e+001  1.380558e-001
    endloop
  endfacet
  facet normal  2.120660e-002 -9.858020e-002 -9.949031e-001
    outer loop
      vertex -4.800000e+001 -8.886739e+001  0.000000e+000
      vertex -4.800000e+001 -9.161361e+001  2.721102e-001
      vertex -5.084743e+001 -8.978154e+001  2.988556e-002
    endloop
  endfacet
  facet normal  3.909823e-003 -4.483732e-002 -9.989867e-001
    outer loop
      vertex -4.800000e+001 -8.886739e+001  0.000000e+000
      vertex -5.084743e+001 -8.978154e+001  2.988556e-002
      vertex -5.158512e+001 -8.953467e+001  1.591807e-002
    endloop
  endfacet
  facet normal  2.456072e-004 -2.516710e-002 -9.996832e-001
    outer loop
      vertex -4.800000e+001 -8.886739e+001  0.000000e+000
      vertex -5.158512e+001 -8.953467e+001  1.591807e-002
      vertex -5.236260e+001 -8.952644e+001  1.551981e-002
    endloop
  endfacet
  facet normal -1.548257e-005 -5.050750e-002 -9.987237e-001
    outer loop
      vertex -5.992283e+001 -8.950119e+001  1.436029e-002
      vertex -5.236260e+001 -8.952644e+001  1.551981e-002
      vertex -5.915794e+001 -8.964608e+001  2.167580e-002
    endloop
  endfacet
  facet normal  7.483430e-005 -5.562317e-002 -9.984518e-001
    outer loop
      vertex -5.915794e+001 -8.964608e+001  2.167580e-002
      vertex -5.236260e+001 -8.952644e+001  1.551981e-002
      vertex -5.310490e+001 -8.975742e+001  2.833193e-002
    endloop
  endfacet
  facet normal -1.779474e-004 -6.931502e-002 -9.975948e-001
    outer loop
      vertex -5.915794e+001 -8.964608e+001  2.167580e-002
      vertex -5.310490e+001 -8.975742e+001  2.833193e-002
      vertex -5.847502e+001 -9.001898e+001  4.746401e-002
    endloop
  endfacet
  facet normal  9.481980e-004 -9.229917e-002 -9.957309e-001
    outer loop
      vertex -5.847502e+001 -9.001898e+001  4.746401e-002
      vertex -5.310490e+001 -8.975742e+001  2.833193e-002
      vertex -5.402095e+001 -9.052835e+001  9.892135e-002
    endloop
  endfacet
  facet normal -2.108819e-003 -1.187469e-001 -9.929224e-001
    outer loop
      vertex -5.847502e+001 -9.001898e+001  4.746401e-002
      vertex -5.402095e+001 -9.052835e+001  9.892135e-002
      vertex -5.771238e+001 -9.099163e+001  1.621666e-001
    endloop
  endfacet
  facet normal  6.588213e-003 -1.866103e-001 -9.824119e-001
    outer loop
      vertex -5.771238e+001 -9.099163e+001  1.621666e-001
      vertex -5.402095e+001 -9.052835e+001  9.892135e-002
      vertex -5.750000e+001 -9.200000e+001  3.551318e-001
    endloop
  endfacet
  facet normal -7.914969e-003 -1.533222e-001 -9.881446e-001
    outer loop
      vertex -5.750000e+001 -9.200000e+001  3.551318e-001
      vertex -5.402095e+001 -9.052835e+001  9.892135e-002
      vertex -5.446538e+001 -9.158540e+001  2.664940e-001
    endloop
  endfacet
  facet normal  1.640168e-007 -2.090656e-001 -9.779016e-001
    outer loop
      vertex -5.750000e+001 -9.200000e+001  3.551318e-001
      vertex -5.446538e+001 -9.158540e+001  2.664940e-001
      vertex -5.450000e+001 -9.200000e+001  3.551323e-001
    endloop
  endfacet
  facet normal  1.635913e-007 -2.482950e-001 -9.686845e-001
    outer loop
      vertex -5.750000e+001 -9.200000e+001  3.551318e-001
      vertex -5.450000e+001 -9.200000e+001  3.551323e-001
      vertex -5.759476e+001 -9.268179e+001  5.298902e-001
    endloop
  endfacet
  facet normal  0.000000e+000 -2.482943e-001 -9.686847e-001
    outer loop
      vertex -5.759476e+001 -9.268179e+001  5.298902e-001
      vertex -5.450000e+001 -9.200000e+001  3.551323e-001
      vertex -5.440524e+001 -9.268179e+001  5.298902e-001
    endloop
  endfacet
  facet normal  -0.000000e+000 -3.142182e-001 -9.493508e-001
    outer loop
      vertex -5.759476e+001 -9.268179e+001  5.298902e-001
      vertex -5.440524e+001 -9.268179e+001  5.298902e-001
      vertex -5.830638e+001 -9.383892e+001  9.128787e-001
    endloop
  endfacet
  facet normal  0.000000e+000 -3.142181e-001 -9.493507e-001
    outer loop
      vertex -5.830638e+001 -9.383892e+001  9.128787e-001
      vertex -5.440524e+001 -9.268179e+001  5.298902e-001
      vertex -5.369362e+001 -9.383892e+001  9.128787e-001
    endloop
  endfacet
  facet normal  -0.000000e+000 -3.701009e-001 -9.289916e-001
    outer loop
      vertex -5.830638e+001 -9.383892e+001  9.128787e-001
      vertex -5.369362e+001 -9.383892e+001  9.128787e-001
      vertex -5.891673e+001 -9.425304e+001  1.077858e+000
    endloop
  endfacet
  facet normal  0.000000e+000 -3.701009e-001 -9.289915e-001
    outer loop
      vertex -5.891673e+001 -9.425304e+001  1.077858e+000
      vertex -5.369362e+001 -9.383892e+001  9.128787e-001
      vertex -5.308327e+001 -9.425304e+001  1.077858e+000
    endloop
  endfacet
  facet normal  -0.000000e+000  0.000000e+000 -9.999999e-001
    outer loop
      vertex -5.750000e+001 -8.400000e+001  0.000000e+000
      vertex -5.450000e+001 -8.400000e+001  0.000000e+000
      vertex -5.784238e+001 -8.526280e+001  0.000000e+000
    endloop
  endfacet
  facet normal  0.000000e+000  0.000000e+000 -9.999999e-001
    outer loop
      vertex -5.750000e+001 -8.400000e+001  0.000000e+000
      vertex -5.784238e+001 -8.273720e+001  0.000000e+000
      vertex -5.450000e+001 -8.400000e+001  0.000000e+000
    endloop
  endfacet
  facet normal  0.000000e+000  0.000000e+000 -1.000000e+000
    outer loop
      vertex -5.450000e+001 -8.400000e+001  0.000000e+000
      vertex -5.877574e+001 -8.617972e+001  0.000000e+000
      vertex -5.784238e+001 -8.526280e+001  0.000000e+000
    endloop
  endfacet
  facet normal  0.000000e+000  0.000000e+000 -1.000000e+000
    outer loop
      vertex -5.450000e+001 -8.400000e+001  0.000000e+000
      vertex -5.784238e+001 -8.273720e+001  0.000000e+000
      vertex -5.877574e+001 -8.182028e+001  0.000000e+000
    endloop
  endfacet
  facet normal -1.094063e-013 -1.037239e-013 -1.000000e+000
    outer loop
      vertex -6.220113e+001 -8.886739e+001  3.819167e-013
      vertex -6.220113e+001 -8.518533e+001  0.000000e+000
      vertex -6.130095e+001 -8.613483e+001  0.000000e+000
    endloop
  endfacet
  facet normal -3.703254e-014 -1.275660e-013 -1.000000e+000
    outer loop
      vertex -6.220113e+001 -8.886739e+001  3.819167e-013
      vertex -6.130095e+001 -8.613483e+001  0.000000e+000
      vertex -6.004443e+001 -8.649960e+001  0.000000e+000
    endloop
  endfacet
  facet normal  5.279379e-014 -2.093846e-013 -1.000000e+000
    outer loop
      vertex -6.220113e+001 -8.886739e+001  3.819167e-013
      vertex -6.004443e+001 -8.649960e+001  0.000000e+000
      vertex -5.877574e+001 -8.617972e+001  0.000000e+000
    endloop
  endfacet
  facet normal  2.068062e-013 -4.056714e-013 -1.000000e+000
    outer loop
      vertex -6.220113e+001 -8.886739e+001  3.819167e-013
      vertex -5.877574e+001 -8.617972e+001  0.000000e+000
      vertex -5.450000e+001 -8.400000e+001  0.000000e+000
    endloop
  endfacet
  facet normal -4.240997e-014 -1.136377e-014 -1.000000e+000
    outer loop
      vertex -6.220113e+001 -8.886739e+001  3.819167e-013
      vertex -5.450000e+001 -8.400000e+001  0.000000e+000
      vertex -5.416506e+001 -8.525000e+001  0.000000e+000
    endloop
  endfacet
  facet normal -3.277282e-014 -3.277282e-014 -1.000000e+000
    outer loop
      vertex -6.220113e+001 -8.886739e+001  3.819167e-013
      vertex -5.416506e+001 -8.525000e+001  0.000000e+000
      vertex -5.325000e+001 -8.616506e+001  0.000000e+000
    endloop
  endfacet
  facet normal -2.006255e-014 -7.487411e-014 -1.000000e+000
    outer loop
      vertex -6.220113e+001 -8.886739e+001  3.819167e-013
      vertex -5.325000e+001 -8.616506e+001  0.000000e+000
      vertex -5.200000e+001 -8.650000e+001  0.000000e+000
    endloop
  endfacet
  facet normal -2.689340e-014 -4.543982e-014 -1.000000e+000
    outer loop
      vertex -4.800000e+001 -8.886739e+001  0.000000e+000
      vertex -6.220113e+001 -8.886739e+001  3.819167e-013
      vertex -5.200000e+001 -8.650000e+001  0.000000e+000
    endloop
  endfacet
  facet normal  0.000000e+000  0.000000e+000 -1.000000e+000
    outer loop
      vertex -4.800000e+001 -8.886739e+001  0.000000e+000
      vertex -5.200000e+001 -8.650000e+001  0.000000e+000
      vertex -5.075000e+001 -8.616506e+001  0.000000e+000
    endloop
  endfacet
  facet normal  0.000000e+000  0.000000e+000 -1.000000e+000
    outer loop
      vertex -4.800000e+001 -8.886739e+001  0.000000e+000
      vertex -5.075000e+001 -8.616506e+001  0.000000e+000
      vertex -4.983494e+001 -8.525000e+001  0.000000e+000
    endloop
  endfacet
  facet normal  0.000000e+000  0.000000e+000 -1.000000e+000
    outer loop
      vertex -4.800000e+001 -8.886739e+001  0.000000e+000
      vertex -4.983494e+001 -8.525000e+001  0.000000e+000
      vertex -4.950000e+001 -8.400000e+001  0.000000e+000
    endloop
  endfacet
  facet normal -3.895190e-019 -1.200395e-019 -1.000000e+000
    outer loop
      vertex -4.800000e+001 -8.886739e+001  0.000000e+000
      vertex -4.950000e+001 -8.400000e+001  0.000000e+000
      vertex -4.800000e+001 -8.000000e+001 -1.064436e-018
    endloop
  endfacet
  facet normal  6.737287e-020 -2.514378e-019 -1.000000e+000
    outer loop
      vertex -6.220113e+001 -8.000000e+001 -1.064436e-018
      vertex -5.200000e+001 -8.150000e+001  0.000000e+000
      vertex -5.325000e+001 -8.183494e+001  0.000000e+000
    endloop
  endfacet
  facet normal  9.868621e-020 -9.868621e-020 -1.000000e+000
    outer loop
      vertex -6.220113e+001 -8.000000e+001 -1.064436e-018
      vertex -5.325000e+001 -8.183494e+001  0.000000e+000
      vertex -5.416506e+001 -8.275000e+001  0.000000e+000
    endloop
  endfacet
  facet normal  1.213319e-019 -3.251092e-020 -1.000000e+000
    outer loop
      vertex -6.220113e+001 -8.000000e+001 -1.064436e-018
      vertex -5.416506e+001 -8.275000e+001  0.000000e+000
      vertex -5.450000e+001 -8.400000e+001  0.000000e+000
    endloop
  endfacet
  facet normal -7.327233e-018 -1.437311e-017 -1.000000e+000
    outer loop
      vertex -6.220113e+001 -8.000000e+001 -1.064436e-018
      vertex -5.450000e+001 -8.400000e+001  0.000000e+000
      vertex -5.877574e+001 -8.182028e+001  0.000000e+000
    endloop
  endfacet
  facet normal -2.805581e-019 -1.112717e-018 -9.999999e-001
    outer loop
      vertex -6.220113e+001 -8.000000e+001 -1.064436e-018
      vertex -5.877574e+001 -8.182028e+001  0.000000e+000
      vertex -6.004443e+001 -8.150040e+001  0.000000e+000
    endloop
  endfacet
  facet normal  1.453132e-019 -5.005602e-019 -1.000000e+000
    outer loop
      vertex -6.220113e+001 -8.000000e+001 -1.064436e-018
      vertex -6.004443e+001 -8.150040e+001  0.000000e+000
      vertex -6.130095e+001 -8.186517e+001  0.000000e+000
    endloop
  endfacet
  facet normal  3.988931e-019 -3.781750e-019 -1.000000e+000
    outer loop
      vertex -6.220113e+001 -8.000000e+001 -1.064436e-018
      vertex -6.130095e+001 -8.186517e+001  0.000000e+000
      vertex -6.220113e+001 -8.281467e+001  0.000000e+000
    endloop
  endfacet
  facet normal -4.138875e-019 -1.109013e-019 -1.000000e+000
    outer loop
      vertex -4.800000e+001 -8.000000e+001 -1.064436e-018
      vertex -4.950000e+001 -8.400000e+001  0.000000e+000
      vertex -4.983494e+001 -8.275000e+001  0.000000e+000
    endloop
  endfacet
  facet normal -2.321594e-019 -2.321594e-019 -1.000000e+000
    outer loop
      vertex -4.800000e+001 -8.000000e+001 -1.064436e-018
      vertex -4.983494e+001 -8.275000e+001  0.000000e+000
      vertex -5.075000e+001 -8.183494e+001  0.000000e+000
    endloop
  endfacet
  facet normal -1.109013e-019 -4.138875e-019 -1.000000e+000
    outer loop
      vertex -4.800000e+001 -8.000000e+001 -1.064436e-018
      vertex -5.075000e+001 -8.183494e+001  0.000000e+000
      vertex -5.200000e+001 -8.150000e+001  0.000000e+000
    endloop
  endfacet
  facet normal  0.000000e+000 -7.096243e-019 -9.999999e-001
    outer loop
      vertex -4.800000e+001 -8.000000e+001 -1.064436e-018
      vertex -5.200000e+001 -8.150000e+001  0.000000e+000
      vertex -6.220113e+001 -8.000000e+001 -1.064436e-018
    endloop
  endfacet
  facet normal -2.588202e-001  9.659255e-001  0.000000e+000
    outer loop
      vertex -5.200000e+001 -8.650000e+001  0.000000e+000
      vertex -5.075000e+001 -8.616506e+001  2.000000e+000
      vertex -5.075000e+001 -8.616506e+001  0.000000e+000
    endloop
  endfacet
  facet normal -7.071068e-001  7.071068e-001  0.000000e+000
    outer loop
      vertex -5.075000e+001 -8.616506e+001  0.000000e+000
      vertex -5.075000e+001 -8.616506e+001  2.000000e+000
      vertex -4.983494e+001 -8.525000e+001  2.000000e+000
    endloop
  endfacet
  facet normal -7.071068e-001  7.071068e-001  0.000000e+000
    outer loop
      vertex -5.075000e+001 -8.616506e+001  0.000000e+000
      vertex -4.983494e+001 -8.525000e+001  2.000000e+000
      vertex -4.983494e+001 -8.525000e+001  0.000000e+000
    endloop
  endfacet
  facet normal -9.659255e-001  2.588202e-001  0.000000e+000
    outer loop
      vertex -4.983494e+001 -8.525000e+001  0.000000e+000
      vertex -4.983494e+001 -8.525000e+001  2.000000e+000
      vertex -4.950000e+001 -8.400000e+001  2.000000e+000
    endloop
  endfacet
  facet normal -9.659255e-001  2.588202e-001  0.000000e+000
    outer loop
      vertex -4.983494e+001 -8.525000e+001  0.000000e+000
      vertex -4.950000e+001 -8.400000e+001  2.000000e+000
      vertex -4.950000e+001 -8.400000e+001  0.000000e+000
    endloop
  endfacet
  facet normal -2.588202e-001  9.659255e-001  0.000000e+000
    outer loop
      vertex -5.075000e+001 -8.616506e+001  2.000000e+000
      vertex -5.200000e+001 -8.650000e+001  0.000000e+000
      vertex -5.200000e+001 -8.650000e+001  2.000000e+000
    endloop
  endfacet
  facet normal  2.588202e-001  9.659255e-001  0.000000e+000
    outer loop
      vertex -5.200000e+001 -8.650000e+001  2.000000e+000
      vertex -5.200000e+001 -8.650000e+001  0.000000e+000
      vertex -5.325000e+001 -8.616506e+001  0.000000e+000
    endloop
  endfacet
  facet normal  2.588202e-001  9.659255e-001  -0.000000e+000
    outer loop
      vertex -5.200000e+001 -8.650000e+001  2.000000e+000
      vertex -5.325000e+001 -8.616506e+001  0.000000e+000
      vertex -5.325000e+001 -8.616506e+001  2.000000e+000
    endloop
  endfacet
  facet normal  7.071068e-001  7.071068e-001  0.000000e+000
    outer loop
      vertex -5.325000e+001 -8.616506e+001  2.000000e+000
      vertex -5.325000e+001 -8.616506e+001  0.000000e+000
      vertex -5.416506e+001 -8.525000e+001  0.000000e+000
    endloop
  endfacet
  facet normal  7.071068e-001  7.071068e-001  -0.000000e+000
    outer loop
      vertex -5.325000e+001 -8.616506e+001  2.000000e+000
      vertex -5.416506e+001 -8.525000e+001  0.000000e+000
      vertex -5.416506e+001 -8.525000e+001  2.000000e+000
    endloop
  endfacet
  facet normal  9.659255e-001  2.588202e-001  0.000000e+000
    outer loop
      vertex -5.416506e+001 -8.525000e+001  2.000000e+000
      vertex -5.416506e+001 -8.525000e+001  0.000000e+000
      vertex -5.450000e+001 -8.400000e+001  0.000000e+000
    endloop
  endfacet
  facet normal  9.659255e-001  2.588202e-001  -0.000000e+000
    outer loop
      vertex -5.416506e+001 -8.525000e+001  2.000000e+000
      vertex -5.450000e+001 -8.400000e+001  0.000000e+000
      vertex -5.450000e+001 -8.400000e+001  2.000000e+000
    endloop
  endfacet
  facet normal  2.588202e-001 -9.659255e-001  0.000000e+000
    outer loop
      vertex -5.200000e+001 -8.150000e+001  0.000000e+000
      vertex -5.325000e+001 -8.183494e+001  2.000000e+000
      vertex -5.325000e+001 -8.183494e+001  0.000000e+000
    endloop
  endfacet
  facet normal  7.071068e-001 -7.071068e-001  0.000000e+000
    outer loop
      vertex -5.325000e+001 -8.183494e+001  0.000000e+000
      vertex -5.325000e+001 -8.183494e+001  2.000000e+000
      vertex -5.416506e+001 -8.275000e+001  2.000000e+000
    endloop
  endfacet
  facet normal  7.071068e-001 -7.071068e-001  0.000000e+000
    outer loop
      vertex -5.325000e+001 -8.183494e+001  0.000000e+000
      vertex -5.416506e+001 -8.275000e+001  2.000000e+000
      vertex -5.416506e+001 -8.275000e+001  0.000000e+000
    endloop
  endfacet
  facet normal  9.659255e-001 -2.588202e-001  0.000000e+000
    outer loop
      vertex -5.416506e+001 -8.275000e+001  0.000000e+000
      vertex -5.416506e+001 -8.275000e+001  2.000000e+000
      vertex -5.450000e+001 -8.400000e+001  2.000000e+000
    endloop
  endfacet
  facet normal  9.659255e-001 -2.588202e-001  0.000000e+000
    outer loop
      vertex -5.416506e+001 -8.275000e+001  0.000000e+000
      vertex -5.450000e+001 -8.400000e+001  2.000000e+000
      vertex -5.450000e+001 -8.400000e+001  0.000000e+000
    endloop
  endfacet
  facet normal  2.588202e-001 -9.659255e-001  0.000000e+000
    outer loop
      vertex -5.325000e+001 -8.183494e+001  2.000000e+000
      vertex -5.200000e+001 -8.150000e+001  0.000000e+000
      vertex -5.200000e+001 -8.150000e+001  2.000000e+000
    endloop
  endfacet
  facet normal -2.588202e-001 -9.659255e-001  -0.000000e+000
    outer loop
      vertex -5.200000e+001 -8.150000e+001  2.000000e+000
      vertex -5.200000e+001 -8.150000e+001  0.000000e+000
      vertex -5.075000e+001 -8.183494e+001  0.000000e+000
    endloop
  endfacet
  facet normal -2.588202e-001 -9.659255e-001  0.000000e+000
    outer loop
      vertex -5.200000e+001 -8.150000e+001  2.000000e+000
      vertex -5.075000e+001 -8.183494e+001  0.000000e+000
      vertex -5.075000e+001 -8.183494e+001  2.000000e+000
    endloop
  endfacet
  facet normal -7.071068e-001 -7.071068e-001  -0.000000e+000
    outer loop
      vertex -5.075000e+001 -8.183494e+001  2.000000e+000
      vertex -5.075000e+001 -8.183494e+001  0.000000e+000
      vertex -4.983494e+001 -8.275000e+001  0.000000e+000
    endloop
  endfacet
  facet normal -7.071068e-001 -7.071068e-001  0.000000e+000
    outer loop
      vertex -5.075000e+001 -8.183494e+001  2.000000e+000
      vertex -4.983494e+001 -8.275000e+001  0.000000e+000
      vertex -4.983494e+001 -8.275000e+001  2.000000e+000
    endloop
  endfacet
  facet normal -9.659255e-001 -2.588202e-001  -0.000000e+000
    outer loop
      vertex -4.983494e+001 -8.275000e+001  2.000000e+000
      vertex -4.983494e+001 -8.275000e+001  0.000000e+000
      vertex -4.950000e+001 -8.400000e+001  0.000000e+000
    endloop
  endfacet
  facet normal -9.659255e-001 -2.588202e-001  0.000000e+000
    outer loop
      vertex -4.983494e+001 -8.275000e+001  2.000000e+000
      vertex -4.950000e+001 -8.400000e+001  0.000000e+000
      vertex -4.950000e+001 -8.400000e+001  2.000000e+000
    endloop
  endfacet
  facet normal  0.000000e+000  0.000000e+000 -1.000000e+000
    outer loop
      vertex -5.200000e+001 -8.150000e+001  2.000000e+000
      vertex -5.075000e+001 -8.183494e+001  2.000000e+000
      vertex -5.325000e+001 -8.183494e+001  2.000000e+000
    endloop
  endfacet
  facet normal  0.000000e+000  0.000000e+000 -1.000000e+000
    outer loop
      vertex -5.200000e+001 -8.650000e+001  2.000000e+000
      vertex -5.325000e+001 -8.616506e+001  2.000000e+000
      vertex -5.075000e+001 -8.616506e+001  2.000000e+000
    endloop
  endfacet
  facet normal  0.000000e+000  0.000000e+000 -1.000000e+000
    outer loop
      vertex -5.075000e+001 -8.616506e+001  2.000000e+000
      vertex -5.325000e+001 -8.616506e+001  2.000000e+000
      vertex -5.416506e+001 -8.525000e+001  2.000000e+000
    endloop
  endfacet
  facet normal  0.000000e+000  0.000000e+000 -9.999999e-001
    outer loop
      vertex -5.075000e+001 -8.616506e+001  2.000000e+000
      vertex -5.416506e+001 -8.525000e+001  2.000000e+000
      vertex -4.983494e+001 -8.525000e+001  2.000000e+000
    endloop
  endfacet
  facet normal  0.000000e+000  0.000000e+000 -1.000000e+000
    outer loop
      vertex -4.983494e+001 -8.525000e+001  2.000000e+000
      vertex -5.416506e+001 -8.525000e+001  2.000000e+000
      vertex -5.450000e+001 -8.400000e+001  2.000000e+000
    endloop
  endfacet
  facet normal  0.000000e+000  0.000000e+000 -1.000000e+000
    outer loop
      vertex -4.983494e+001 -8.525000e+001  2.000000e+000
      vertex -5.450000e+001 -8.400000e+001  2.000000e+000
      vertex -4.950000e+001 -8.400000e+001  2.000000e+000
    endloop
  endfacet
  facet normal  0.000000e+000  0.000000e+000 -1.000000e+000
    outer loop
      vertex -4.950000e+001 -8.400000e+001  2.000000e+000
      vertex -5.450000e+001 -8.400000e+001  2.000000e+000
      vertex -5.416506e+001 -8.275000e+001  2.000000e+000
    endloop
  endfacet
  facet normal  0.000000e+000  0.000000e+000 -1.000000e+000
    outer loop
      vertex -4.950000e+001 -8.400000e+001  2.000000e+000
      vertex -5.416506e+001 -8.275000e+001  2.000000e+000
      vertex -4.983494e+001 -8.275000e+001  2.000000e+000
    endloop
  endfacet
  facet normal  0.000000e+000  0.000000e+000 -9.999999e-001
    outer loop
      vertex -4.983494e+001 -8.275000e+001  2.000000e+000
      vertex -5.416506e+001 -8.275000e+001  2.000000e+000
      vertex -5.325000e+001 -8.183494e+001  2.000000e+000
    endloop
  endfacet
  facet normal  0.000000e+000  0.000000e+000 -1.000000e+000
    outer loop
      vertex -4.983494e+001 -8.275000e+001  2.000000e+000
      vertex -5.325000e+001 -8.183494e+001  2.000000e+000
      vertex -5.075000e+001 -8.183494e+001  2.000000e+000
    endloop
  endfacet
  facet normal  0.000000e+000  9.999999e-001  0.000000e+000
    outer loop
      vertex -6.220113e+001 -8.000000e+001 -1.064436e-018
      vertex -6.235829e+001 -8.000000e+001  3.000000e+000
      vertex -4.800000e+001 -8.000000e+001 -1.064436e-018
    endloop
  endfacet
  facet normal  0.000000e+000  1.000000e+000  -0.000000e+000
    outer loop
      vertex -4.800000e+001 -8.000000e+001 -1.064436e-018
      vertex -6.235829e+001 -8.000000e+001  3.000000e+000
      vertex -4.800000e+001 -8.000000e+001  3.000000e+000
    endloop
  endfacet
  facet normal  1.000000e+000  0.000000e+000  0.000000e+000
    outer loop
      vertex -4.800000e+001 -8.000000e+001 -1.064436e-018
      vertex -4.800000e+001 -8.000000e+001  3.000000e+000
      vertex -4.800000e+001 -8.886739e+001  0.000000e+000
    endloop
  endfacet
  facet normal  1.000000e+000  0.000000e+000  0.000000e+000
    outer loop
      vertex -4.800000e+001 -8.886739e+001  0.000000e+000
      vertex -4.800000e+001 -8.000000e+001  3.000000e+000
      vertex -4.800000e+001 -8.680363e+001  3.000000e+000
    endloop
  endfacet
  facet normal  1.000000e+000  0.000000e+000  0.000000e+000
    outer loop
      vertex -4.800000e+001 -8.886739e+001  0.000000e+000
      vertex -4.800000e+001 -8.680363e+001  3.000000e+000
      vertex -4.800000e+001 -8.681670e+001  3.005180e+000
    endloop
  endfacet
  facet normal  1.000000e+000  0.000000e+000  0.000000e+000
    outer loop
      vertex -4.800000e+001 -8.886739e+001  0.000000e+000
      vertex -4.800000e+001 -8.681670e+001  3.005180e+000
      vertex -4.800000e+001 -9.161361e+001  2.721102e-001
    endloop
  endfacet
  facet normal  9.999999e-001  0.000000e+000  -0.000000e+000
    outer loop
      vertex -4.800000e+001 -9.161361e+001  2.721102e-001
      vertex -4.800000e+001 -8.681670e+001  3.005180e+000
      vertex -4.800000e+001 -9.425311e+001  3.005180e+000
    endloop
  endfacet
  facet normal  1.000000e+000  0.000000e+000  0.000000e+000
    outer loop
      vertex -4.800000e+001 -9.161361e+001  2.721102e-001
      vertex -4.800000e+001 -9.425311e+001  3.005180e+000
      vertex -4.800000e+001 -9.425304e+001  1.077858e+000
    endloop
  endfacet
  facet normal  6.479093e-002  2.676232e-001  9.613429e-001
    outer loop
      vertex -5.460398e+001 -8.702125e+001  3.091575e+000
      vertex -6.241077e+001 -8.840091e+001  4.001803e+000
      vertex -5.476268e+001 -8.708162e+001  3.119078e+000
    endloop
  endfacet
  facet normal  2.227073e-002  4.635639e-001  8.857836e-001
    outer loop
      vertex -6.241077e+001 -8.840091e+001  4.001803e+000
      vertex -5.586663e+001 -8.778192e+001  3.513328e+000
      vertex -5.476268e+001 -8.708162e+001  3.119078e+000
    endloop
  endfacet
  facet normal  4.902794e-003  5.312119e-001  8.472248e-001
    outer loop
      vertex -6.235829e+001 -8.680363e+001  3.000000e+000
      vertex -6.241077e+001 -8.840091e+001  4.001803e+000
      vertex -5.460398e+001 -8.702125e+001  3.091575e+000
    endloop
  endfacet
  facet normal  3.440486e-005  3.889024e-001  9.212790e-001
    outer loop
      vertex -6.235829e+001 -8.680363e+001  3.000000e+000
      vertex -5.460398e+001 -8.702125e+001  3.091575e+000
      vertex -5.324696e+001 -8.681670e+001  3.005180e+000
    endloop
  endfacet
  facet normal  -0.000000e+000  3.682731e-001  9.297177e-001
    outer loop
      vertex -6.235829e+001 -8.680363e+001  3.000000e+000
      vertex -5.324696e+001 -8.681670e+001  3.005180e+000
      vertex -4.800000e+001 -8.681670e+001  3.005180e+000
    endloop
  endfacet
  facet normal  0.000000e+000  3.682731e-001  9.297176e-001
    outer loop
      vertex -6.235829e+001 -8.680363e+001  3.000000e+000
      vertex -4.800000e+001 -8.681670e+001  3.005180e+000
      vertex -4.800000e+001 -8.680363e+001  3.000000e+000
    endloop
  endfacet
  facet normal -4.986652e-003  6.514381e-001  7.586853e-001
    outer loop
      vertex -5.586663e+001 -8.778192e+001  3.513328e+000
      vertex -6.241077e+001 -8.840091e+001  4.001803e+000
      vertex -5.679534e+001 -8.868698e+001  4.284345e+000
    endloop
  endfacet
  facet normal  5.786646e-003  7.578926e-001  6.523538e-001
    outer loop
      vertex -5.679534e+001 -8.868698e+001  4.284345e+000
      vertex -6.241077e+001 -8.840091e+001  4.001803e+000
      vertex -6.246472e+001 -8.928696e+001  5.031684e+000
    endloop
  endfacet
  facet normal -5.200369e-003  7.986720e-001  6.017439e-001
    outer loop
      vertex -5.679534e+001 -8.868698e+001  4.284345e+000
      vertex -6.246472e+001 -8.928696e+001  5.031684e+000
      vertex -5.759262e+001 -8.948431e+001  5.335714e+000
    endloop
  endfacet
  facet normal  4.795325e-003  8.721332e-001  4.892450e-001
    outer loop
      vertex -5.759262e+001 -8.948431e+001  5.335714e+000
      vertex -6.246472e+001 -8.928696e+001  5.031684e+000
      vertex -6.252683e+001 -8.995171e+001  6.217282e+000
    endloop
  endfacet
  facet normal -8.160538e-003  9.016538e-001  4.323817e-001
    outer loop
      vertex -5.759262e+001 -8.948431e+001  5.335714e+000
      vertex -6.252683e+001 -8.995171e+001  6.217282e+000
      vertex -5.832859e+001 -9.020522e+001  6.825150e+000
    endloop
  endfacet
  facet normal  1.267559e-002  9.509642e-001  3.090409e-001
    outer loop
      vertex -5.832859e+001 -9.020522e+001  6.825150e+000
      vertex -6.252683e+001 -8.995171e+001  6.217282e+000
      vertex -6.265414e+001 -9.073979e+001  8.647536e+000
    endloop
  endfacet
  facet normal  -0.000000e+000  9.595677e-001  2.814783e-001
    outer loop
      vertex -5.832859e+001 -9.020522e+001  6.825150e+000
      vertex -6.265414e+001 -9.073979e+001  8.647536e+000
      vertex -5.895856e+001 -9.073979e+001  8.647536e+000
    endloop
  endfacet
  facet normal  0.000000e+000  0.000000e+000  1.000000e+000
    outer loop
      vertex -6.235829e+001 -8.000000e+001  3.000000e+000
      vertex -6.235829e+001 -8.680363e+001  3.000000e+000
      vertex -4.800000e+001 -8.000000e+001  3.000000e+000
    endloop
  endfacet
  facet normal  0.000000e+000  0.000000e+000  1.000000e+000
    outer loop
      vertex -4.800000e+001 -8.000000e+001  3.000000e+000
      vertex -6.235829e+001 -8.680363e+001  3.000000e+000
      vertex -4.800000e+001 -8.680363e+001  3.000000e+000
    endloop
  endfacet
  facet normal  0.000000e+000  0.000000e+000  1.000000e+000
    outer loop
      vertex -4.800000e+001 -9.425311e+001  3.005180e+000
      vertex -4.800000e+001 -8.681670e+001  3.005180e+000
      vertex -5.324696e+001 -9.425311e+001  3.005180e+000
    endloop
  endfacet
  facet normal  0.000000e+000  0.000000e+000  1.000000e+000
    outer loop
      vertex -5.324696e+001 -9.425311e+001  3.005180e+000
      vertex -4.800000e+001 -8.681670e+001  3.005180e+000
      vertex -5.324696e+001 -8.681670e+001  3.005180e+000
    endloop
  endfacet
  facet normal  0.000000e+000  0.000000e+000  1.000000e+000
    outer loop
      vertex -6.265414e+001 -9.425311e+001  8.647536e+000
      vertex -5.895856e+001 -9.425311e+001  8.647536e+000
      vertex -6.265414e+001 -9.073979e+001  8.647536e+000
    endloop
  endfacet
  facet normal  -0.000000e+000  0.000000e+000  1.000000e+000
    outer loop
      vertex -6.265414e+001 -9.073979e+001  8.647536e+000
      vertex -5.895856e+001 -9.425311e+001  8.647536e+000
      vertex -5.895856e+001 -9.073979e+001  8.647536e+000
    endloop
  endfacet
  facet normal  9.451225e-001  0.000000e+000  3.267160e-001
    outer loop
      vertex -5.832859e+001 -9.020522e+001  6.825150e+000
      vertex -5.895856e+001 -9.073979e+001  8.647536e+000
      vertex -5.832859e+001 -9.425311e+001  6.825150e+000
    endloop
  endfacet
  facet normal  9.451225e-001  0.000000e+000  3.267160e-001
    outer loop
      vertex -5.832859e+001 -9.425311e+001  6.825150e+000
      vertex -5.895856e+001 -9.073979e+001  8.647536e+000
      vertex -5.895856e+001 -9.425311e+001  8.647536e+000
    endloop
  endfacet
  facet normal  8.965245e-001  0.000000e+000  4.429943e-001
    outer loop
      vertex -5.759262e+001 -8.948431e+001  5.335714e+000
      vertex -5.832859e+001 -9.020522e+001  6.825150e+000
      vertex -5.759262e+001 -9.425311e+001  5.335714e+000
    endloop
  endfacet
  facet normal  8.965245e-001  0.000000e+000  4.429943e-001
    outer loop
      vertex -5.759262e+001 -9.425311e+001  5.335714e+000
      vertex -5.832859e+001 -9.020522e+001  6.825150e+000
      vertex -5.832859e+001 -9.425311e+001  6.825150e+000
    endloop
  endfacet
  facet normal  7.968034e-001  0.000000e+000  6.042387e-001
    outer loop
      vertex -5.679534e+001 -8.868698e+001  4.284345e+000
      vertex -5.759262e+001 -8.948431e+001  5.335714e+000
      vertex -5.679534e+001 -9.425311e+001  4.284345e+000
    endloop
  endfacet
  facet normal  7.968034e-001  0.000000e+000  6.042387e-001
    outer loop
      vertex -5.679534e+001 -9.425311e+001  4.284345e+000
      vertex -5.759262e+001 -8.948431e+001  5.335714e+000
      vertex -5.759262e+001 -9.425311e+001  5.335714e+000
    endloop
  endfacet
  facet normal  6.387611e-001  0.000000e+000  7.694050e-001
    outer loop
      vertex -5.586663e+001 -8.778192e+001  3.513328e+000
      vertex -5.679534e+001 -8.868698e+001  4.284345e+000
      vertex -5.586663e+001 -9.425311e+001  3.513328e+000
    endloop
  endfacet
  facet normal  6.387611e-001  0.000000e+000  7.694050e-001
    outer loop
      vertex -5.586663e+001 -9.425311e+001  3.513328e+000
      vertex -5.679534e+001 -8.868698e+001  4.284345e+000
      vertex -5.679534e+001 -9.425311e+001  4.284345e+000
    endloop
  endfacet
  facet normal  3.363241e-001  0.000000e+000  9.417463e-001
    outer loop
      vertex -5.476268e+001 -8.708162e+001  3.119078e+000
      vertex -5.586663e+001 -8.778192e+001  3.513328e+000
      vertex -5.476268e+001 -9.425311e+001  3.119078e+000
    endloop
  endfacet
  facet normal  3.363241e-001  0.000000e+000  9.417463e-001
    outer loop
      vertex -5.476268e+001 -9.425311e+001  3.119078e+000
      vertex -5.586663e+001 -8.778192e+001  3.513328e+000
      vertex -5.586663e+001 -9.425311e+001  3.513328e+000
    endloop
  endfacet
  facet normal  6.353673e-002  0.000000e+000  9.979794e-001
    outer loop
      vertex -5.324696e+001 -8.681670e+001  3.005180e+000
      vertex -5.460398e+001 -8.702125e+001  3.091575e+000
      vertex -5.324696e+001 -9.425311e+001  3.005180e+000
    endloop
  endfacet
  facet normal  1.637239e-001  1.893888e-002  9.863244e-001
    outer loop
      vertex -5.324696e+001 -9.425311e+001  3.005180e+000
      vertex -5.460398e+001 -8.702125e+001  3.091575e+000
      vertex -5.476268e+001 -8.708162e+001  3.119078e+000
    endloop
  endfacet
  facet normal  7.493289e-002  0.000000e+000  9.971886e-001
    outer loop
      vertex -5.324696e+001 -9.425311e+001  3.005180e+000
      vertex -5.476268e+001 -8.708162e+001  3.119078e+000
      vertex -5.476268e+001 -9.425311e+001  3.119078e+000
    endloop
  endfacet
endsolid CATIA STL
